<svg xmlns="http://www.w3.org/2000/svg" width="83" height="78" viewBox="0 0 83 78" version="1.1"><title>cash_icon</title><desc>Created with Sketch.</desc><g stroke="none" stroke-width="1" fill="none" fill-rule="evenodd"><g transform="translate(1.000000, 0.000000)"><rect stroke="#4D3E60" stroke-width="2.35" fill-opacity="0.73" fill="#4D3E60" x="8.38" y="27.95" width="71.52" height="33" rx="1.18"/><rect stroke="#4D3E60" stroke-width="2.35" fill="#A3A0B3" x="4.15" y="22.97" width="71.52" height="33" rx="1.18"/><rect stroke="#4D3E60" stroke-width="2.35" fill="#FFFFFF" x="0" y="17.98" width="71.52" height="33" rx="1.18"/><ellipse fill="#4D3E60" cx="35.76" cy="34.48" rx="10.78" ry="10.93"/><text font-family="Avenir Next" font-size="13.39" font-weight="526" fill="#FFFFFF"><tspan x="31.68" y="39.47">$</tspan></text><path d="M56 7L30 71" stroke="#4D3E60" stroke-width="3.5" stroke-linecap="square"/><path d="M62 0L31 76" stroke="#FFFFFF" stroke-width="2.8" stroke-linecap="square"/><path d="M58.79 45.7L58.79 41.91 57.83 42.65 57.19 41.78 58.89 40.53 60.02 40.53 60.02 45.7 58.79 45.7ZM65.29 43.1C65.29 43.47 65.25 43.82 65.18 44.15 65.11 44.48 64.99 44.77 64.83 45.02 64.67 45.27 64.46 45.47 64.21 45.62 63.95 45.77 63.64 45.84 63.28 45.84 62.91 45.84 62.6 45.77 62.34 45.62 62.08 45.47 61.87 45.27 61.71 45.02 61.55 44.77 61.43 44.48 61.36 44.15 61.28 43.82 61.25 43.47 61.25 43.1 61.25 42.74 61.28 42.39 61.36 42.06 61.43 41.73 61.55 41.45 61.71 41.2 61.87 40.96 62.08 40.76 62.34 40.61 62.6 40.47 62.91 40.39 63.28 40.39 63.64 40.39 63.95 40.47 64.21 40.61 64.46 40.76 64.67 40.96 64.83 41.2 64.99 41.45 65.11 41.73 65.18 42.06 65.25 42.39 65.29 42.74 65.29 43.1L65.29 43.1ZM64.04 43.1C64.04 42.94 64.03 42.77 64.01 42.57 63.99 42.38 63.95 42.19 63.9 42.03 63.84 41.86 63.77 41.72 63.67 41.6 63.57 41.49 63.44 41.43 63.28 41.43 63.12 41.43 62.98 41.49 62.88 41.6 62.78 41.72 62.7 41.86 62.64 42.03 62.59 42.19 62.55 42.38 62.53 42.57 62.51 42.77 62.5 42.94 62.5 43.1 62.5 43.27 62.51 43.45 62.53 43.65 62.55 43.84 62.59 44.03 62.64 44.2 62.7 44.36 62.78 44.5 62.88 44.62 62.98 44.73 63.12 44.79 63.28 44.79 63.44 44.79 63.57 44.73 63.67 44.62 63.77 44.5 63.84 44.36 63.9 44.2 63.95 44.03 63.99 43.84 64.01 43.65 64.03 43.45 64.04 43.27 64.04 43.1L64.04 43.1Z" fill="#4D3E60" transform="translate(61.408504, 43.118284) scale(-1, -1) translate(-61.408504, -43.118284) "/><path d="M6.22 28.51L6.22 24.71 5.25 25.45 4.62 24.58 6.32 23.34 7.44 23.34 7.44 28.51 6.22 28.51ZM12.72 25.91C12.72 26.27 12.68 26.62 12.61 26.95 12.54 27.28 12.42 27.57 12.26 27.82 12.1 28.07 11.89 28.27 11.64 28.42 11.38 28.57 11.07 28.64 10.7 28.64 10.34 28.64 10.03 28.57 9.77 28.42 9.51 28.27 9.3 28.07 9.14 27.82 8.98 27.57 8.86 27.28 8.78 26.95 8.71 26.62 8.67 26.27 8.67 25.91 8.67 25.54 8.71 25.19 8.78 24.87 8.86 24.54 8.98 24.25 9.14 24 9.3 23.76 9.51 23.56 9.77 23.42 10.03 23.27 10.34 23.2 10.7 23.2 11.07 23.2 11.38 23.27 11.64 23.42 11.89 23.56 12.1 23.76 12.26 24 12.42 24.25 12.54 24.54 12.61 24.87 12.68 25.19 12.72 25.54 12.72 25.91L12.72 25.91ZM11.46 25.91C11.46 25.75 11.45 25.57 11.43 25.37 11.42 25.18 11.38 25 11.33 24.83 11.27 24.66 11.19 24.52 11.1 24.41 11 24.29 10.87 24.23 10.7 24.23 10.54 24.23 10.41 24.29 10.31 24.41 10.21 24.52 10.13 24.66 10.07 24.83 10.02 25 9.98 25.18 9.96 25.37 9.94 25.57 9.93 25.75 9.93 25.91 9.93 26.07 9.94 26.25 9.96 26.45 9.98 26.65 10.02 26.83 10.07 27 10.13 27.17 10.21 27.31 10.31 27.42 10.41 27.54 10.54 27.59 10.7 27.59 10.87 27.59 11 27.54 11.1 27.42 11.19 27.31 11.27 27.17 11.33 27 11.38 26.83 11.42 26.65 11.43 26.45 11.45 26.25 11.46 26.07 11.46 25.91L11.46 25.91Z" fill="#4D3E60"/></g></g></svg>