<?xml version="1.0" encoding="UTF-8" standalone="no"?>
<svg width="83px" height="78px" viewBox="0 0 83 78" version="1.1" xmlns="http://www.w3.org/2000/svg" xmlns:xlink="http://www.w3.org/1999/xlink" xmlns:sketch="http://www.bohemiancoding.com/sketch/ns">
    <!-- Generator: Sketch 3.2.2 (9983) - http://www.bohemiancoding.com/sketch -->
    <title>cash_icon</title>
    <desc>Created with Sketch.</desc>
    <defs></defs>
    <g id="Page-1" stroke="none" stroke-width="1" fill="none" fill-rule="evenodd" sketch:type="MSPage">
        <g id="cash_icon" sketch:type="MSArtboardGroup">
            <g sketch:type="MSLayerGroup" transform="translate(1.000000, 0.000000)">
                <rect id="Rectangle-6" stroke="#4D3E60" stroke-width="2.352" fill-opacity="0.730000019" fill="#4D3E60" sketch:type="MSShapeGroup" x="8.37675198" y="27.9520774" width="71.5227565" height="33.0014423" rx="1.176"></rect>
                <rect id="Rectangle-7" stroke="#4D3E60" stroke-width="2.352" fill="#A3A0B3" sketch:type="MSShapeGroup" x="4.1511798" y="22.9671688" width="71.5227565" height="33.0014423" rx="1.176"></rect>
                <rect id="Rectangle-8" stroke="#4D3E60" stroke-width="2.352" fill="#FFFFFF" sketch:type="MSShapeGroup" x="0" y="17.9822602" width="71.5227565" height="33.0014423" rx="1.176"></rect>
                <ellipse id="Oval-5" fill="#4D3E60" sketch:type="MSShapeGroup" cx="35.7613782" cy="34.4829813" rx="10.7775781" ry="10.9270106"></ellipse>
                <text id="$" sketch:type="MSTextLayer" font-family="Avenir Next" font-size="13.3884298" font-weight="526" sketch:alignment="middle" fill="#FFFFFF">
                    <tspan x="31.6779072" y="39.4693635">$</tspan>
                </text>
                <path d="M56,7 L30,71" id="Line" stroke="#4D3E60" stroke-width="3.5" stroke-linecap="square" sketch:type="MSShapeGroup"></path>
                <path d="M62,0 L31,76" id="Line-3" stroke="#FFFFFF" stroke-width="2.8" stroke-linecap="square" sketch:type="MSShapeGroup"></path>
                <path d="M58.7889769,45.7030459 L58.7889769,41.9062205 L57.8251674,42.6509824 L57.1899293,41.7820935 L58.8911992,40.5335221 L60.0156436,40.5335221 L60.0156436,45.7030459 L58.7889769,45.7030459 Z M65.2912055,43.1036808 C65.2912055,43.468762 65.254698,43.8168008 65.1816817,44.1478078 C65.1086655,44.4788147 64.9918413,44.7696584 64.8312055,45.0203475 C64.6705698,45.2710365 64.4624767,45.4706113 64.2069198,45.6190776 C63.951363,45.767544 63.6410486,45.841776 63.2759674,45.841776 C62.9108862,45.841776 62.599355,45.767544 62.3413643,45.6190776 C62.0833736,45.4706113 61.8728466,45.2710365 61.709777,45.0203475 C61.5467074,44.7696584 61.4286662,44.4788147 61.35565,44.1478078 C61.2826337,43.8168008 61.2461262,43.468762 61.2461262,43.1036808 C61.2461262,42.7385996 61.2826337,42.3917777 61.35565,42.0632046 C61.4286662,41.7346315 61.5467074,41.4474386 61.709777,41.2016173 C61.8728466,40.955796 62.0833736,40.759872 62.3413643,40.6138395 C62.599355,40.467807 62.9108862,40.3947919 63.2759674,40.3947919 C63.6410486,40.3947919 63.951363,40.467807 64.2069198,40.6138395 C64.4624767,40.759872 64.6705698,40.955796 64.8312055,41.2016173 C64.9918413,41.4474386 65.1086655,41.7346315 65.1816817,42.0632046 C65.254698,42.3917777 65.2912055,42.7385996 65.2912055,43.1036808 L65.2912055,43.1036808 Z M64.0353325,43.1036808 C64.0353325,42.9430451 64.0255972,42.7653749 64.0061262,42.5706649 C63.9866552,42.375955 63.9501476,42.194634 63.8966024,42.0266967 C63.8430571,41.8587593 63.7663912,41.7175967 63.6666024,41.6032046 C63.5668135,41.4888125 63.4366032,41.4316173 63.2759674,41.4316173 C63.1153317,41.4316173 62.9839045,41.4888125 62.8816817,41.6032046 C62.779459,41.7175967 62.7003593,41.8587593 62.6443801,42.0266967 C62.588401,42.194634 62.5506765,42.375955 62.5312055,42.5706649 C62.5117345,42.7653749 62.5019992,42.9430451 62.5019992,43.1036808 C62.5019992,43.2691843 62.5117345,43.4505052 62.5312055,43.647649 C62.5506765,43.8447929 62.588401,44.0273307 62.6443801,44.1952681 C62.7003593,44.3632054 62.779459,44.5043681 62.8816817,44.6187602 C62.9839045,44.7331523 63.1153317,44.7903475 63.2759674,44.7903475 C63.4366032,44.7903475 63.5668135,44.7331523 63.6666024,44.6187602 C63.7663912,44.5043681 63.8430571,44.3632054 63.8966024,44.1952681 C63.9501476,44.0273307 63.9866552,43.8447929 64.0061262,43.647649 C64.0255972,43.4505052 64.0353325,43.2691843 64.0353325,43.1036808 L64.0353325,43.1036808 Z" id="10" fill="#4D3E60" sketch:type="MSShapeGroup" transform="translate(61.408504, 43.118284) scale(-1, -1) translate(-61.408504, -43.118284) "></path>
                <path d="M6.21752901,28.5051959 L6.21752901,24.7083705 L5.25371948,25.4531324 L4.61848139,24.5842436 L6.31975123,23.3356721 L7.44419568,23.3356721 L7.44419568,28.5051959 L6.21752901,28.5051959 Z M12.7197576,25.9058309 C12.7197576,26.270912 12.68325,26.6189509 12.6102338,26.9499578 C12.5372176,27.2809648 12.4203933,27.5718084 12.2597576,27.8224975 C12.0991219,28.0731866 11.8910287,28.2727613 11.6354719,28.4212277 C11.3799151,28.569694 11.0696007,28.6439261 10.7045195,28.6439261 C10.3394383,28.6439261 10.027907,28.569694 9.76991633,28.4212277 C9.51192562,28.2727613 9.30139863,28.0731866 9.13832903,27.8224975 C8.97525943,27.5718084 8.85721828,27.2809648 8.78420204,26.9499578 C8.7111858,26.6189509 8.67467823,26.270912 8.67467823,25.9058309 C8.67467823,25.5407497 8.7111858,25.1939277 8.78420204,24.8653547 C8.85721828,24.5367816 8.97525943,24.2495887 9.13832903,24.0037674 C9.30139863,23.757946 9.51192562,23.5620221 9.76991633,23.4159896 C10.027907,23.2699571 10.3394383,23.196942 10.7045195,23.196942 C11.0696007,23.196942 11.3799151,23.2699571 11.6354719,23.4159896 C11.8910287,23.5620221 12.0991219,23.757946 12.2597576,24.0037674 C12.4203933,24.2495887 12.5372176,24.5367816 12.6102338,24.8653547 C12.68325,25.1939277 12.7197576,25.5407497 12.7197576,25.9058309 L12.7197576,25.9058309 Z M11.4638846,25.9058309 C11.4638846,25.7451951 11.4541492,25.5675249 11.4346782,25.372815 C11.4152072,25.178105 11.3786997,24.9967841 11.3251544,24.8288467 C11.2716092,24.6609094 11.1949433,24.5197468 11.0951544,24.4053547 C10.9953656,24.2909626 10.8651552,24.2337674 10.7045195,24.2337674 C10.5438838,24.2337674 10.4124565,24.2909626 10.3102338,24.4053547 C10.2080111,24.5197468 10.1289113,24.6609094 10.0729322,24.8288467 C10.0169531,24.9967841 9.9792286,25.178105 9.9597576,25.372815 C9.9402866,25.5675249 9.93055125,25.7451951 9.93055125,25.9058309 C9.93055125,26.0713343 9.9402866,26.2526553 9.9597576,26.4497991 C9.9792286,26.6469429 10.0169531,26.8294808 10.0729322,26.9974182 C10.1289113,27.1653555 10.2080111,27.3065181 10.3102338,27.4209102 C10.4124565,27.5353023 10.5438838,27.5924975 10.7045195,27.5924975 C10.8651552,27.5924975 10.9953656,27.5353023 11.0951544,27.4209102 C11.1949433,27.3065181 11.2716092,27.1653555 11.3251544,26.9974182 C11.3786997,26.8294808 11.4152072,26.6469429 11.4346782,26.4497991 C11.4541492,26.2526553 11.4638846,26.0713343 11.4638846,25.9058309 L11.4638846,25.9058309 Z" id="10" fill="#4D3E60" sketch:type="MSShapeGroup"></path>
            </g>
        </g>
    </g>
</svg>