<?xml version="1.0" encoding="UTF-8" standalone="no"?>
<svg width="562px" height="562px" viewBox="0 0 562 562" version="1.1" xmlns="http://www.w3.org/2000/svg" xmlns:xlink="http://www.w3.org/1999/xlink" xmlns:sketch="http://www.bohemiancoding.com/sketch/ns">
    <!-- Generator: Sketch 3.3.2 (12043) - http://www.bohemiancoding.com/sketch -->
    <title>Artboard 1</title>
    <desc>Created with Sketch.</desc>
    <defs></defs>
    <g id="Page-1" stroke="none" stroke-width="1" fill="none" fill-rule="evenodd" sketch:type="MSPage">
        <g id="Artboard-1" sketch:type="MSArtboardGroup">
            <g id="Group" sketch:type="MSLayerGroup" transform="translate(294.000000, 108.000000)" stroke-width="8" stroke="#222222">
                <g sketch:type="MSShapeGroup">
                    <path d="M125.722772,7.67567568 L125.722772,283.36036" id="Line-Copy-2" stroke-linecap="square"></path>
                    <path d="M2.47029703,161.189189 L248.975248,161.189189" id="Line-Copy" stroke-linecap="square"></path>
                    <rect id="Rectangle-1-Copy" x="36.3168317" y="0" width="185.19802" height="116.414414"></rect>
                    <path d="M216.405941,56.2882883 L45.2574257,56.2882883" id="Line" stroke-linecap="square"></path>
                    <g id="Line-+-Line-Copy-3" transform="translate(136.049505, 164.306306)" stroke-linecap="square">
                        <path d="M0,-2.19060955e-16 C-3.50115069e-16,-1.73118567e-15 14.4785964,35.4837461 39.9387595,62.0999048 C69.8046642,93.3218438 111.358292,116.414414 111.358292,116.414414" id="Line"></path>
                        <path d="M108.768284,112.189993 C108.768284,112.189993 43.6182718,69.3014463 63.603131,83.3407389 C87.0462605,99.8094539 113.992662,109.712511 113.992662,109.712511" id="Line-Copy-3"></path>
                    </g>
                    <g id="Line-+-Line-Copy-4" transform="translate(57.475248, 222.873874) scale(-1, 1) translate(-57.475248, -222.873874) translate(0.000000, 166.585586)" stroke-linecap="square">
                        <path d="M0,-2.11839165e-16 C-3.50115069e-16,-1.67411362e-15 14.4785964,34.3139522 39.9387595,60.0526552 C69.8046642,90.2452995 111.358292,112.576577 111.358292,112.576577" id="Line"></path>
                        <path d="M108.768284,108.491421 C108.768284,108.491421 43.6182718,67.0167833 63.603131,80.593242 C87.0462605,96.5190324 113.992662,106.095615 113.992662,106.095615" id="Line-Copy-3"></path>
                    </g>
                </g>
            </g>
            <g id="Group-Copy" sketch:type="MSLayerGroup" transform="translate(10.500000, 107.302000)">
                <path d="M124.330078,5.03000003 L124.330078,284.056788" id="Line-Copy-2" stroke="#222222" stroke-width="5" stroke-linecap="square" sketch:type="MSShapeGroup"></path>
                <path d="M2.20605856,158.445 L249.713779,158.445" id="Line-Copy" stroke="#222222" stroke-width="5" stroke-linecap="square" sketch:type="MSShapeGroup"></path>
                <rect id="Rectangle-1-Copy" stroke="#222222" stroke-width="5" sketch:type="MSShapeGroup" x="36.1902793" y="0" width="185.951396" height="116.700532"></rect>
                <path d="M219.817006,57.9280781 L38.737,57.9280781" id="Line" stroke="#222222" stroke-width="5" stroke-linecap="square" sketch:type="MSShapeGroup"></path>
                <g id="Line-+-Line-Copy-4-+-Group" transform="translate(0.000000, 159.585351)" sketch:type="MSShapeGroup">
                    <g id="Line-+-Line-Copy-4" transform="translate(60.640955, 58.851000) scale(-1, 1) translate(-60.640955, -58.851000) translate(3.298955, 0.000000)" stroke="#222222" stroke-width="5" stroke-linecap="square">
                        <path d="M0,-2.19599351e-16 C-3.5153932e-16,-1.73544049e-15 14.5374946,35.5709561 40.1012285,62.2525306 C70.0886262,93.5512052 111.811292,116.700532 111.811292,116.700532" id="Line"></path>
                        <path d="M109.210748,112.465727 C109.210748,112.465727 43.7957088,69.4717717 63.8618655,83.5455693 C87.4003604,100.05476 114.456379,109.982157 114.456379,109.982157" id="Line-Copy-3"></path>
                    </g>
                    <g id="Group" transform="translate(0.000000, 109.005991)">
                        <path id="Path-13" stroke="#979797" d="M5.44500017,2.63699092 C5.44500017,2.84084234 5.44500017,3.04469376 5.44500017,3.24854517 L5.44500017,2.63699092 Z"></path>
                        <path d="M2.71817404,3.80802764 C2.92395405,4.16192296 3.12973405,4.51581828 3.33551406,4.8697136 L2.71817404,3.80802764 Z" id="Path-14" stroke="#979797"></path>
                        <path d="M1.23369571,1.34603996 C1.23369571,0.669186985 2.56484685,2.56484685 2.56484685,2.56484685 L6.41211712,2.56484685 L6.41211712,6.41211712 L2.74480958,6.7853771 C2.74480958,6.7853771 1.23369571,1.95161041 1.23369571,1.34603996 Z" id="Rectangle-3" fill="#222222"></path>
                        <path d="M3.06322647,6.06313282 L0.0110038417,0.307461281" id="Line" stroke="#222222" stroke-linecap="square"></path>
                    </g>
                </g>
                <g id="Line-+-Line-Copy-4-+-Group-Copy" transform="translate(189.436144, 218.436351) scale(-1, 1) translate(-189.436144, -218.436351) translate(130.082144, 159.585351)" sketch:type="MSShapeGroup">
                    <g id="Line-+-Line-Copy-4" transform="translate(60.640955, 58.851000) scale(-1, 1) translate(-60.640955, -58.851000) translate(3.298955, 0.000000)" stroke="#222222" stroke-width="5" stroke-linecap="square">
                        <path d="M0,-2.19599351e-16 C-3.5153932e-16,-1.73544049e-15 14.5374946,35.5709561 40.1012285,62.2525306 C70.0886262,93.5512052 111.811292,116.700532 111.811292,116.700532" id="Line"></path>
                        <path d="M109.210748,112.465727 C109.210748,112.465727 43.7957088,69.4717717 63.8618655,83.5455693 C87.4003604,100.05476 114.456379,109.982157 114.456379,109.982157" id="Line-Copy-3"></path>
                    </g>
                    <g id="Group" transform="translate(0.000000, 109.005991)">
                        <path id="Path-13" stroke="#979797" d="M5.44500017,2.63699092 C5.44500017,2.84084234 5.44500017,3.04469376 5.44500017,3.24854517 L5.44500017,2.63699092 Z"></path>
                        <path d="M2.71817404,3.80802764 L3.33551406,4.8697136 L2.71817404,3.80802764 Z" id="Path-14" stroke="#979797"></path>
                        <path d="M1.23369571,1.34603996 C1.23369571,0.669186985 2.56484685,2.56484685 2.56484685,2.56484685 L6.41211712,2.56484685 L6.41211712,6.41211712 L2.74480958,6.7853771 C2.74480958,6.7853771 1.23369571,1.95161041 1.23369571,1.34603996 Z" id="Rectangle-3" fill="#222222"></path>
                        <path d="M3.06322647,6.06313282 L0.0110038417,0.307461281" id="Line" stroke="#222222" stroke-linecap="square"></path>
                    </g>
                </g>
            </g>
        </g>
    </g>
</svg>