<svg xmlns="http://www.w3.org/2000/svg" width="562" height="562" viewBox="0 0 562 562" version="1.1"><title>Artboard 1</title><desc>Created with Sketch.</desc><g stroke="none" stroke-width="1" fill="none" fill-rule="evenodd"><g transform="translate(294.000000, 108.000000)" stroke-width="8" stroke="#222222"><path d="M125.72 7.68L125.72 283.36" stroke-linecap="square"/><path d="M2.47 161.19L248.98 161.19" stroke-linecap="square"/><rect x="36.32" y="0" width="185.2" height="116.41"/><path d="M216.41 56.29L45.26 56.29" stroke-linecap="square"/><g transform="translate(136.049505, 164.306306)" stroke-linecap="square"><path d="M0 0C0 0 14.48 35.48 39.94 62.1 69.8 93.32 111.36 116.41 111.36 116.41"/><path d="M108.77 112.19C108.77 112.19 43.62 69.3 63.6 83.34 87.05 99.81 113.99 109.71 113.99 109.71"/></g><g transform="translate(57.475248, 222.873874) scale(-1, 1) translate(-57.475248, -222.873874) translate(0.000000, 166.585586)" stroke-linecap="square"><path d="M0 0C0 0 14.48 34.31 39.94 60.05 69.8 90.25 111.36 112.58 111.36 112.58"/><path d="M108.77 108.49C108.77 108.49 43.62 67.02 63.6 80.59 87.05 96.52 113.99 106.1 113.99 106.1"/></g></g><g transform="translate(10.500000, 107.302000)"><path d="M124.33 5.03L124.33 284.06" stroke="#222222" stroke-width="5" stroke-linecap="square"/><path d="M2.21 158.45L249.71 158.45" stroke="#222222" stroke-width="5" stroke-linecap="square"/><rect stroke="#222222" stroke-width="5" x="36.19" y="0" width="185.95" height="116.7"/><path d="M219.82 57.93L38.74 57.93" stroke="#222222" stroke-width="5" stroke-linecap="square"/><g transform="translate(0.000000, 159.585351)"><g transform="translate(60.640955, 58.851000) scale(-1, 1) translate(-60.640955, -58.851000) translate(3.298955, 0.000000)" stroke="#222222" stroke-width="5" stroke-linecap="square"><path d="M0 0C0 0 14.54 35.57 40.1 62.25 70.09 93.55 111.81 116.7 111.81 116.7"/><path d="M109.21 112.47C109.21 112.47 43.8 69.47 63.86 83.55 87.4 100.05 114.46 109.98 114.46 109.98"/></g><g transform="translate(0.000000, 109.005991)"><path stroke="#979797" d="M5.45 2.64C5.45 2.84 5.45 3.04 5.45 3.25L5.45 2.64Z"/><path d="M2.72 3.81C2.92 4.16 3.13 4.52 3.34 4.87L2.72 3.81Z" stroke="#979797"/><path d="M1.23 1.35C1.23 0.67 2.56 2.56 2.56 2.56L6.41 2.56 6.41 6.41 2.74 6.79C2.74 6.79 1.23 1.95 1.23 1.35Z" fill="#222222"/><path d="M3.06 6.06L0.01 0.31" stroke="#222222" stroke-linecap="square"/></g></g><g transform="translate(189.436144, 218.436351) scale(-1, 1) translate(-189.436144, -218.436351) translate(130.082144, 159.585351)"><g transform="translate(60.640955, 58.851000) scale(-1, 1) translate(-60.640955, -58.851000) translate(3.298955, 0.000000)" stroke="#222222" stroke-width="5" stroke-linecap="square"><path d="M0 0C0 0 14.54 35.57 40.1 62.25 70.09 93.55 111.81 116.7 111.81 116.7"/><path d="M109.21 112.47C109.21 112.47 43.8 69.47 63.86 83.55 87.4 100.05 114.46 109.98 114.46 109.98"/></g><g transform="translate(0.000000, 109.005991)"><path stroke="#979797" d="M5.45 2.64C5.45 2.84 5.45 3.04 5.45 3.25L5.45 2.64Z"/><path d="M2.72 3.81L3.34 4.87 2.72 3.81Z" stroke="#979797"/><path d="M1.23 1.35C1.23 0.67 2.56 2.56 2.56 2.56L6.41 2.56 6.41 6.41 2.74 6.79C2.74 6.79 1.23 1.95 1.23 1.35Z" fill="#222222"/><path d="M3.06 6.06L0.01 0.31" stroke="#222222" stroke-linecap="square"/></g></g></g></g></svg>