<?xml version="1.0" encoding="UTF-8" standalone="no"?>
<svg width="14px" height="28px" viewBox="0 0 14 28" version="1.1" xmlns="http://www.w3.org/2000/svg" xmlns:xlink="http://www.w3.org/1999/xlink" xmlns:sketch="http://www.bohemiancoding.com/sketch/ns">
    <!-- Generator: Sketch 3.3.3 (12072) - http://www.bohemiancoding.com/sketch -->
    <title>Fill 3</title>
    <desc>Created with Sketch.</desc>
    <defs></defs>
    <g id="Page-1" stroke="none" stroke-width="1" fill="none" fill-rule="evenodd" sketch:type="MSPage">
        <g id="Artboard-3" sketch:type="MSArtboardGroup" transform="translate(-13.000000, -9.000000)" fill="#00CD70">
            <path d="M13.1414039,18.1576923 L16.0800689,18.1576923 L16.0800689,15.3761538 C16.0800689,14.1484615 16.1116589,12.2561538 17.0261911,11.0838462 C17.9904775,9.84307692 19.3133112,9 21.5893747,9 C25.2972576,9 26.8585961,9.51461538 26.8585961,9.51461538 L26.1233375,13.7569231 C26.1233375,13.7569231 24.8992229,13.4107692 23.7564526,13.4107692 C22.6128925,13.4107692 21.5893747,13.81 21.5893747,14.9230769 L21.5893747,18.1576923 L26.2765493,18.1576923 L25.9495922,22.3007692 L21.5893747,22.3007692 L21.5893747,36.6923077 L16.0800689,36.6923077 L16.0800689,22.3007692 L13.1414039,22.3007692 L13.1414039,18.1576923" id="Fill-3" sketch:type="MSShapeGroup"></path>
        </g>
    </g>
</svg>