<svg xmlns="http://www.w3.org/2000/svg" width="70" height="23" viewBox="0 0 70 23" version="1.1"><title>White</title><desc>Created with Sketch.</desc><g stroke="none" stroke-width="1" fill="none" fill-rule="evenodd"><g fill="#FFFFFF"><path d="M66.7 22.8L3.1 22.8C1.4 22.8 0 21.4 0 19.7L0 3.1C0 1.4 1.4 0 3.1 0L66.7 0C68.4 0 69.8 1.4 69.8 3.1L69.8 19.7C69.8 21.4 68.4 22.8 66.7 22.8Z"/></g><text font-family="Avenir Next" font-size="7" font-weight="420" fill="#0084FF"><tspan x="4" y="13.7">Free quote now</tspan></text><g transform="translate(57.000000, 7.000000)"><path d="M4.3 0C1.9 0 0 1.8 0 3.9 0 5.2 0.6 6.3 1.6 7L1.6 8.5 3 7.7C3.4 7.8 3.8 7.9 4.3 7.9 6.6 7.9 8.5 6.1 8.5 3.9 8.5 1.8 6.6 0 4.3 0L4.3 0ZM4.7 5.3L3.6 4.1 1.5 5.3 3.8 2.8 4.9 4 7 2.8 4.7 5.3 4.7 5.3Z" fill="#0084FF"/></g></g></svg>