<?xml version="1.0" encoding="UTF-8" standalone="no"?>
<svg width="289px" height="95px" viewBox="0 0 289 95" version="1.1" xmlns="http://www.w3.org/2000/svg" xmlns:xlink="http://www.w3.org/1999/xlink" xmlns:sketch="http://www.bohemiancoding.com/sketch/ns">
    <!-- Generator: Sketch 3.3.2 (12043) - http://www.bohemiancoding.com/sketch -->
    <title>playstore-button</title>
    <desc>Created with Sketch.</desc>
    <defs></defs>
    <g id="Page-1" stroke="none" stroke-width="1" fill="none" fill-rule="evenodd" sketch:type="MSPage">
        <g id="playstore-button" sketch:type="MSLayerGroup">
            <g id="Group" fill="#000000" sketch:type="MSShapeGroup">
                <path d="M288.1,81.5 C288.1,88.5 282.4,94.2 275.4,94.2 L12.7,94.2 C5.7,94.2 0,88.5 0,81.5 L0,12.7 C0,5.7 5.7,0 12.7,0 L275.3,0 C282.3,0 288,5.7 288,12.7 L288,81.5 L288.1,81.5 Z" id="Shape"></path>
            </g>
            <path d="M56.034,54.779 C54.8459941,55.3510029 53.5425071,55.7964984 52.1235,56.1155 C50.7044929,56.4345016 49.0710092,56.594 47.223,56.594 C45.3309905,56.594 43.6040078,56.291503 42.042,55.6865 C40.4799922,55.081497 39.1380056,54.2345054 38.016,53.1455 C36.8939944,52.0564946 36.0195031,50.7585075 35.3925,49.2515 C34.7654969,47.7444925 34.452,46.0780091 34.452,44.252 C34.452,42.3819906 34.7764968,40.6935075 35.4255,39.1865 C36.0745032,37.6794925 36.9654943,36.3980053 38.0985,35.342 C39.2315057,34.2859947 40.5679923,33.4720029 42.108,32.9 C43.6480077,32.3279971 45.319991,32.042 47.124,32.042 C48.9940093,32.042 50.7044922,32.3114973 52.2555,32.8505 C53.8065078,33.3895027 55.0549953,34.0989956 56.001,34.979 L53.13,38.081 C52.535997,37.4209967 51.7055053,36.8600023 50.6385,36.398 C49.5714947,35.9359977 48.4110063,35.705 47.157,35.705 C45.9249938,35.705 44.808505,35.9249978 43.8075,36.365 C42.806495,36.8050022 41.9540035,37.4099961 41.25,38.18 C40.5459965,38.9500039 40.0015019,39.8519948 39.6165,40.886 C39.2314981,41.9200052 39.039,43.0419939 39.039,44.252 C39.039,45.5060063 39.2314981,46.6554948 39.6165,47.7005 C40.0015019,48.7455052 40.5514964,49.6529961 41.2665,50.423 C41.9815036,51.1930038 42.8504949,51.7924979 43.8735,52.2215 C44.8965051,52.6505021 46.0569935,52.865 47.355,52.865 C49.1370089,52.865 50.6879934,52.5900027 52.008,52.04 L52.008,46.1 L47.091,46.1 L47.091,42.668 L56.034,42.668 L56.034,54.779 Z M72.639,46.496 C72.639,45.9899975 72.5675007,45.5060023 72.4245,45.044 C72.2814993,44.5819977 72.0560016,44.1750018 71.748,43.823 C71.4399985,43.4709982 71.0495024,43.190501 70.5765,42.9815 C70.1034977,42.772499 69.5480032,42.668 68.91,42.668 C67.7219941,42.668 66.7155041,43.0254964 65.8905,43.7405 C65.0654959,44.4555036 64.6090005,45.3739944 64.521,46.496 L72.639,46.496 Z M76.599,48.278 L76.599,48.806 C76.599,48.9820009 76.5880001,49.1579991 76.566,49.334 L64.521,49.334 C64.5650002,49.9060029 64.7134988,50.4284976 64.9665,50.9015 C65.2195013,51.3745024 65.5549979,51.7814983 65.973,52.1225 C66.3910021,52.4635017 66.8639974,52.732999 67.392,52.931 C67.9200027,53.129001 68.4699972,53.228 69.042,53.228 C70.032005,53.228 70.8679966,53.0465018 71.55,52.6835 C72.2320034,52.3204982 72.7929978,51.8200032 73.233,51.182 L75.873,53.294 C74.3109922,55.4060106 72.0450149,56.462 69.075,56.462 C67.8429939,56.462 66.7100052,56.2695019 65.676,55.8845 C64.6419949,55.4994981 63.7455038,54.9550035 62.9865,54.251 C62.2274962,53.5469965 61.6335022,52.6835051 61.2045,51.6605 C60.7754979,50.6374949 60.561,49.4770065 60.561,48.179 C60.561,46.9029936 60.7754979,45.7425052 61.2045,44.6975 C61.6335022,43.6524948 62.2219963,42.7615037 62.97,42.0245 C63.7180038,41.2874963 64.6034949,40.715502 65.6265,40.3085 C66.6495051,39.901498 67.7549941,39.698 68.943,39.698 C70.0430055,39.698 71.0604953,39.8794982 71.9955,40.2425 C72.9305047,40.6055018 73.7389966,41.1444964 74.421,41.8595 C75.1030034,42.5745036 75.6364981,43.4654947 76.0215,44.5325 C76.4065019,45.5995053 76.599,46.8479928 76.599,48.278 L76.599,48.278 Z M78.75,43.328 L78.75,40.16 L81.522,40.16 L81.522,35.573 L85.416,35.573 L85.416,40.16 L89.376,40.16 L89.376,43.328 L85.416,43.328 L85.416,50.687 C85.416,51.3910035 85.5424988,51.9739977 85.7955,52.436 C86.0485013,52.8980023 86.6149956,53.129 87.495,53.129 C87.7590014,53.129 88.0449985,53.1015003 88.353,53.0465 C88.6610016,52.9914997 88.9359988,52.9090006 89.178,52.799 L89.31,55.901 C88.9579983,56.0330007 88.5400025,56.1374996 88.056,56.2145 C87.5719976,56.2915004 87.1100022,56.33 86.67,56.33 C85.6139948,56.33 84.7560033,56.1815015 84.096,55.8845 C83.4359967,55.5874985 82.913502,55.1805026 82.5285,54.6635 C82.1434981,54.1464974 81.8795008,53.5525034 81.7365,52.8815 C81.5934993,52.2104966 81.522,51.4900039 81.522,50.72 L81.522,43.328 L78.75,43.328 Z M102.324,43.328 L99.3210001,43.328 L99.3210001,40.16 L102.324,40.16 L102.324,37.817 C102.324,36.8709953 102.428499,35.9635043 102.6375,35.0945 C102.846501,34.2254957 103.198498,33.4610033 103.6935,32.801 C104.188503,32.1409967 104.842996,31.6185019 105.657,31.2335 C106.471004,30.8484981 107.493994,30.656 108.726,30.656 C109.166002,30.656 109.534499,30.6724998 109.8315,30.7055 C110.128502,30.7385002 110.430999,30.7989996 110.739,30.887 L110.475,34.253 C110.254999,34.1869997 110.018501,34.1320002 109.7655,34.088 C109.512499,34.0439998 109.243002,34.022 108.957,34.022 C108.384997,34.022 107.923002,34.1319989 107.571,34.352 C107.218998,34.5720011 106.949501,34.8579982 106.7625,35.21 C106.575499,35.5620018 106.449,35.9469979 106.383,36.365 C106.317,36.7830021 106.284,37.189998 106.284,37.586 L106.284,40.16 L109.947,40.16 L109.947,43.328 L106.284,43.328 L106.284,56 L102.324,56 L102.324,43.328 Z M112.989,40.16 L116.784,40.16 L116.784,42.8 L116.85,42.8 C117.290002,41.8759954 117.905996,41.1280029 118.698,40.556 C119.490004,39.9839971 120.413995,39.698 121.47,39.698 C121.624001,39.698 121.788999,39.7034999 121.965,39.7145 C122.141001,39.7255001 122.294999,39.7529998 122.427,39.797 L122.427,43.427 C122.162999,43.3609997 121.937501,43.3170001 121.7505,43.295 C121.563499,43.2729999 121.382001,43.262 121.206,43.262 C120.303996,43.262 119.578003,43.4269983 119.028,43.757 C118.477997,44.0870016 118.049002,44.4829977 117.741,44.945 C117.432999,45.4070023 117.224001,45.8799976 117.114,46.364 C117.004,46.8480024 116.949,47.2329986 116.949,47.519 L116.949,56 L112.989,56 L112.989,40.16 Z M136.161,46.496 C136.161,45.9899975 136.089501,45.5060023 135.9465,45.044 C135.803499,44.5819977 135.578002,44.1750018 135.27,43.823 C134.961999,43.4709982 134.571503,43.190501 134.0985,42.9815 C133.625498,42.772499 133.070003,42.668 132.432,42.668 C131.243994,42.668 130.237504,43.0254964 129.4125,43.7405 C128.587496,44.4555036 128.131001,45.3739944 128.043,46.496 L136.161,46.496 Z M140.121,48.278 L140.121,48.806 C140.121,48.9820009 140.11,49.1579991 140.088,49.334 L128.043,49.334 C128.087,49.9060029 128.235499,50.4284976 128.4885,50.9015 C128.741501,51.3745024 129.076998,51.7814983 129.495,52.1225 C129.913002,52.4635017 130.385998,52.732999 130.914,52.931 C131.442003,53.129001 131.991997,53.228 132.564,53.228 C133.554005,53.228 134.389997,53.0465018 135.072,52.6835 C135.754004,52.3204982 136.314998,51.8200032 136.755,51.182 L139.395,53.294 C137.832992,55.4060106 135.567015,56.462 132.597,56.462 C131.364994,56.462 130.232005,56.2695019 129.198,55.8845 C128.163995,55.4994981 127.267504,54.9550035 126.5085,54.251 C125.749496,53.5469965 125.155502,52.6835051 124.7265,51.6605 C124.297498,50.6374949 124.083,49.4770065 124.083,48.179 C124.083,46.9029936 124.297498,45.7425052 124.7265,44.6975 C125.155502,43.6524948 125.743996,42.7615037 126.492,42.0245 C127.240004,41.2874963 128.125495,40.715502 129.1485,40.3085 C130.171505,39.901498 131.276994,39.698 132.465,39.698 C133.565006,39.698 134.582495,39.8794982 135.5175,40.2425 C136.452505,40.6055018 137.260997,41.1444964 137.943,41.8595 C138.625004,42.5745036 139.158498,43.4654947 139.5435,44.5325 C139.928502,45.5995053 140.121,46.8479928 140.121,48.278 L140.121,48.278 Z M155.703,46.496 C155.703,45.9899975 155.631501,45.5060023 155.4885,45.044 C155.345499,44.5819977 155.120002,44.1750018 154.812,43.823 C154.503999,43.4709982 154.113503,43.190501 153.6405,42.9815 C153.167498,42.772499 152.612003,42.668 151.974,42.668 C150.785994,42.668 149.779504,43.0254964 148.9545,43.7405 C148.129496,44.4555036 147.673001,45.3739944 147.585,46.496 L155.703,46.496 Z M159.663,48.278 L159.663,48.806 C159.663,48.9820009 159.652,49.1579991 159.63,49.334 L147.585,49.334 C147.629,49.9060029 147.777499,50.4284976 148.0305,50.9015 C148.283501,51.3745024 148.618998,51.7814983 149.037,52.1225 C149.455002,52.4635017 149.927998,52.732999 150.456,52.931 C150.984003,53.129001 151.533997,53.228 152.106,53.228 C153.096005,53.228 153.931997,53.0465018 154.614,52.6835 C155.296004,52.3204982 155.856998,51.8200032 156.297,51.182 L158.937,53.294 C157.374992,55.4060106 155.109015,56.462 152.139,56.462 C150.906994,56.462 149.774005,56.2695019 148.74,55.8845 C147.705995,55.4994981 146.809504,54.9550035 146.0505,54.251 C145.291496,53.5469965 144.697502,52.6835051 144.2685,51.6605 C143.839498,50.6374949 143.625,49.4770065 143.625,48.179 C143.625,46.9029936 143.839498,45.7425052 144.2685,44.6975 C144.697502,43.6524948 145.285996,42.7615037 146.034,42.0245 C146.782004,41.2874963 147.667495,40.715502 148.6905,40.3085 C149.713505,39.901498 150.818994,39.698 152.007,39.698 C153.107006,39.698 154.124495,39.8794982 155.0595,40.2425 C155.994505,40.6055018 156.802997,41.1444964 157.485,41.8595 C158.167004,42.5745036 158.700498,43.4654947 159.0855,44.5325 C159.470502,45.5995053 159.663,46.8479928 159.663,48.278 L159.663,48.278 Z M189.045,63.92 L185.085,63.92 L185.085,53.888 L185.019,53.888 C184.512998,54.680004 183.792505,55.3069977 182.8575,55.769 C181.922496,56.2310023 180.894006,56.462 179.772,56.462 C178.561994,56.462 177.478505,56.2365023 176.5215,55.7855 C175.564495,55.3344977 174.750504,54.7295038 174.0795,53.9705 C173.408497,53.2114962 172.891502,52.3205051 172.5285,51.2975 C172.165498,50.2744949 171.984,49.1800058 171.984,48.014 C171.984,46.8479942 172.170998,45.7590051 172.545,44.747 C172.919002,43.7349949 173.446997,42.8550037 174.129,42.107 C174.811004,41.3589963 175.624995,40.7705021 176.571,40.3415 C177.517005,39.9124979 178.550995,39.698 179.673,39.698 C180.399004,39.698 181.053497,39.7804992 181.6365,39.9455 C182.219503,40.1105008 182.741998,40.3194987 183.204,40.5725 C183.666003,40.8255013 184.056499,41.1114984 184.3755,41.4305 C184.694502,41.7495016 184.952999,42.0629985 185.151,42.371 L185.25,42.371 L185.25,40.16 L189.045,40.16 L189.045,63.92 Z M176.01,48.014 C176.01,48.6300031 176.103499,49.2459969 176.2905,49.862 C176.477501,50.4780031 176.757998,51.0279976 177.132,51.512 C177.506002,51.9960024 177.978997,52.3919985 178.551,52.7 C179.123003,53.0080015 179.793996,53.162 180.564,53.162 C181.290004,53.162 181.938997,53.0135015 182.511,52.7165 C183.083003,52.4194985 183.572498,52.0290024 183.9795,51.545 C184.386502,51.0609976 184.694499,50.516503 184.9035,49.9115 C185.112501,49.306497 185.217,48.6960031 185.217,48.08 C185.217,47.4639969 185.112501,46.8480031 184.9035,46.232 C184.694499,45.6159969 184.386502,45.0660024 183.9795,44.582 C183.572498,44.0979976 183.083003,43.7020015 182.511,43.394 C181.938997,43.0859985 181.290004,42.932 180.564,42.932 C179.793996,42.932 179.123003,43.0804985 178.551,43.3775 C177.978997,43.6745015 177.506002,44.0649976 177.132,44.549 C176.757998,45.0330024 176.477501,45.577497 176.2905,46.1825 C176.103499,46.787503 176.01,47.3979969 176.01,48.014 L176.01,48.014 Z M208.851,56 L205.089,56 L205.089,53.459 L205.023,53.459 C204.670998,54.251004 204.060505,54.949497 203.1915,55.5545 C202.322496,56.159503 201.294006,56.462 200.106,56.462 C199.071995,56.462 198.186504,56.2805018 197.4495,55.9175 C196.712497,55.5544982 196.107503,55.076003 195.6345,54.482 C195.161498,53.887997 194.815001,53.2060039 194.595,52.436 C194.374999,51.6659961 194.265,50.8740041 194.265,50.06 L194.265,40.16 L198.225,40.16 L198.225,48.938 C198.225,49.4000023 198.258,49.8839975 198.324,50.39 C198.390001,50.8960025 198.532999,51.352498 198.753,51.7595 C198.973001,52.166502 199.275498,52.5019987 199.6605,52.766 C200.045502,53.0300013 200.556997,53.162 201.195,53.162 C201.811003,53.162 202.355498,53.0355013 202.8285,52.7825 C203.301503,52.5294987 203.686499,52.205002 203.9835,51.809 C204.280502,51.412998 204.505999,50.9565026 204.66,50.4395 C204.814001,49.9224974 204.891,49.4000026 204.891,48.872 L204.891,40.16 L208.851,40.16 L208.851,56 Z M213.279,48.014 C213.279,46.7599937 213.504498,45.6215051 213.9555,44.5985 C214.406503,43.5754949 215.016996,42.7010036 215.787,41.975 C216.557004,41.2489964 217.469995,40.688002 218.526,40.292 C219.582006,39.895998 220.703994,39.698 221.892,39.698 C223.080006,39.698 224.201995,39.895998 225.258,40.292 C226.314006,40.688002 227.226996,41.2489964 227.997,41.975 C228.767004,42.7010036 229.377498,43.5754949 229.8285,44.5985 C230.279503,45.6215051 230.505,46.7599937 230.505,48.014 C230.505,49.2680063 230.279503,50.4119948 229.8285,51.446 C229.377498,52.4800052 228.767004,53.3654963 227.997,54.1025 C227.226996,54.8395037 226.314006,55.4169979 225.258,55.835 C224.201995,56.2530021 223.080006,56.462 221.892,56.462 C220.703994,56.462 219.582006,56.2530021 218.526,55.835 C217.469995,55.4169979 216.557004,54.8395037 215.787,54.1025 C215.016996,53.3654963 214.406503,52.4800052 213.9555,51.446 C213.504498,50.4119948 213.279,49.2680063 213.279,48.014 L213.279,48.014 Z M217.305,48.014 C217.305,48.6300031 217.398499,49.2459969 217.5855,49.862 C217.772501,50.4780031 218.052998,51.0279976 218.427,51.512 C218.801002,51.9960024 219.273997,52.3919985 219.846,52.7 C220.418003,53.0080015 221.099996,53.162 221.892,53.162 C222.684004,53.162 223.365997,53.0080015 223.938,52.7 C224.510003,52.3919985 224.982998,51.9960024 225.357,51.512 C225.731002,51.0279976 226.011499,50.4780031 226.1985,49.862 C226.385501,49.2459969 226.479,48.6300031 226.479,48.014 C226.479,47.3979969 226.385501,46.787503 226.1985,46.1825 C226.011499,45.577497 225.731002,45.0330024 225.357,44.549 C224.982998,44.0649976 224.510003,43.6745015 223.938,43.3775 C223.365997,43.0804985 222.684004,42.932 221.892,42.932 C221.099996,42.932 220.418003,43.0804985 219.846,43.3775 C219.273997,43.6745015 218.801002,44.0649976 218.427,44.549 C218.052998,45.0330024 217.772501,45.577497 217.5855,46.1825 C217.398499,46.787503 217.305,47.3979969 217.305,48.014 L217.305,48.014 Z M232.656,43.328 L232.656,40.16 L235.428,40.16 L235.428,35.573 L239.322,35.573 L239.322,40.16 L243.282,40.16 L243.282,43.328 L239.322,43.328 L239.322,50.687 C239.322,51.3910035 239.448499,51.9739977 239.7015,52.436 C239.954502,52.8980023 240.520996,53.129 241.401,53.129 C241.665002,53.129 241.950999,53.1015003 242.259,53.0465 C242.567002,52.9914997 242.841999,52.9090006 243.084,52.799 L243.216,55.901 C242.863999,56.0330007 242.446003,56.1374996 241.962,56.2145 C241.477998,56.2915004 241.016002,56.33 240.576,56.33 C239.519995,56.33 238.662004,56.1815015 238.002,55.8845 C237.341997,55.5874985 236.819502,55.1805026 236.4345,54.6635 C236.049498,54.1464974 235.785501,53.5525034 235.6425,52.8815 C235.4995,52.2104966 235.428,51.4900039 235.428,50.72 L235.428,43.328 L232.656,43.328 Z M257.907,46.496 C257.907,45.9899975 257.835501,45.5060023 257.6925,45.044 C257.5495,44.5819977 257.324002,44.1750018 257.016,43.823 C256.707999,43.4709982 256.317503,43.190501 255.8445,42.9815 C255.371498,42.772499 254.816003,42.668 254.178,42.668 C252.989994,42.668 251.983504,43.0254964 251.1585,43.7405 C250.333496,44.4555036 249.877001,45.3739944 249.789,46.496 L257.907,46.496 Z M261.867,48.278 L261.867,48.806 C261.867,48.9820009 261.856,49.1579991 261.834,49.334 L249.789,49.334 C249.833001,49.9060029 249.981499,50.4284976 250.2345,50.9015 C250.487502,51.3745024 250.822998,51.7814983 251.241,52.1225 C251.659002,52.4635017 252.131998,52.732999 252.66,52.931 C253.188003,53.129001 253.737997,53.228 254.31,53.228 C255.300005,53.228 256.135997,53.0465018 256.818,52.6835 C257.500004,52.3204982 258.060998,51.8200032 258.501,51.182 L261.141,53.294 C259.578992,55.4060106 257.313015,56.462 254.343,56.462 C253.110994,56.462 251.978005,56.2695019 250.944,55.8845 C249.909995,55.4994981 249.013504,54.9550035 248.2545,54.251 C247.495497,53.5469965 246.901502,52.6835051 246.4725,51.6605 C246.043498,50.6374949 245.829,49.4770065 245.829,48.179 C245.829,46.9029936 246.043498,45.7425052 246.4725,44.6975 C246.901502,43.6524948 247.489997,42.7615037 248.238,42.0245 C248.986004,41.2874963 249.871495,40.715502 250.8945,40.3085 C251.917505,39.901498 253.022994,39.698 254.211,39.698 C255.311006,39.698 256.328496,39.8794982 257.2635,40.2425 C258.198505,40.6055018 259.006997,41.1444964 259.689,41.8595 C260.371004,42.5745036 260.904498,43.4654947 261.2895,44.5325 C261.674502,45.5995053 261.867,46.8479928 261.867,48.278 L261.867,48.278 Z" id="Get-free-quote" fill="#FCFCFC" sketch:type="MSShapeGroup"></path>
        </g>
    </g>
</svg>