<svg xmlns="http://www.w3.org/2000/svg" width="70" height="23" viewBox="0 0 70 23" version="1.1"><title>free-quote</title><desc>Created with Sketch.</desc><g stroke="none" stroke-width="1" fill="none" fill-rule="evenodd"><g fill="#000000"><path d="M69.8 19.7C69.8 21.4 68.4 22.8 66.7 22.8L3.1 22.8C1.4 22.8 0 21.4 0 19.7L0 3.1C0 1.4 1.4 0 3.1 0L66.7 0C68.4 0 69.8 1.4 69.8 3.1L69.8 19.7 69.8 19.7 69.8 19.7Z"/></g><path d="M13.6 13.3C13.3 13.4 13 13.5 12.6 13.6 12.3 13.7 11.9 13.7 11.4 13.7 11 13.7 10.6 13.6 10.2 13.5 9.8 13.3 9.5 13.1 9.2 12.9 8.9 12.6 8.7 12.3 8.6 11.9 8.4 11.6 8.3 11.2 8.3 10.7 8.3 10.3 8.4 9.9 8.6 9.5 8.7 9.1 9 8.8 9.2 8.6 9.5 8.3 9.8 8.1 10.2 8 10.6 7.8 11 7.8 11.4 7.8 11.9 7.8 12.3 7.8 12.7 8 13 8.1 13.3 8.3 13.6 8.5L12.9 9.2C12.7 9.1 12.5 8.9 12.3 8.8 12 8.7 11.7 8.6 11.4 8.6 11.1 8.6 10.9 8.7 10.6 8.8 10.4 8.9 10.2 9.1 10 9.2 9.8 9.4 9.7 9.6 9.6 9.9 9.5 10.1 9.5 10.4 9.5 10.7 9.5 11 9.5 11.3 9.6 11.5 9.7 11.8 9.8 12 10 12.2 10.2 12.4 10.4 12.5 10.6 12.6 10.9 12.7 11.2 12.8 11.5 12.8 11.9 12.8 12.3 12.7 12.6 12.6L12.6 11.2 11.4 11.2 11.4 10.3 13.6 10.3 13.6 13.3 13.6 13.3ZM17.6 11.3C17.6 11.1 17.6 11 17.5 10.9 17.5 10.8 17.5 10.7 17.4 10.6 17.3 10.5 17.2 10.5 17.1 10.4 17 10.4 16.8 10.3 16.7 10.3 16.4 10.3 16.2 10.4 16 10.6 15.8 10.8 15.6 11 15.6 11.3L17.6 11.3 17.6 11.3ZM18.6 11.7L18.6 11.8C18.6 11.9 18.6 11.9 18.5 11.9L15.6 11.9C15.6 12.1 15.7 12.2 15.7 12.3 15.8 12.4 15.9 12.5 16 12.6 16.1 12.7 16.2 12.8 16.3 12.8 16.5 12.9 16.6 12.9 16.7 12.9 17 12.9 17.2 12.8 17.3 12.8 17.5 12.7 17.6 12.5 17.7 12.4L18.4 12.9C18 13.4 17.5 13.7 16.7 13.7 16.4 13.7 16.2 13.6 15.9 13.5 15.7 13.4 15.4 13.3 15.3 13.1 15.1 13 14.9 12.8 14.8 12.5 14.7 12.3 14.7 12 14.7 11.7 14.7 11.4 14.7 11.1 14.8 10.8 14.9 10.6 15.1 10.4 15.3 10.2 15.4 10 15.6 9.9 15.9 9.8 16.1 9.7 16.4 9.6 16.7 9.6 17 9.6 17.2 9.7 17.4 9.7 17.7 9.8 17.9 10 18 10.1 18.2 10.3 18.3 10.5 18.4 10.8 18.5 11 18.6 11.3 18.6 11.7L18.6 11.7 18.6 11.7ZM19.1 10.5L19.1 9.7 19.7 9.7 19.7 8.6 20.7 8.6 20.7 9.7 21.6 9.7 21.6 10.5 20.7 10.5 20.7 12.3C20.7 12.4 20.7 12.6 20.8 12.7 20.8 12.8 21 12.9 21.2 12.9 21.3 12.9 21.3 12.9 21.4 12.8 21.5 12.8 21.5 12.8 21.6 12.8L21.6 13.5C21.5 13.6 21.4 13.6 21.3 13.6 21.2 13.6 21.1 13.6 21 13.6 20.7 13.6 20.5 13.6 20.4 13.5 20.2 13.5 20.1 13.4 20 13.2 19.9 13.1 19.8 13 19.8 12.8 19.8 12.6 19.7 12.5 19.7 12.3L19.7 10.5 19.1 10.5 19.1 10.5ZM24.8 10.5L24.1 10.5 24.1 9.7 24.8 9.7 24.8 9.2C24.8 8.9 24.8 8.7 24.9 8.5 24.9 8.3 25 8.1 25.1 7.9 25.2 7.8 25.4 7.7 25.6 7.6 25.8 7.5 26 7.4 26.3 7.4 26.4 7.4 26.5 7.4 26.6 7.4 26.7 7.4 26.7 7.5 26.8 7.5L26.8 8.3C26.7 8.3 26.6 8.3 26.6 8.3 26.5 8.2 26.5 8.2 26.4 8.2 26.3 8.2 26.1 8.3 26.1 8.3 26 8.4 25.9 8.4 25.9 8.5 25.8 8.6 25.8 8.7 25.8 8.8 25.8 8.9 25.7 9 25.7 9.1L25.7 9.7 26.6 9.7 26.6 10.5 25.7 10.5 25.7 13.6 24.8 13.6 24.8 10.5 24.8 10.5ZM27.4 9.7L28.3 9.7 28.3 10.4 28.3 10.4C28.4 10.1 28.6 10 28.8 9.8 28.9 9.7 29.2 9.6 29.4 9.6 29.5 9.6 29.5 9.6 29.5 9.6 29.6 9.6 29.6 9.6 29.7 9.6L29.7 10.5C29.6 10.5 29.5 10.5 29.5 10.5 29.4 10.5 29.4 10.5 29.4 10.5 29.1 10.5 29 10.5 28.8 10.6 28.7 10.7 28.6 10.8 28.5 10.9 28.4 11 28.4 11.1 28.4 11.2 28.3 11.3 28.3 11.4 28.3 11.5L28.3 13.6 27.4 13.6 27.4 9.7 27.4 9.7ZM33 11.3C33 11.1 33 11 32.9 10.9 32.9 10.8 32.8 10.7 32.8 10.6 32.7 10.5 32.6 10.5 32.5 10.4 32.4 10.4 32.2 10.3 32.1 10.3 31.8 10.3 31.5 10.4 31.3 10.6 31.1 10.8 31 11 31 11.3L33 11.3 33 11.3ZM33.9 11.7L33.9 11.8C33.9 11.9 33.9 11.9 33.9 11.9L31 11.9C31 12.1 31.1 12.2 31.1 12.3 31.2 12.4 31.3 12.5 31.4 12.6 31.5 12.7 31.6 12.8 31.7 12.8 31.8 12.9 32 12.9 32.1 12.9 32.3 12.9 32.6 12.8 32.7 12.8 32.9 12.7 33 12.5 33.1 12.4L33.8 12.9C33.4 13.4 32.8 13.7 32.1 13.7 31.8 13.7 31.5 13.6 31.3 13.5 31 13.4 30.8 13.3 30.6 13.1 30.5 13 30.3 12.8 30.2 12.5 30.1 12.3 30.1 12 30.1 11.7 30.1 11.4 30.1 11.1 30.2 10.8 30.3 10.6 30.5 10.4 30.6 10.2 30.8 10 31 9.9 31.3 9.8 31.5 9.7 31.8 9.6 32.1 9.6 32.4 9.6 32.6 9.7 32.8 9.7 33.1 9.8 33.2 10 33.4 10.1 33.6 10.3 33.7 10.5 33.8 10.8 33.9 11 33.9 11.3 33.9 11.7L33.9 11.7 33.9 11.7ZM37.7 11.3C37.7 11.1 37.7 11 37.7 10.9 37.6 10.8 37.6 10.7 37.5 10.6 37.4 10.5 37.3 10.5 37.2 10.4 37.1 10.4 37 10.3 36.8 10.3 36.5 10.3 36.3 10.4 36.1 10.6 35.9 10.8 35.8 11 35.7 11.3L37.7 11.3 37.7 11.3ZM38.7 11.7L38.7 11.8C38.7 11.9 38.7 11.9 38.7 11.9L35.7 11.9C35.8 12.1 35.8 12.2 35.9 12.3 35.9 12.4 36 12.5 36.1 12.6 36.2 12.7 36.3 12.8 36.4 12.8 36.6 12.9 36.7 12.9 36.8 12.9 37.1 12.9 37.3 12.8 37.4 12.8 37.6 12.7 37.8 12.5 37.9 12.4L38.5 12.9C38.1 13.4 37.6 13.7 36.9 13.7 36.6 13.7 36.3 13.6 36 13.5 35.8 13.4 35.6 13.3 35.4 13.1 35.2 13 35 12.8 34.9 12.5 34.8 12.3 34.8 12 34.8 11.7 34.8 11.4 34.8 11.1 34.9 10.8 35 10.6 35.2 10.4 35.4 10.2 35.6 10 35.8 9.9 36 9.8 36.3 9.7 36.5 9.6 36.8 9.6 37.1 9.6 37.3 9.7 37.6 9.7 37.8 9.8 38 10 38.1 10.1 38.3 10.3 38.4 10.5 38.5 10.8 38.6 11 38.7 11.3 38.7 11.7L38.7 11.7 38.7 11.7ZM45.8 15.5L44.8 15.5 44.8 13 44.8 13C44.7 13.2 44.5 13.4 44.3 13.5 44.1 13.6 43.8 13.7 43.5 13.7 43.3 13.7 43 13.6 42.8 13.5 42.5 13.4 42.3 13.3 42.2 13.1 42 12.9 41.9 12.7 41.8 12.4 41.7 12.2 41.7 11.9 41.7 11.6 41.7 11.3 41.7 11.1 41.8 10.8 41.9 10.6 42 10.4 42.2 10.2 42.3 10 42.5 9.9 42.8 9.8 43 9.7 43.2 9.6 43.5 9.6 43.7 9.6 43.9 9.6 44 9.7 44.1 9.7 44.3 9.8 44.4 9.8 44.5 9.9 44.6 10 44.7 10 44.7 10.1 44.8 10.2 44.8 10.3L44.9 10.3 44.9 9.7 45.8 9.7 45.8 15.5 45.8 15.5ZM42.6 11.6C42.6 11.8 42.7 11.9 42.7 12.1 42.7 12.2 42.8 12.4 42.9 12.5 43 12.6 43.1 12.7 43.2 12.8 43.4 12.8 43.5 12.9 43.7 12.9 43.9 12.9 44.1 12.8 44.2 12.8 44.3 12.7 44.5 12.6 44.6 12.5 44.7 12.4 44.7 12.2 44.8 12.1 44.8 11.9 44.9 11.8 44.9 11.6 44.9 11.5 44.8 11.3 44.8 11.2 44.7 11 44.7 10.9 44.6 10.8 44.5 10.7 44.3 10.6 44.2 10.5 44.1 10.4 43.9 10.4 43.7 10.4 43.5 10.4 43.4 10.4 43.2 10.5 43.1 10.6 43 10.7 42.9 10.8 42.8 10.9 42.7 11 42.7 11.2 42.7 11.3 42.6 11.5 42.6 11.6L42.6 11.6 42.6 11.6ZM50.6 13.6L49.7 13.6 49.7 12.9 49.7 12.9C49.6 13.1 49.4 13.3 49.2 13.5 49 13.6 48.8 13.7 48.5 13.7 48.2 13.7 48 13.6 47.8 13.5 47.6 13.5 47.5 13.3 47.4 13.2 47.3 13 47.2 12.9 47.1 12.7 47.1 12.5 47.1 12.3 47.1 12.1L47.1 9.7 48 9.7 48 11.8C48 12 48 12.1 48 12.2 48.1 12.3 48.1 12.4 48.1 12.5 48.2 12.6 48.3 12.7 48.4 12.8 48.5 12.8 48.6 12.9 48.7 12.9 48.9 12.9 49 12.8 49.1 12.8 49.2 12.7 49.3 12.6 49.4 12.5 49.5 12.4 49.5 12.3 49.6 12.2 49.6 12.1 49.6 12 49.6 11.8L49.6 9.7 50.6 9.7 50.6 13.6 50.6 13.6ZM51.7 11.6C51.7 11.3 51.7 11 51.8 10.8 51.9 10.5 52.1 10.3 52.3 10.2 52.5 10 52.7 9.9 52.9 9.8 53.2 9.7 53.5 9.6 53.7 9.6 54 9.6 54.3 9.7 54.6 9.8 54.8 9.9 55 10 55.2 10.2 55.4 10.3 55.6 10.5 55.7 10.8 55.8 11 55.8 11.3 55.8 11.6 55.8 11.9 55.8 12.2 55.7 12.5 55.6 12.7 55.4 12.9 55.2 13.1 55 13.3 54.8 13.4 54.6 13.5 54.3 13.6 54 13.7 53.7 13.7 53.5 13.7 53.2 13.6 52.9 13.5 52.7 13.4 52.5 13.3 52.3 13.1 52.1 12.9 51.9 12.7 51.8 12.5 51.7 12.2 51.7 11.9 51.7 11.6L51.7 11.6 51.7 11.6ZM52.6 11.6C52.6 11.8 52.7 11.9 52.7 12.1 52.7 12.2 52.8 12.4 52.9 12.5 53 12.6 53.1 12.7 53.2 12.8 53.4 12.8 53.6 12.9 53.7 12.9 53.9 12.9 54.1 12.8 54.2 12.8 54.4 12.7 54.5 12.6 54.6 12.5 54.7 12.4 54.7 12.2 54.8 12.1 54.8 11.9 54.9 11.8 54.9 11.6 54.9 11.5 54.8 11.3 54.8 11.2 54.7 11 54.7 10.9 54.6 10.8 54.5 10.7 54.4 10.6 54.2 10.5 54.1 10.4 53.9 10.4 53.7 10.4 53.6 10.4 53.4 10.4 53.2 10.5 53.1 10.6 53 10.7 52.9 10.8 52.8 10.9 52.7 11 52.7 11.2 52.7 11.3 52.6 11.5 52.6 11.6L52.6 11.6 52.6 11.6ZM56.4 10.5L56.4 9.7 57 9.7 57 8.6 58 8.6 58 9.7 58.9 9.7 58.9 10.5 58 10.5 58 12.3C58 12.4 58 12.6 58.1 12.7 58.1 12.8 58.3 12.9 58.5 12.9 58.5 12.9 58.6 12.9 58.7 12.8 58.8 12.8 58.8 12.8 58.9 12.8L58.9 13.5C58.8 13.6 58.7 13.6 58.6 13.6 58.5 13.6 58.4 13.6 58.3 13.6 58 13.6 57.8 13.6 57.6 13.5 57.5 13.5 57.4 13.4 57.3 13.2 57.2 13.1 57.1 13 57.1 12.8 57 12.6 57 12.5 57 12.3L57 10.5 56.4 10.5 56.4 10.5ZM62.5 11.3C62.5 11.1 62.5 11 62.4 10.9 62.4 10.8 62.3 10.7 62.3 10.6 62.2 10.5 62.1 10.5 62 10.4 61.9 10.4 61.7 10.3 61.6 10.3 61.3 10.3 61 10.4 60.8 10.6 60.6 10.8 60.5 11 60.5 11.3L62.5 11.3 62.5 11.3ZM63.4 11.7L63.4 11.8C63.4 11.9 63.4 11.9 63.4 11.9L60.5 11.9C60.5 12.1 60.5 12.2 60.6 12.3 60.7 12.4 60.8 12.5 60.9 12.6 61 12.7 61.1 12.8 61.2 12.8 61.3 12.9 61.5 12.9 61.6 12.9 61.8 12.9 62 12.8 62.2 12.8 62.4 12.7 62.5 12.5 62.6 12.4L63.3 12.9C62.9 13.4 62.3 13.7 61.6 13.7 61.3 13.7 61 13.6 60.8 13.5 60.5 13.4 60.3 13.3 60.1 13.1 59.9 13 59.8 12.8 59.7 12.5 59.6 12.3 59.5 12 59.5 11.7 59.5 11.4 59.6 11.1 59.7 10.8 59.8 10.6 59.9 10.4 60.1 10.2 60.3 10 60.5 9.9 60.8 9.8 61 9.7 61.3 9.6 61.6 9.6 61.8 9.6 62.1 9.7 62.3 9.7 62.5 9.8 62.7 10 62.9 10.1 63.1 10.3 63.2 10.5 63.3 10.8 63.4 11 63.4 11.3 63.4 11.7L63.4 11.7 63.4 11.7Z" fill="#FCFCFC"/></g></svg>