<?xml version="1.0" encoding="UTF-8" standalone="no"?>
<svg width="176px" height="166px" viewBox="0 0 176 166" version="1.1" xmlns="http://www.w3.org/2000/svg" xmlns:xlink="http://www.w3.org/1999/xlink" xmlns:sketch="http://www.bohemiancoding.com/sketch/ns">
    <!-- Generator: Sketch 3.3.2 (12043) - http://www.bohemiancoding.com/sketch -->
    <title>newLogo Copy 16</title>
    <desc>Created with Sketch.</desc>
    <defs>
        <linearGradient x1="50%" y1="0%" x2="50%" y2="100%" id="linearGradient-1">
            <stop stop-color="#00CE6E" offset="0%"></stop>
            <stop stop-color="#00BA81" offset="100%"></stop>
        </linearGradient>
        <linearGradient x1="50%" y1="2.01490753%" x2="50%" y2="100%" id="linearGradient-2">
            <stop stop-color="#00CE40" offset="0%"></stop>
            <stop stop-color="#00CE6F" offset="100%"></stop>
        </linearGradient>
    </defs>
    <g id="Page-1" stroke="none" stroke-width="1" fill="none" fill-rule="evenodd" sketch:type="MSPage">
        <g id="logotype" sketch:type="MSLayerGroup">
            <g id="newLogo-Copy-16" sketch:type="MSShapeGroup">
                <path d="M155.901991,78.8089172 L156.589258,78.8089172 L155.901991,78.8089172 Z M0.26993865,78.8089172 C0.26993865,126.814598 34.9555103,165.730892 77.7423313,165.730892 C108.118368,165.730892 134.411265,146.116554 147.108651,117.56051 L156.589258,117.56051 C167.294215,117.56051 175.959632,108.88567 175.959632,98.1847134 C175.959632,87.4814038 167.287221,78.8089172 156.589258,78.8089172 Z M154.292119,92.2643312 L156.637391,92.2643312 C160.055912,92.2643312 162.827172,95.0424162 162.827172,98.4538217 C162.827172,101.872183 160.061956,104.643312 156.637391,104.643312 L151.735471,104.643312 C152.846381,100.633649 153.705513,96.499563 154.292119,92.2643312 L154.292119,92.2643312 Z" id="Rectangle-2" fill="url(#linearGradient-1)"></path>
                <path d="M84.9970726,5.97333333 C84.892942,2.657614 82.0239607,0 78.5,0 C74.9760393,0 72.107058,2.657614 72.0029274,5.97333333 L72,5.97333333 L72,21.6533333 L72.0029274,21.6533333 C72.0009804,21.7153298 72,21.7775564 72,21.84 C72,25.2420741 74.9101491,28 78.5,28 C82.0898509,28 85,25.2420741 85,21.84 C85,21.7775564 84.9990196,21.7153298 84.9970726,21.6533333 L85,21.6533333 L85,5.97333333 L84.9970726,5.97333333 Z" id="Oval-42" fill="url(#linearGradient-2)"></path>
                <path d="M130.997073,26.9733333 C130.892942,23.657614 128.023961,21 124.5,21 C120.976039,21 118.107058,23.657614 118.002927,26.9733333 L118,26.9733333 L118,42.6533333 L118.002927,42.6533333 C118.00098,42.7153298 118,42.7775564 118,42.84 C118,46.2420741 120.910149,49 124.5,49 C128.089851,49 131,46.2420741 131,42.84 C131,42.7775564 130.99902,42.7153298 130.997073,42.6533333 L131,42.6533333 L131,26.9733333 L130.997073,26.9733333 Z" id="Oval-42-Copy-2" fill="url(#linearGradient-2)" transform="translate(124.500000, 35.000000) rotate(40.000000) translate(-124.500000, -35.000000) "></path>
                <path d="M38.9970726,26.9733333 C38.892942,23.657614 36.0239607,21 32.5,21 C28.9760393,21 26.107058,23.657614 26.0029274,26.9733333 L26,26.9733333 L26,42.6533333 L26.0029274,42.6533333 C26.0009804,42.7153298 26,42.7775564 26,42.84 C26,46.2420741 28.9101491,49 32.5,49 C36.0898509,49 39,46.2420741 39,42.84 C39,42.7775564 38.9990196,42.7153298 38.9970726,42.6533333 L39,42.6533333 L39,26.9733333 L38.9970726,26.9733333 Z" id="Oval-42-Copy-3" fill="url(#linearGradient-2)" transform="translate(32.500000, 35.000000) rotate(-40.000000) translate(-32.500000, -35.000000) "></path>
                <circle id="Oval-8" fill="#008B5D" cx="107" cy="124" r="6"></circle>
                <circle id="Oval-8-Copy" fill="#008B5D" cx="50" cy="124" r="6"></circle>
                <path d="M108.999994,140.000008 C102.812119,148.967024 91.2465201,155 77.9999971,155 C64.7534742,155 53.1878753,148.967024 47,140.000008 L109,140 Z" id="Oval-9" fill="#008B5D"></path>
            </g>
        </g>
    </g>
</svg>