<?xml version="1.0" encoding="UTF-8" standalone="no"?>
<svg width="514px" height="179px" viewBox="0 0 514 179" version="1.1" xmlns="http://www.w3.org/2000/svg" xmlns:xlink="http://www.w3.org/1999/xlink" xmlns:sketch="http://www.bohemiancoding.com/sketch/ns">
    <!-- Generator: Sketch 3.3.2 (12043) - http://www.bohemiancoding.com/sketch -->
    <title>logotype</title>
    <desc>Created with Sketch.</desc>
    <defs>
        <linearGradient x1="50%" y1="0%" x2="50%" y2="100%" id="linearGradient-1">
            <stop stop-color="#00CE6E" offset="0%"></stop>
            <stop stop-color="#00BA81" offset="100%"></stop>
        </linearGradient>
        <linearGradient x1="50%" y1="2.01490753%" x2="50%" y2="100%" id="linearGradient-2">
            <stop stop-color="#00CE40" offset="0%"></stop>
            <stop stop-color="#00CE6F" offset="100%"></stop>
        </linearGradient>
        <linearGradient x1="64.4500494%" y1="-22.5771361%" x2="64.4500494%" y2="81.8367616%" id="linearGradient-3">
            <stop stop-color="#00CD6E" offset="0%"></stop>
            <stop stop-color="#00BB81" offset="100%"></stop>
        </linearGradient>
    </defs>
    <g id="Page-1" stroke="none" stroke-width="1" fill="none" fill-rule="evenodd" sketch:type="MSPage">
        <g id="logotype" sketch:type="MSLayerGroup">
            <g id="newLogo-Copy-16" sketch:type="MSShapeGroup">
                <path d="M155.901991,78.8089172 L156.589258,78.8089172 L155.901991,78.8089172 Z M0.26993865,78.8089172 C0.26993865,126.814598 34.9555103,165.730892 77.7423313,165.730892 C108.118368,165.730892 134.411265,146.116554 147.108651,117.56051 L156.589258,117.56051 C167.294215,117.56051 175.959632,108.88567 175.959632,98.1847134 C175.959632,87.4814038 167.287221,78.8089172 156.589258,78.8089172 Z M154.292119,92.2643312 L156.637391,92.2643312 C160.055912,92.2643312 162.827172,95.0424162 162.827172,98.4538217 C162.827172,101.872183 160.061956,104.643312 156.637391,104.643312 L151.735471,104.643312 C152.846381,100.633649 153.705513,96.499563 154.292119,92.2643312 L154.292119,92.2643312 Z" id="Rectangle-2" fill="url(#linearGradient-1)"></path>
                <path d="M84.9970726,5.97333333 C84.892942,2.657614 82.0239607,0 78.5,0 C74.9760393,0 72.107058,2.657614 72.0029274,5.97333333 L72,5.97333333 L72,21.6533333 L72.0029274,21.6533333 C72.0009804,21.7153298 72,21.7775564 72,21.84 C72,25.2420741 74.9101491,28 78.5,28 C82.0898509,28 85,25.2420741 85,21.84 C85,21.7775564 84.9990196,21.7153298 84.9970726,21.6533333 L85,21.6533333 L85,5.97333333 L84.9970726,5.97333333 Z" id="Oval-42" fill="url(#linearGradient-2)"></path>
                <path d="M130.997073,26.9733333 C130.892942,23.657614 128.023961,21 124.5,21 C120.976039,21 118.107058,23.657614 118.002927,26.9733333 L118,26.9733333 L118,42.6533333 L118.002927,42.6533333 C118.00098,42.7153298 118,42.7775564 118,42.84 C118,46.2420741 120.910149,49 124.5,49 C128.089851,49 131,46.2420741 131,42.84 C131,42.7775564 130.99902,42.7153298 130.997073,42.6533333 L131,42.6533333 L131,26.9733333 L130.997073,26.9733333 Z" id="Oval-42-Copy-2" fill="url(#linearGradient-2)" transform="translate(124.500000, 35.000000) rotate(40.000000) translate(-124.500000, -35.000000) "></path>
                <path d="M38.9970726,26.9733333 C38.892942,23.657614 36.0239607,21 32.5,21 C28.9760393,21 26.107058,23.657614 26.0029274,26.9733333 L26,26.9733333 L26,42.6533333 L26.0029274,42.6533333 C26.0009804,42.7153298 26,42.7775564 26,42.84 C26,46.2420741 28.9101491,49 32.5,49 C36.0898509,49 39,46.2420741 39,42.84 C39,42.7775564 38.9990196,42.7153298 38.9970726,42.6533333 L39,42.6533333 L39,26.9733333 L38.9970726,26.9733333 Z" id="Oval-42-Copy-3" fill="url(#linearGradient-2)" transform="translate(32.500000, 35.000000) rotate(-40.000000) translate(-32.500000, -35.000000) "></path>
                <circle id="Oval-8" fill="#008B5D" cx="107" cy="124" r="6"></circle>
                <circle id="Oval-8-Copy" fill="#008B5D" cx="50" cy="124" r="6"></circle>
                <path d="M108.999994,140.000008 C102.812119,148.967024 91.2465201,155 77.9999971,155 C64.7534742,155 53.1878753,148.967024 47,140.000008 L109,140 Z" id="Oval-9" fill="#008B5D"></path>
            </g>
            <path d="M280,130.8 C280,133.600014 279.683336,136.533318 279.05,139.6 C278.416663,142.666682 277.250008,145.48332 275.55,148.05 C273.849991,150.616679 271.483348,152.733325 268.45,154.4 C265.416651,156.066675 261.500024,156.9 256.7,156.9 C250.69997,156.9 245.70002,155.350015 241.7,152.25 C237.69998,149.149984 235.03334,145.166691 233.7,140.3 L248.8,135.2 C249.266669,137.066676 250.11666,138.566661 251.35,139.7 C252.583339,140.833339 254.099991,141.4 255.9,141.4 C258.700014,141.4 260.549995,140.433343 261.45,138.5 C262.350004,136.566657 262.8,134.033349 262.8,130.9 L262.8,84.2 L280,84.2 L280,130.8 Z M322.1,133.3 L320,133.3 C318.199991,133.3 316.383342,133.383332 314.55,133.55 C312.716657,133.716667 311.08334,134.033331 309.65,134.5 C308.216659,134.966669 307.033338,135.649995 306.1,136.55 C305.166662,137.450004 304.7,138.633326 304.7,140.1 C304.7,141.033338 304.916664,141.83333 305.35,142.5 C305.783335,143.16667 306.33333,143.699998 307,144.1 C307.66667,144.500002 308.433329,144.783332 309.3,144.95 C310.166671,145.116667 310.999996,145.2 311.8,145.2 C315.13335,145.2 317.683324,144.283342 319.45,142.45 C321.216675,140.616657 322.1,138.133349 322.1,135 L322.1,133.3 Z M292,112 C294.933348,109.199986 298.34998,107.100007 302.25,105.7 C306.150019,104.299993 310.133313,103.6 314.2,103.6 C318.400021,103.6 321.949985,104.116661 324.85,105.15 C327.750014,106.183338 330.099991,107.783322 331.9,109.95 C333.700009,112.116677 335.016662,114.849983 335.85,118.15 C336.683337,121.450016 337.1,125.366644 337.1,129.9 L337.1,155 L322.1,155 L322.1,149.7 L321.8,149.7 C320.533327,151.766677 318.616679,153.366661 316.05,154.5 C313.48332,155.633339 310.700015,156.2 307.7,156.2 C305.69999,156.2 303.633344,155.933336 301.5,155.4 C299.366656,154.866664 297.416675,154.000006 295.65,152.8 C293.883324,151.599994 292.433339,150.00001 291.3,148 C290.166661,145.99999 289.6,143.533348 289.6,140.6 C289.6,136.999982 290.583323,134.100011 292.55,131.9 C294.516676,129.699989 297.049984,128.000006 300.15,126.8 C303.250015,125.599994 306.699981,124.800002 310.5,124.4 C314.300019,123.999998 317.999982,123.8 321.6,123.8 L321.6,123 C321.6,120.533321 320.733342,118.716672 319,117.55 C317.266658,116.383327 315.133346,115.8 312.6,115.8 C310.266655,115.8 308.016677,116.299995 305.85,117.3 C303.683322,118.300005 301.833341,119.499993 300.3,120.9 L292,112 Z M380.1,155 L362.4,155 L342.8,105.2 L360.9,105.2 L371.4,137.5 L371.7,137.5 L382.2,105.2 L399.7,105.2 L380.1,155 Z M436.8,155 L419.1,155 L399.5,105.2 L417.6,105.2 L428.1,137.5 L428.4,137.5 L438.9,105.2 L456.4,105.2 L436.8,155 Z M490.8,162.5 C489.799995,165.100013 488.683339,167.416656 487.45,169.45 C486.21666,171.483343 484.750008,173.216659 483.05,174.65 C481.349991,176.08334 479.350011,177.166663 477.05,177.9 C474.749988,178.633337 472.033349,179 468.9,179 C467.366659,179 465.783341,178.900001 464.15,178.7 C462.516658,178.499999 461.100006,178.233335 459.9,177.9 L461.7,164.1 C462.500004,164.366668 463.383328,164.583332 464.35,164.75 C465.316671,164.916667 466.199996,165 467,165 C469.533346,165 471.366661,164.416672 472.5,163.25 C473.633339,162.083327 474.599996,160.433344 475.4,158.3 L477,154.2 L456.2,105.2 L474.4,105.2 L485.5,137.2 L485.8,137.2 L495.7,105.2 L513.1,105.2 L490.8,162.5 Z" id="Javvy" fill="url(#linearGradient-3)" sketch:type="MSShapeGroup"></path>
        </g>
    </g>
</svg>