<svg xmlns="http://www.w3.org/2000/svg" width="307" height="53" viewBox="0 0 307 53" version="1.1"><title>New Logo</title><desc>Created with Sketch.</desc><g stroke="none" stroke-width="1" fill="none" fill-rule="evenodd"><g transform="translate(-91.000000, -114.000000)" fill="#2BB2F6"><g transform="translate(91.000000, 114.000000)"><path d="M122.6 49.3C125.4 49.3 127.3 48.8 128.1 47.8 129 46.8 129.4 45.3 129.4 43.3L129.4 7.8C129.4 5.8 128.9 4.4 127.9 3.8 127 3.1 125.2 2.7 122.7 2.5L122.7 0.6 141.6 0.6 156.3 35.3 156.9 35.3 171.6 0.6 190.4 0.6 190.4 2.5C187.9 2.7 186.2 3.2 185.3 3.9 184.3 4.7 183.9 6.5 183.9 9.4L183.9 42.5C183.9 45.2 184.3 47 185.3 47.9 186.2 48.7 187.9 49.2 190.4 49.3L190.4 51.2 165.6 51.2 165.6 49.3C167.8 49.2 169.5 48.9 170.6 48.2 171.7 47.5 172.3 46 172.3 43.8L172.3 7.2 171.7 7.2 153.4 51.2 151.4 51.2 132.9 8.1 132.5 8.1 132.5 42C132.5 44.4 133 46.3 133.9 47.4 134.9 48.5 136.9 49.2 140.1 49.3L140.1 51.2 122.6 51.2 122.6 49.3 122.6 49.3ZM198.6 21C201.8 17.5 205.8 15.8 210.7 15.8 215.6 15.8 219.7 17.6 222.8 21.1 226 24.7 227.6 29 227.6 34.1 227.6 39.1 226 43.3 222.9 46.9 219.8 50.5 215.7 52.3 210.7 52.3 205.8 52.3 201.8 50.6 198.6 47.1 195.4 43.6 193.8 39.2 193.8 34.1 193.8 28.8 195.4 24.5 198.6 21L198.6 21 198.6 21ZM205.6 45.1C206.5 48.3 208.2 49.9 210.7 49.9 213.1 49.9 214.7 48.7 215.4 46.2 216.2 43.7 216.6 39.7 216.6 34.1 216.6 28.5 216.2 24.4 215.4 21.9 214.6 19.5 213 18.2 210.7 18.2 208.2 18.2 206.5 19.8 205.6 23.1 205.1 25.2 204.8 28.9 204.8 34.1 204.8 39.3 205.1 43 205.6 45.1L205.6 45.1 205.6 45.1ZM230.8 49.4C232.2 49.2 233.2 48.9 233.8 48.3 234.4 47.7 234.8 46.6 234.8 44.9L234.8 22.9C234.8 21.4 234.5 20.3 234 19.7 233.5 19.2 232.4 18.8 230.8 18.6L230.8 16.7 245 16.7 245 22.1C246.2 20.3 247.7 18.8 249.5 17.6 251.4 16.5 253.4 15.9 255.6 15.9 258.8 15.9 261.3 16.7 263.1 18.4 264.9 20 265.8 22.9 265.8 27.1L265.8 45.2C265.8 46.8 266 47.9 266.6 48.4 267.2 48.9 268.1 49.2 269.5 49.4L269.5 51.2 251.9 51.2 251.9 49.4C253.2 49.1 254.2 48.8 254.6 48.3 255.1 47.8 255.4 46.8 255.4 45.2L255.4 27C255.4 25.3 255.2 24.1 254.9 23.2 254.3 21.7 253.1 20.9 251.4 20.9 250.1 20.9 248.9 21.4 247.8 22.3 246.7 23.3 245.9 24.2 245.3 25.1L245.3 45.2C245.3 46.8 245.6 47.8 246.1 48.3 246.5 48.8 247.5 49.1 248.8 49.4L248.8 51.2 230.8 51.2 230.8 49.4 230.8 49.4ZM277.6 21C280.8 17.5 284.9 15.8 289.7 15.8 294.7 15.8 298.7 17.6 301.9 21.1 305 24.7 306.6 29 306.6 34.1 306.6 39.1 305 43.3 301.9 46.9 298.8 50.5 294.7 52.3 289.7 52.3 284.8 52.3 280.8 50.6 277.6 47.1 274.4 43.6 272.8 39.2 272.8 34.1 272.8 28.8 274.4 24.5 277.6 21L277.6 21 277.6 21ZM284.6 45.1C285.5 48.3 287.2 49.9 289.7 49.9 292.1 49.9 293.7 48.7 294.5 46.2 295.2 43.7 295.6 39.7 295.6 34.1 295.6 28.5 295.2 24.4 294.4 21.9 293.6 19.5 292.1 18.2 289.8 18.2 287.2 18.2 285.5 19.8 284.7 23.1 284.1 25.2 283.8 28.9 283.8 34.1 283.8 39.3 284.1 43 284.6 45.1L284.6 45.1 284.6 45.1Z"/><path d="M45.3-22.7L23.6-22.7 23.6-19.9 35.2-19.9 35.2 72.1 23.6 72.1 23.6 75 45.3 75 45.3 74.9 61.8 74.9C64.2 74.9 65.9 74.3 67.1 73 68.2 71.6 68.7 69.3 68.7 66.1L68.7 34.8C68.7 33 69.3 31.3 70.4 30 71.5 28.6 72.9 27.8 74.7 27.5L74.7 24.8C72.9 24.6 71.5 23.8 70.4 22.4 69.3 21 68.7 19.4 68.7 17.5L68.7-13.9C68.7-17.2 68.2-19.5 67-20.8 65.9-22.1 64.2-22.7 61.8-22.7L45.3-22.7 45.3-22.7ZM45.3-20L45.3 72.2 54.2 72.2C55.6 72.2 56.7 71.7 57.4 70.8 58.2 69.9 58.5 68 58.5 65L58.5 40.7C58.5 34.3 62.5 29.5 70.4 26.1 62.5 22.8 58.5 17.9 58.5 11.6L58.5-12.8C58.5-15.8 58.2-17.7 57.4-18.6 56.7-19.5 55.6-20 54.2-20L45.3-20Z" transform="translate(49.149554, 26.133299) scale(1, -1) rotate(-90.000000) translate(-49.149554, -26.133299) "/></g></g></g></svg>