<svg xmlns="http://www.w3.org/2000/svg" width="218" height="96" viewBox="0 0 218 96" version="1.1"><title>New Logo + Group</title><desc>Created with Sketch.</desc><g stroke="none" stroke-width="1" fill="none" fill-rule="evenodd"><g transform="translate(-61.000000, -131.000000)"><g transform="translate(60.000000, 113.000000)"><g transform="translate(0.445825, 47.575985)" fill="#2BB2F6"><path d="M142 36.5C138.1 37 135 38.8 132.5 41.9 130.1 45 128.8 48.6 128.8 52.8L128.8 122.2C128.8 129.5 127.6 134.7 125.1 137.6 122.6 140.5 118.7 142 113.4 142L76.7 142 76.7 135.9 96.6 135.9C99.7 135.9 102 134.9 103.7 132.9 105.3 130.9 106.1 126.6 106.1 120L106.1 65.7C106.1 51.6 114.9 40.8 132.5 33.4 114.9 25.9 106.1 15.1 106.1 1L106.1-53.3C106.1-59.9 105.3-64.3 103.6-66.3 101.9-68.3 99.6-69.3 96.6-69.2L76.7-69.2 76.7-75.4 113.4-75.4C118.7-75.4 122.5-74 125.1-71.1 127.6-68.1 128.8-63 128.8-55.7L128.8 14.2C128.8 18.3 130.1 22 132.5 25 135 28.1 138.1 29.9 142 30.4L142 36.5Z" transform="translate(109.345450, 33.321263) scale(1, -1) rotate(-90.000000) translate(-109.345450, -33.321263) "/></g><g transform="translate(10.047842, 0.455909)" font-size="63.7" font-family="Times" font-weight="normal"><text fill="#E74C3C"><tspan x="1" y="61">M</tspan></text><text fill="#F1C40F"><tspan x="58.8" y="61">O</tspan></text><text fill="#3498DB"><tspan x="151.9" y="61">O</tspan></text><text fill="#2ECC71"><tspan x="107" y="61">N</tspan></text></g></g></g></g></svg>