<svg xmlns="http://www.w3.org/2000/svg" width="98" height="52" viewBox="0 0 98 52" version="1.1"><title>]}* copy</title><desc>Created with Sketch.</desc><g stroke="none" stroke-width="1" fill="none" fill-rule="evenodd"><g transform="translate(-91.000000, -114.000000)" fill="#2BB2F6"><g transform="translate(91.000000, 114.000000)"><path d="M45.3-22.7L23.6-22.7 23.6-19.9 35.2-19.9 35.2 72.1 23.6 72.1 23.6 75 45.3 75 45.3 74.9 61.8 74.9C64.2 74.9 65.9 74.3 67.1 73 68.2 71.6 68.7 69.3 68.7 66.1L68.7 34.8C68.7 33 69.3 31.3 70.4 30 71.5 28.6 72.9 27.8 74.7 27.5L74.7 24.8C72.9 24.6 71.5 23.8 70.4 22.4 69.3 21 68.7 19.4 68.7 17.5L68.7-13.9C68.7-17.2 68.2-19.5 67-20.8 65.9-22.1 64.2-22.7 61.8-22.7L45.3-22.7 45.3-22.7ZM45.3-20L45.3 72.2 54.2 72.2C55.6 72.2 56.7 71.7 57.4 70.8 58.2 69.9 58.5 68 58.5 65L58.5 40.7C58.5 34.3 62.5 29.5 70.4 26.1 62.5 22.8 58.5 17.9 58.5 11.6L58.5-12.8C58.5-15.8 58.2-17.7 57.4-18.6 56.7-19.5 55.6-20 54.2-20L45.3-20Z" transform="translate(49.149554, 26.133299) scale(1, -1) rotate(-90.000000) translate(-49.149554, -26.133299) "/></g></g></g></svg>