<svg xmlns="http://www.w3.org/2000/svg" width="10" height="9" viewBox="0 0 10 9" version="1.1"><title>messenger</title><desc>Created with Sketch.</desc><g stroke="none" stroke-width="1" fill="none" fill-rule="evenodd"><g transform="translate(-5.000000, -5.000000)"><g transform="translate(5.950000, 5.450000)"><path d="M4.1 0C1.8 0 0 1.7 0 3.8 0 4.9 0.6 6 1.5 6.7L1.5 8.1 2.9 7.3C3.3 7.4 3.6 7.5 4.1 7.5 6.3 7.5 8.1 5.8 8.1 3.8 8.1 1.7 6.3 0 4.1 0L4.1 0ZM4.5 5.1L3.4 4 1.4 5.1 3.6 2.7 4.7 3.8 6.7 2.7 4.5 5.1 4.5 5.1Z" fill="#FFFFFF"/></g></g></g></svg>