<?xml version="1.0" encoding="UTF-8" standalone="no"?>
<svg width="554px" height="167px" viewBox="0 0 554 167" version="1.1" xmlns="http://www.w3.org/2000/svg" xmlns:xlink="http://www.w3.org/1999/xlink" xmlns:sketch="http://www.bohemiancoding.com/sketch/ns">
    <!-- Generator: Sketch 3.3.2 (12043) - http://www.bohemiancoding.com/sketch -->
    <title>mono-logotype_1</title>
    <desc>Created with Sketch.</desc>
    <defs></defs>
    <g id="Page-1" stroke="none" stroke-width="1" fill="none" fill-rule="evenodd" sketch:type="MSPage">
        <g id="mono-logotype_1" sketch:type="MSLayerGroup" fill="#2BB2F6">
            <g id="Page-1" sketch:type="MSShapeGroup">
                <g id="]}*-copy-3-+-Mono">
                    <path d="M0,166.962891 L0,162.048828 L19.5839844,162.048828 L19.5839844,5.66601562 L0,5.66601562 L0,0.896484375 L36.8554688,0.896484375 L36.8554688,166.962891 L0,166.962891 L0,166.962891 Z M109.916016,86.3144531 C106.977199,86.6998717 104.568369,88.0729049 102.689453,90.4335938 C100.810537,92.7942826 99.8710938,95.5644372 99.8710938,98.7441406 L99.8710938,151.787109 C99.8710938,157.375679 98.9196059,161.290028 97.0166016,163.530273 C95.1135973,165.770519 92.1386921,166.890625 88.0917969,166.890625 L60.0527344,166.890625 L60.0527344,162.193359 L75.2285156,162.193359 C77.5892045,162.193359 79.3958271,161.434578 80.6484375,159.916992 C81.9010479,158.399406 82.5273438,155.111353 82.5273438,150.052734 L82.5273438,108.644531 C82.5273438,97.8528106 89.2479797,89.6146118 102.689453,83.9296875 C89.2479797,78.2447632 82.5273438,70.0065644 82.5273438,59.2148438 L82.5273438,17.734375 C82.5273438,12.675756 81.8890038,9.37565875 80.6123047,7.83398438 C79.3356056,6.29231 77.5410272,5.54557268 75.2285156,5.59375 L60.0527344,5.59375 L60.0527344,0.896484375 L88.0917969,0.896484375 C92.0905148,0.848307051 95.0533758,1.94432474 96.9804688,4.18457031 C98.9075617,6.42481589 99.8710938,10.3391648 99.8710938,15.9277344 L99.8710938,69.2597656 C99.8710938,72.439469 100.810537,75.2096236 102.689453,77.5703125 C104.568369,79.9310014 106.977199,81.3040345 109.916016,81.6894531 L109.916016,86.3144531 L109.916016,86.3144531 Z M178.640625,53.4335937 L159.490234,37.1015625 L163.681641,62.0332031 L148.361328,62.0332031 L152.625,37.1015625 L133.402344,53.4335937 L125.742188,40.0644531 L149.878906,31.4648437 L125.742188,22.8652344 L133.402344,9.56835938 L152.986328,26.1171875 L148.361328,0.896484375 L163.753906,0.896484375 L159.128906,26.1171875 L178.640625,9.56835938 L186.373047,22.8652344 L162.236328,31.4648437 L186.373047,40.0644531 L178.640625,53.4335937 L178.640625,53.4335937 Z" id="]}*-copy-3"></path>
                    <path d="M208.672999,145.123174 C214.009067,145.077566 217.475179,144.131226 219.071439,142.284126 C220.667698,140.437025 221.465817,137.666416 221.465817,133.972215 L221.465817,67.4769259 C221.465817,63.6459025 220.553682,61.1261302 218.729385,59.9175335 C216.905088,58.7089368 213.66701,57.9222206 209.015052,57.5573612 L209.015052,54 L244.315021,54 L271.88457,118.85343 L273.047553,118.85343 L300.48028,54 L335.780249,54 L335.780249,57.5573612 C331.037077,57.9222206 327.798998,58.8001503 326.065917,60.1911767 C324.332834,61.582203 323.466307,64.9913067 323.466307,70.41859 L323.466307,132.330356 C323.466307,137.483995 324.332834,140.858893 326.065917,142.455153 C327.798998,144.051412 331.037077,144.940744 335.780249,145.123174 L335.780249,148.680535 L289.26091,148.680535 L289.26091,145.123174 C293.411186,144.986351 296.535248,144.290849 298.63319,143.036645 C300.73113,141.782441 301.780085,139.034635 301.780085,134.793145 L301.780085,66.3139424 L300.753924,66.3139424 L266.411707,148.680535 L262.649113,148.680535 L227.964842,67.9558015 L227.349145,67.9558015 L227.349145,131.372604 C227.349145,136.024562 228.215672,139.422264 229.948755,141.565812 C231.681836,143.709361 235.512803,144.895137 241.441768,145.123174 L241.441768,148.680535 L208.672999,148.680535 L208.672999,145.123174 L208.672999,145.123174 Z M351.07006,92.1732215 C357.067437,85.6513601 364.60395,82.3904784 373.679827,82.3904784 C382.938134,82.3904784 390.520254,85.7197703 396.426415,92.3784538 C402.332576,99.0371369 405.285612,107.10953 405.285612,116.595874 C405.285612,125.945396 402.366781,133.983583 396.529031,140.710678 C390.691281,147.437773 383.074955,150.80127 373.679827,150.80127 C364.558342,150.80127 357.010427,147.528986 351.035856,140.984321 C345.061283,134.439655 342.074041,126.310255 342.074041,116.595874 C342.074041,106.835885 345.072684,98.6950834 351.07006,92.1732215 L351.07006,92.1732215 L351.07006,92.1732215 Z M364.170727,137.187522 C365.766987,143.253309 368.936655,146.286158 373.679827,146.286158 C378.194962,146.286158 381.159399,143.960213 382.57323,139.308257 C383.98706,134.656299 384.693964,127.085581 384.693964,116.595874 C384.693964,106.151775 383.952855,98.5924569 382.470613,93.9176963 C380.988372,89.2429358 378.080943,86.9055906 373.748237,86.9055906 C369.005066,86.9055906 365.835397,89.9384387 364.239138,96.0042257 C363.190167,100.063286 362.665689,106.927101 362.665689,116.595874 C362.665689,126.401469 363.167364,133.265283 364.170727,137.187522 L364.170727,137.187522 L364.170727,137.187522 Z M411.305763,145.328406 C413.859777,145.009154 415.741056,144.313652 416.949653,143.241877 C418.158249,142.170103 418.762539,140.037988 418.762539,136.845468 L418.762539,95.6621722 C418.762539,92.8345117 418.272265,90.873422 417.291706,89.7788438 C416.311147,88.6842657 414.315852,87.9545579 411.305763,87.5896985 L411.305763,84.169159 L437.849148,84.169159 L437.849148,94.2255454 C440.083913,90.850596 442.922932,88.0571832 446.366292,85.8452234 C449.809653,83.6332634 453.629217,82.5272999 457.8251,82.5272999 C463.84528,82.5272999 468.508569,84.077929 471.815107,87.1792337 C475.121645,90.2805384 476.774889,95.7305435 476.774889,103.529413 L476.774889,137.392755 C476.774889,140.539667 477.310768,142.569166 478.382543,143.481314 C479.454317,144.393463 481.244381,145.009154 483.75279,145.328406 L483.75279,148.680535 L450.847199,148.680535 L450.847199,145.328406 C453.355608,144.826724 455.06586,144.142623 455.978009,143.276082 C456.890157,142.409542 457.346224,140.448451 457.346224,137.392755 L457.346224,103.461002 C457.346224,100.268482 457.026977,97.8741287 456.388473,96.277869 C455.293895,93.4046013 453.127575,91.9679891 449.889448,91.9679891 C447.472255,91.9679891 445.248926,92.8459188 443.219396,94.6018046 C441.189866,96.3576902 439.627835,98.1249514 438.533257,99.9036411 L438.533257,137.392755 C438.533257,140.448451 438.989324,142.409542 439.901473,143.276082 C440.813621,144.142623 442.523874,144.826724 445.032282,145.328406 L445.032282,148.680535 L411.305763,148.680535 L411.305763,145.328406 L411.305763,145.328406 Z M499.042601,92.1732215 C505.039977,85.6513601 512.576491,82.3904784 521.652368,82.3904784 C530.910675,82.3904784 538.492795,85.7197703 544.398956,92.3784538 C550.305117,99.0371369 553.258153,107.10953 553.258153,116.595874 C553.258153,125.945396 550.339322,133.983583 544.501572,140.710678 C538.663822,147.437773 531.047497,150.80127 521.652368,150.80127 C512.530884,150.80127 504.982968,147.528986 499.008396,140.984321 C493.033824,134.439655 490.046582,126.310255 490.046582,116.595874 C490.046582,106.835885 493.045226,98.6950834 499.042601,92.1732215 L499.042601,92.1732215 L499.042601,92.1732215 Z M512.143268,137.187522 C513.739528,143.253309 516.909197,146.286158 521.652368,146.286158 C526.167503,146.286158 529.131941,143.960213 530.545771,139.308257 C531.959601,134.656299 532.666505,127.085581 532.666505,116.595874 C532.666505,106.151775 531.925397,98.5924569 530.443154,93.9176963 C528.960913,89.2429358 526.053484,86.9055906 521.720779,86.9055906 C516.977607,86.9055906 513.807939,89.9384387 512.211679,96.0042257 C511.162708,100.063286 510.63823,106.927101 510.63823,116.595874 C510.63823,126.401469 511.139905,133.265283 512.143268,137.187522 L512.143268,137.187522 L512.143268,137.187522 Z" id="Mono"></path>
                </g>
            </g>
        </g>
    </g>
</svg>