<svg xmlns="http://www.w3.org/2000/svg" width="187" height="167" viewBox="0 0 187 167" version="1.1"><title>]}* copy 3</title><desc>Created with Sketch.</desc><g stroke="none" stroke-width="1" fill="none" fill-rule="evenodd"><path d="M0 166.1L0 161.2 19.6 161.2 19.6 4.9 0 4.9 0 0.1 36.8 0.1 36.8 166.1 0 166.1ZM109.9 85.5C106.9 85.9 104.5 87.2 102.6 89.6 100.8 92 99.8 94.7 99.8 97.9L99.8 150.9C99.8 156.5 98.9 160.4 97 162.7 95.1 164.9 92.1 166 88.1 166L60 166 60 161.3 75.2 161.3C77.6 161.3 79.4 160.6 80.6 159 81.9 157.5 82.5 154.2 82.5 149.2L82.5 107.8C82.5 97 89.2 88.8 102.6 83.1 89.2 77.4 82.5 69.2 82.5 58.4L82.5 16.9C82.5 11.9 81.9 8.6 80.6 7 79.3 5.5 77.5 4.7 75.2 4.8L60 4.8 60 0.1 88.1 0.1C92.1 0 95 1.1 96.9 3.4 98.9 5.6 99.8 9.5 99.8 15.1L99.8 68.4C99.8 71.6 100.8 74.4 102.6 76.7 104.5 79.1 106.9 80.5 109.9 80.9L109.9 85.5ZM178.6 52.6L159.4 36.3 163.6 61.2 148.3 61.2 152.6 36.3 133.3 52.6 125.7 39.2 149.8 30.6 125.7 22.1 133.3 8.8 152.9 25.3 148.3 0.1 163.7 0.1 159.1 25.3 178.6 8.8 186.3 22.1 162.2 30.6 186.3 39.2 178.6 52.6Z" fill="#2BB2F6"/></g></svg>