<svg xmlns="http://www.w3.org/2000/svg" width="554" height="167" viewBox="0 0 554 167" version="1.1"><title>mono-logotype_1</title><desc>Created with Sketch.</desc><g stroke="none" stroke-width="1" fill="none" fill-rule="evenodd"><g fill="#2BB2F6"><path d="M0 167L0 162 19.6 162 19.6 5.7 0 5.7 0 0.9 36.9 0.9 36.9 167 0 167 0 167ZM109.9 86.3C107 86.7 104.6 88.1 102.7 90.4 100.8 92.8 99.9 95.6 99.9 98.7L99.9 151.8C99.9 157.4 98.9 161.3 97 163.5 95.1 165.8 92.1 166.9 88.1 166.9L60.1 166.9 60.1 162.2 75.2 162.2C77.6 162.2 79.4 161.4 80.6 159.9 81.9 158.4 82.5 155.1 82.5 150.1L82.5 108.6C82.5 97.9 89.2 89.6 102.7 83.9 89.2 78.2 82.5 70 82.5 59.2L82.5 17.7C82.5 12.7 81.9 9.4 80.6 7.8 79.3 6.3 77.5 5.5 75.2 5.6L60.1 5.6 60.1 0.9 88.1 0.9C92.1 0.8 95.1 1.9 97 4.2 98.9 6.4 99.9 10.3 99.9 15.9L99.9 69.3C99.9 72.4 100.8 75.2 102.7 77.6 104.6 79.9 107 81.3 109.9 81.7L109.9 86.3 109.9 86.3ZM178.6 53.4L159.5 37.1 163.7 62 148.4 62 152.6 37.1 133.4 53.4 125.7 40.1 149.9 31.5 125.7 22.9 133.4 9.6 153 26.1 148.4 0.9 163.8 0.9 159.1 26.1 178.6 9.6 186.4 22.9 162.2 31.5 186.4 40.1 178.6 53.4 178.6 53.4ZM208.7 145.1C214 145.1 217.5 144.1 219.1 142.3 220.7 140.4 221.5 137.7 221.5 134L221.5 67.5C221.5 63.6 220.6 61.1 218.7 59.9 216.9 58.7 213.7 57.9 209 57.6L209 54 244.3 54 271.9 118.9 273 118.9 300.5 54 335.8 54 335.8 57.6C331 57.9 327.8 58.8 326.1 60.2 324.3 61.6 323.5 65 323.5 70.4L323.5 132.3C323.5 137.5 324.3 140.9 326.1 142.5 327.8 144.1 331 144.9 335.8 145.1L335.8 148.7 289.3 148.7 289.3 145.1C293.4 145 296.5 144.3 298.6 143 300.7 141.8 301.8 139 301.8 134.8L301.8 66.3 300.8 66.3 266.4 148.7 262.6 148.7 228 68 227.3 68 227.3 131.4C227.3 136 228.2 139.4 229.9 141.6 231.7 143.7 235.5 144.9 241.4 145.1L241.4 148.7 208.7 148.7 208.7 145.1 208.7 145.1ZM351.1 92.2C357.1 85.7 364.6 82.4 373.7 82.4 382.9 82.4 390.5 85.7 396.4 92.4 402.3 99 405.3 107.1 405.3 116.6 405.3 125.9 402.4 134 396.5 140.7 390.7 147.4 383.1 150.8 373.7 150.8 364.6 150.8 357 147.5 351 141 345.1 134.4 342.1 126.3 342.1 116.6 342.1 106.8 345.1 98.7 351.1 92.2L351.1 92.2 351.1 92.2ZM364.2 137.2C365.8 143.3 368.9 146.3 373.7 146.3 378.2 146.3 381.2 144 382.6 139.3 384 134.7 384.7 127.1 384.7 116.6 384.7 106.2 384 98.6 382.5 93.9 381 89.2 378.1 86.9 373.7 86.9 369 86.9 365.8 89.9 364.2 96 363.2 100.1 362.7 106.9 362.7 116.6 362.7 126.4 363.2 133.3 364.2 137.2L364.2 137.2 364.2 137.2ZM411.3 145.3C413.9 145 415.7 144.3 416.9 143.2 418.2 142.2 418.8 140 418.8 136.8L418.8 95.7C418.8 92.8 418.3 90.9 417.3 89.8 416.3 88.7 414.3 88 411.3 87.6L411.3 84.2 437.8 84.2 437.8 94.2C440.1 90.9 442.9 88.1 446.4 85.8 449.8 83.6 453.6 82.5 457.8 82.5 463.8 82.5 468.5 84.1 471.8 87.2 475.1 90.3 476.8 95.7 476.8 103.5L476.8 137.4C476.8 140.5 477.3 142.6 478.4 143.5 479.5 144.4 481.2 145 483.8 145.3L483.8 148.7 450.8 148.7 450.8 145.3C453.4 144.8 455.1 144.1 456 143.3 456.9 142.4 457.3 140.4 457.3 137.4L457.3 103.5C457.3 100.3 457 97.9 456.4 96.3 455.3 93.4 453.1 92 449.9 92 447.5 92 445.2 92.8 443.2 94.6 441.2 96.4 439.6 98.1 438.5 99.9L438.5 137.4C438.5 140.4 439 142.4 439.9 143.3 440.8 144.1 442.5 144.8 445 145.3L445 148.7 411.3 148.7 411.3 145.3 411.3 145.3ZM499 92.2C505 85.7 512.6 82.4 521.7 82.4 530.9 82.4 538.5 85.7 544.4 92.4 550.3 99 553.3 107.1 553.3 116.6 553.3 125.9 550.3 134 544.5 140.7 538.7 147.4 531 150.8 521.7 150.8 512.5 150.8 505 147.5 499 141 493 134.4 490 126.3 490 116.6 490 106.8 493 98.7 499 92.2L499 92.2 499 92.2ZM512.1 137.2C513.7 143.3 516.9 146.3 521.7 146.3 526.2 146.3 529.1 144 530.5 139.3 532 134.7 532.7 127.1 532.7 116.6 532.7 106.2 531.9 98.6 530.4 93.9 529 89.2 526.1 86.9 521.7 86.9 517 86.9 513.8 89.9 512.2 96 511.2 100.1 510.6 106.9 510.6 116.6 510.6 126.4 511.1 133.3 512.1 137.2L512.1 137.2 512.1 137.2Z"/></g></g></svg>