<?xml version="1.0" encoding="UTF-8" standalone="no"?>
<svg width="187px" height="167px" viewBox="0 0 187 167" version="1.1" xmlns="http://www.w3.org/2000/svg" xmlns:xlink="http://www.w3.org/1999/xlink" xmlns:sketch="http://www.bohemiancoding.com/sketch/ns">
    <!-- Generator: Sketch 3.3.2 (12043) - http://www.bohemiancoding.com/sketch -->
    <title>]}* copy 3</title>
    <desc>Created with Sketch.</desc>
    <defs></defs>
    <g id="Page-1" stroke="none" stroke-width="1" fill="none" fill-rule="evenodd" sketch:type="MSPage">
        <path d="M0,166.090197 L0,161.178144 L19.5759738,161.178144 L19.5759738,4.85929795 L0,4.85929795 L0,0.0917176103 L36.8403936,0.0917176103 L36.8403936,166.090197 L0,166.090197 Z M109.871056,85.4747474 C106.933441,85.8600083 104.525597,87.2324799 102.64745,89.5922031 C100.769302,91.9519264 99.8302429,94.7209479 99.8302429,97.8993507 L99.8302429,150.920623 C99.8302429,156.506907 98.8791442,160.419654 96.9769183,162.658984 C95.0746924,164.898313 92.1010041,166.017961 88.0557642,166.017961 L60.0281707,166.017961 L60.0281707,161.322616 L75.1977445,161.322616 C77.5574678,161.322616 79.3633514,160.564145 80.6154494,159.04718 C81.8675475,157.530215 82.4935871,154.243507 82.4935871,149.186957 L82.4935871,107.795692 C82.4935871,97.0083853 89.2114741,88.7735561 102.64745,83.0909572 C89.2114741,77.4083583 82.4935871,69.1735291 82.4935871,58.3862227 L82.4935871,16.9227209 C82.4935871,11.8661711 81.8555083,8.5674237 80.5793314,7.02637993 C79.3031545,5.48533615 77.5093102,4.73890427 75.1977445,4.78706189 L60.0281707,4.78706189 L60.0281707,0.0917176103 L88.0557642,0.0917176103 C92.0528465,0.0435599923 95.0144956,1.13912937 96.9408003,3.3784586 C98.867105,5.61778784 99.8302429,9.53053561 99.8302429,15.1168193 L99.8302429,68.4270359 C99.8302429,71.6054386 100.769302,74.3744601 102.64745,76.7341834 C104.525597,79.0939067 106.933441,80.4663782 109.871056,80.8516392 L109.871056,85.4747474 Z M178.567555,52.6073374 L159.424997,36.2819866 L163.614689,61.2034293 L148.300643,61.2034293 L152.562571,36.2819866 L133.347777,52.6073374 L125.690754,39.2436653 L149.8176,30.6475734 L125.690754,22.0514816 L133.347777,8.76004551 L152.923751,25.3021046 L148.300643,0.0917176103 L163.686925,0.0917176103 L159.063817,25.3021046 L178.567555,8.76004551 L186.296814,22.0514816 L162.169968,30.6475734 L186.296814,39.2436653 L178.567555,52.6073374 Z" id="]}*-copy-3" fill="#2BB2F6" sketch:type="MSShapeGroup"></path>
    </g>
</svg>