<?xml version="1.0" encoding="UTF-8" standalone="no"?>
<svg width="85px" height="82px" viewBox="0 0 85 82" version="1.1" xmlns="http://www.w3.org/2000/svg" xmlns:xlink="http://www.w3.org/1999/xlink" xmlns:sketch="http://www.bohemiancoding.com/sketch/ns">
    <!-- Generator: Sketch 3.3.2 (12043) - http://www.bohemiancoding.com/sketch -->
    <title>16 + ¢/word copy 13</title>
    <desc>Created with Sketch.</desc>
    <defs></defs>
    <g id="Page-1" stroke="none" stroke-width="1" fill="none" fill-rule="evenodd" sketch:type="MSPage">
        <g id="16-+-¢/word-copy-13" sketch:type="MSLayerGroup">
            <path d="M2.95507812,33.2140656 C2.95507812,29.5031281 6.12890625,26.7931671 11.3291016,26.6466827 L11.3291016,40.806839 L9.88867188,40.416214 C5.54296875,39.2687531 2.95507812,37.1203156 2.95507812,33.2140656 L2.95507812,33.2140656 Z M21.0947266,50.4748077 C21.0947266,54.6740265 17.75,57.4816437 12.671875,57.7746124 L12.671875,42.5890656 L12.9404297,42.6623077 C18.5068359,44.1271515 21.0947266,46.1779327 21.0947266,50.4748077 L21.0947266,50.4748077 Z M12.671875,62.3888702 L12.671875,59.0441437 C18.6289062,58.7267609 22.5839844,55.5529327 22.5839844,50.3283234 C22.5839844,45.6164093 19.8740234,43.0041046 13.6484375,41.3927765 L12.671875,41.1486359 L12.671875,26.6466827 C18.2138672,26.9396515 20.6308594,30.1867218 20.6796875,32.9210968 L22.0957031,32.9210968 C22.046875,29.1125031 18.7265625,25.6701202 12.671875,25.3771515 L12.671875,22.0812531 L11.3291016,22.0812531 L11.3291016,25.3527374 C5.20117188,25.5236359 1.46582031,28.7462921 1.46582031,33.4093781 C1.46582031,37.9503937 4.22460938,40.3673859 9.00976562,41.6369171 L11.3291016,42.2472687 L11.3291016,57.7990265 C5.17675781,57.6281281 2.10058594,53.9904327 2.05175781,50.5480499 L0.5625,50.5480499 C0.586914062,54.4298859 3.76074219,58.9953156 11.3291016,59.0929718 L11.3291016,62.3888702 L12.671875,62.3888702 Z M27.6142578,40.806839 C27.6142578,31.2365265 31.0322266,26.1339874 36.3300781,26.1339874 C41.6279297,26.1339874 45.0458984,31.2365265 45.0458984,40.806839 L45.0458984,43.6388702 C45.0458984,53.2091827 41.6279297,58.3117218 36.3300781,58.3117218 C31.0322266,58.3117218 27.6142578,53.2091827 27.6142578,43.6388702 L27.6142578,40.806839 Z M26.1738281,43.541214 C26.1738281,53.9904327 30.1289062,59.5812531 36.3300781,59.5812531 C42.53125,59.5812531 46.4863281,53.9904327 46.4863281,43.541214 L46.4863281,40.9044952 C46.4863281,30.4552765 42.53125,24.8644562 36.3300781,24.8644562 C30.1289062,24.8644562 26.1738281,30.4552765 26.1738281,40.9044952 L26.1738281,43.541214 Z M51.1992188,57.5060577 C51.1992188,58.4093781 51.9316406,59.1417999 52.8349609,59.1417999 C53.7382812,59.1417999 54.4951172,58.4093781 54.4951172,57.5060577 C54.4951172,56.6027374 53.7382812,55.8459015 52.8349609,55.8459015 C51.9316406,55.8459015 51.1992188,56.6027374 51.1992188,57.5060577 L51.1992188,57.5060577 Z" id="$0." fill="#D0011B" sketch:type="MSShapeGroup"></path>
            <path d="M5.79064941,78.2109375 C8.26330566,78.2109375 10.4312744,76.4882812 10.4312744,73.0429688 L10.4312744,70.8164062 C10.4312744,67.6289062 8.47424316,65.671875 5.82580566,65.671875 C3.16564941,65.671875 2.07580566,67.4296875 1.82971191,68.203125 L1.78283691,68.203125 L1.78283691,65.8710938 L0.857055664,65.8710938 L0.857055664,81.9375 L1.80627441,81.9375 L1.80627441,75.7148438 L1.85314941,75.7148438 C2.20471191,76.6640625 3.30627441,78.2109375 5.79064941,78.2109375 L5.79064941,78.2109375 Z M5.73205566,77.34375 C3.30627441,77.34375 1.80627441,75.3515625 1.80627441,72.890625 L1.80627441,70.9101562 C1.80627441,68.625 3.18908691,66.5273438 5.70861816,66.5273438 C7.82971191,66.5273438 9.47033691,68.1210938 9.47033691,70.9804688 L9.47033691,72.84375 C9.47033691,75.9375 7.67736816,77.34375 5.73205566,77.34375 L5.73205566,77.34375 Z M18.1070557,78.2109375 C21.0836182,78.2109375 22.3726807,76.3125 22.5133057,74.9414062 L21.5406494,74.9414062 C21.4117432,75.9960938 20.3804932,77.34375 18.1070557,77.34375 C15.6461182,77.34375 14.2047119,75.5742188 14.2047119,72.6445312 L14.2047119,72.0234375 L22.6890869,72.0234375 L22.6890869,71.4023438 C22.6890869,67.6992188 20.8726807,65.671875 17.9664307,65.671875 C15.0718994,65.671875 13.2554932,67.7226562 13.2554932,71.4140625 L13.2554932,72.6445312 C13.2554932,76.125 15.0133057,78.2109375 18.1070557,78.2109375 L18.1070557,78.2109375 Z M14.2047119,71.1914062 L14.2047119,71.1445312 C14.2047119,68.25 15.6812744,66.5273438 17.9664307,66.5273438 C20.2633057,66.5273438 21.7398682,68.25 21.7398682,71.1445312 L21.7398682,71.1914062 L14.2047119,71.1914062 Z M26.0875244,78 L27.0367432,78 L27.0367432,70.5117188 C27.0367432,67.8632812 28.5601807,66.5742188 30.4703369,66.5742188 C31.0211182,66.5742188 31.4078369,66.6445312 31.5484619,66.6796875 L31.5484619,65.765625 C31.3843994,65.7421875 31.0445557,65.6835938 30.5523682,65.6835938 C28.3140869,65.6835938 27.3297119,67.0664062 27.0836182,68.109375 L27.0367432,68.109375 L27.0367432,65.8710938 L26.0875244,65.8710938 L26.0875244,78 Z M52.7945557,65.8710938 L51.7984619,65.8710938 L49.0093994,76.640625 L48.9390869,76.640625 L45.5406494,65.8710938 L44.5797119,65.8710938 L41.1929932,76.640625 L41.1343994,76.640625 L38.3570557,65.8710938 L37.2906494,65.8710938 L40.6656494,78 L41.6383057,78 L45.0367432,67.2304688 L45.0836182,67.2304688 L48.5054932,78 L49.4664307,78 L52.7945557,65.8710938 Z M59.4859619,65.671875 C56.5445557,65.671875 54.5406494,67.6523438 54.5406494,71.109375 L54.5406494,72.8085938 C54.5406494,76.2773438 56.5679932,78.2109375 59.4859619,78.2109375 C62.3922119,78.2109375 64.4429932,76.2773438 64.4429932,72.8085938 L64.4429932,71.109375 C64.4429932,67.6640625 62.3687744,65.671875 59.4859619,65.671875 L59.4859619,65.671875 Z M59.4859619,66.5273438 C61.8883057,66.5273438 63.4820557,68.2734375 63.4820557,71.2382812 L63.4820557,72.6796875 C63.4820557,75.6796875 61.8883057,77.34375 59.4976807,77.34375 C57.0601807,77.34375 55.4898682,75.65625 55.4898682,72.6796875 L55.4898682,71.2382812 C55.4898682,68.25 57.0836182,66.5273438 59.4859619,66.5273438 L59.4859619,66.5273438 Z M67.8531494,78 L68.8023682,78 L68.8023682,70.5117188 C68.8023682,67.8632812 70.3258057,66.5742188 72.2359619,66.5742188 C72.7867432,66.5742188 73.1734619,66.6445312 73.3140869,66.6796875 L73.3140869,65.765625 C73.1500244,65.7421875 72.8101807,65.6835938 72.3179932,65.6835938 C70.0797119,65.6835938 69.0953369,67.0664062 68.8492432,68.109375 L68.8023682,68.109375 L68.8023682,65.8710938 L67.8531494,65.8710938 L67.8531494,78 Z M79.6070557,65.6601562 C77.0406494,65.6601562 74.9547119,67.4765625 74.9547119,70.8398438 L74.9547119,73.0429688 C74.9547119,76.1835938 76.8414307,78.2109375 79.5836182,78.2109375 C82.2554932,78.2109375 83.3687744,76.3828125 83.5679932,75.6328125 L83.6148682,75.6328125 L83.6148682,78 L84.5289307,78 L84.5289307,61.1835938 L83.5914307,61.1835938 L83.5914307,68.1679688 L83.5445557,68.1679688 C83.2281494,67.2070312 82.0914307,65.6601562 79.6070557,65.6601562 L79.6070557,65.6601562 Z M79.6656494,66.5390625 C82.0797119,66.5390625 83.5914307,68.4726562 83.5914307,71.0273438 L83.5914307,72.8789062 C83.5914307,75.2695312 82.1968994,77.34375 79.6773682,77.34375 C77.4976807,77.34375 75.9039307,75.6796875 75.9039307,72.8554688 L75.9039307,71.0625 C75.9039307,68.0390625 77.6265869,66.5390625 79.6656494,66.5390625 L79.6656494,66.5390625 Z" id="per-word" fill="#D0011B" sketch:type="MSShapeGroup"></path>
            <path d="M2.8515625,1.5078125 C2.8515625,1.9765625 3.21484375,2.33984375 3.671875,2.33984375 C4.15234375,2.33984375 4.52734375,1.9765625 4.52734375,1.5078125 C4.52734375,1.02734375 4.15234375,0.6640625 3.671875,0.6640625 C3.21484375,0.6640625 2.8515625,1.02734375 2.8515625,1.5078125 L2.8515625,1.5078125 Z M4.15234375,4.87109375 L3.21484375,4.87109375 L3.21484375,17.8320312 C3.21484375,19.53125 2.6875,20.1289062 1.4453125,20.1289062 C1.234375,20.1289062 0.84765625,20.0820312 0.68359375,20.046875 L0.68359375,20.8789062 C0.859375,20.9257812 1.29296875,20.9726562 1.5625,20.9726562 C3.26171875,20.9726562 4.15234375,20.09375 4.15234375,17.8085938 L4.15234375,4.87109375 Z M17.3007812,4.87109375 L16.3515625,4.87109375 L16.3515625,12.1484375 C16.3515625,14.3164062 15.0039062,16.3320312 12.5078125,16.3320312 C10.4804688,16.3320312 9.15625,15.0546875 9.15625,12.8984375 L9.15625,4.87109375 L8.20703125,4.87109375 L8.20703125,13.0742188 C8.20703125,15.8632812 10.0351562,17.2109375 12.3671875,17.2109375 C14.6640625,17.2109375 15.8945312,15.875 16.3046875,14.75 L16.3515625,14.75 L16.3515625,17 L17.3007812,17 L17.3007812,4.87109375 Z M20.7695312,7.953125 C20.7695312,10.0039062 22.328125,10.7070312 24.7070312,11.2929688 C26.4765625,11.7148438 28.2226562,12.1367188 28.2226562,13.8359375 C28.2226562,15.5351562 26.6757812,16.3671875 24.765625,16.3671875 C22.1992188,16.3671875 21.34375,14.890625 21.296875,13.8828125 L20.359375,13.8828125 C20.359375,15.3945312 21.5898438,17.2109375 24.7421875,17.2109375 C27.1328125,17.2109375 29.1835938,16.0859375 29.1835938,13.7421875 C29.1835938,11.4921875 27.2382812,10.9648438 24.9882812,10.4140625 C22.9609375,9.91015625 21.7304688,9.37109375 21.7304688,7.87109375 C21.7304688,6.3125 23.1367188,5.50390625 24.8242188,5.50390625 C27.2617188,5.50390625 28,7.015625 28.0117188,7.91796875 L28.9375,7.91796875 C28.9375,6.546875 27.8710938,4.671875 24.8359375,4.671875 C22.5390625,4.671875 20.7695312,5.80859375 20.7695312,7.953125 L20.7695312,7.953125 Z M33.0742188,4.87109375 L30.8007812,4.87109375 L30.8007812,5.703125 L33.0742188,5.703125 L33.0742188,14.1289062 C33.0742188,16.2851562 33.8242188,17.0234375 36.1914062,17.0234375 C36.671875,17.0234375 37.2109375,16.9765625 37.421875,16.9414062 L37.421875,16.1445312 C37.2109375,16.1796875 36.6367188,16.2148438 36.2734375,16.2148438 C34.703125,16.2148438 34.0234375,15.7695312 34.0234375,14.2929688 L34.0234375,5.703125 L37.2695312,5.703125 L37.2695312,4.87109375 L34.0234375,4.87109375 L34.0234375,1.91796875 L33.0742188,1.91796875 L33.0742188,4.87109375 Z" id="just" fill="#D0011B" sketch:type="MSShapeGroup"></path>
            <path d="M63.3916016,57.7070312 L63.3916016,38.4775391 L62.2871094,38.4775391 C61.9189453,38.6616211 57.7700195,41.3803711 57.4160156,41.6352539 L57.4160156,42.8530273 C57.7416992,42.6264648 61.9472656,39.9077148 62.1879883,39.7802734 L62.2446289,39.7802734 L62.2446289,57.7070312 L63.3916016,57.7070312 Z M80.3413086,42.9946289 C80.0864258,40.7290039 78.1606445,38.2509766 74.9887695,38.2509766 C70.9956055,38.2509766 67.9086914,41.5078125 67.9086914,49.5366211 C67.9086914,55.5688477 70.7407227,58.1459961 74.4790039,58.1459961 C78.0615234,58.1459961 80.7944336,55.6538086 80.7944336,51.8022461 C80.7944336,47.7666016 77.5800781,45.4301758 74.6630859,45.4301758 C71.6044922,45.4301758 69.5512695,47.3276367 69.0273438,49.2675781 L68.9990234,49.2675781 C69.0415039,42.3007812 71.6469727,39.284668 74.9179688,39.284668 C77.6083984,39.284668 79.0244141,41.2670898 79.2084961,42.9946289 L80.3413086,42.9946289 Z M69.324707,51.519043 C69.324707,48.6870117 71.8452148,46.4780273 74.5214844,46.4780273 C77.0844727,46.4780273 79.6333008,48.5170898 79.6333008,51.9155273 C79.6333008,55.0166016 77.4243164,57.1123047 74.5073242,57.1123047 C71.5195312,57.1123047 69.324707,54.8466797 69.324707,51.519043 L69.324707,51.519043 Z" id="16" fill="#D0011B" sketch:type="MSShapeGroup"></path>
            <path d="M59.7716156,17.938987 L59.7716156,17.8965182 C59.7822328,16.314553 60.9713609,14.7750567 63.190359,14.7750567 C65.3881227,14.7750567 66.534782,16.2296153 66.534782,17.7691116 C66.534782,19.3829283 65.5686153,20.5189704 64.6873864,21.5382231 L58.9859416,28.0890452 L58.9859416,28.768547 L67.766379,28.768547 L67.766379,27.9934903 L60.185687,27.9934903 L60.185687,27.9722558 L65.2713333,22.1115528 C66.2799688,20.9436591 67.4372453,19.5952727 67.4372453,17.8009632 C67.4372453,15.7518406 65.9614523,14 63.2009762,14 C60.3237108,14 58.9116211,15.9960365 58.9116211,17.8965182 L58.9116211,17.938987 L59.7716156,17.938987 Z M71.2912946,17.938987 L71.2912946,17.8965182 C71.3019118,16.314553 72.4910399,14.7750567 74.710038,14.7750567 C76.9078017,14.7750567 78.054461,16.2296153 78.054461,17.7691116 C78.054461,19.3829283 77.0882943,20.5189704 76.2070654,21.5382231 L70.5056206,28.0890452 L70.5056206,28.768547 L79.286058,28.768547 L79.286058,27.9934903 L71.705366,27.9934903 L71.705366,27.9722558 L76.7910123,22.1115528 C77.7996478,20.9436591 78.9569243,19.5952727 78.9569243,17.8009632 C78.9569243,15.7518406 77.4811313,14 74.7206552,14 C71.8433898,14 70.4313001,15.9960365 70.4313001,17.8965182 L70.4313001,17.938987 L71.2912946,17.938987 Z" id="22" fill="#D0011B" sketch:type="MSShapeGroup"></path>
            <path d="M81.5,23.5166667 L57.5,23.5166667" id="Line" stroke="#D0011B" stroke-linecap="square" sketch:type="MSShapeGroup"></path>
        </g>
    </g>
</svg>