<?xml version="1.0" encoding="UTF-8" standalone="no"?>
<svg width="85px" height="74px" viewBox="0 0 85 74" version="1.1" xmlns="http://www.w3.org/2000/svg" xmlns:xlink="http://www.w3.org/1999/xlink" xmlns:sketch="http://www.bohemiancoding.com/sketch/ns">
    <!-- Generator: Sketch 3.3.2 (12043) - http://www.bohemiancoding.com/sketch -->
    <title>16 + ¢/word copy 14</title>
    <desc>Created with Sketch.</desc>
    <defs></defs>
    <g id="Page-1" stroke="none" stroke-width="1" fill="none" fill-rule="evenodd" sketch:type="MSPage">
        <g id="16-+-¢/word-copy-14" sketch:type="MSLayerGroup" transform="translate(0.000000, -8.000000)">
            <path d="M2.95507812,33.2140656 C2.95507812,29.5031281 6.12890625,26.7931671 11.3291016,26.6466827 L11.3291016,40.806839 L9.88867188,40.416214 C5.54296875,39.2687531 2.95507812,37.1203156 2.95507812,33.2140656 L2.95507812,33.2140656 Z M21.0947266,50.4748077 C21.0947266,54.6740265 17.75,57.4816437 12.671875,57.7746124 L12.671875,42.5890656 L12.9404297,42.6623077 C18.5068359,44.1271515 21.0947266,46.1779327 21.0947266,50.4748077 L21.0947266,50.4748077 Z M12.671875,62.3888702 L12.671875,59.0441437 C18.6289062,58.7267609 22.5839844,55.5529327 22.5839844,50.3283234 C22.5839844,45.6164093 19.8740234,43.0041046 13.6484375,41.3927765 L12.671875,41.1486359 L12.671875,26.6466827 C18.2138672,26.9396515 20.6308594,30.1867218 20.6796875,32.9210968 L22.0957031,32.9210968 C22.046875,29.1125031 18.7265625,25.6701202 12.671875,25.3771515 L12.671875,22.0812531 L11.3291016,22.0812531 L11.3291016,25.3527374 C5.20117188,25.5236359 1.46582031,28.7462921 1.46582031,33.4093781 C1.46582031,37.9503937 4.22460938,40.3673859 9.00976562,41.6369171 L11.3291016,42.2472687 L11.3291016,57.7990265 C5.17675781,57.6281281 2.10058594,53.9904327 2.05175781,50.5480499 L0.5625,50.5480499 C0.586914062,54.4298859 3.76074219,58.9953156 11.3291016,59.0929718 L11.3291016,62.3888702 L12.671875,62.3888702 Z M27.6142578,40.806839 C27.6142578,31.2365265 31.0322266,26.1339874 36.3300781,26.1339874 C41.6279297,26.1339874 45.0458984,31.2365265 45.0458984,40.806839 L45.0458984,43.6388702 C45.0458984,53.2091827 41.6279297,58.3117218 36.3300781,58.3117218 C31.0322266,58.3117218 27.6142578,53.2091827 27.6142578,43.6388702 L27.6142578,40.806839 Z M26.1738281,43.541214 C26.1738281,53.9904327 30.1289062,59.5812531 36.3300781,59.5812531 C42.53125,59.5812531 46.4863281,53.9904327 46.4863281,43.541214 L46.4863281,40.9044952 C46.4863281,30.4552765 42.53125,24.8644562 36.3300781,24.8644562 C30.1289062,24.8644562 26.1738281,30.4552765 26.1738281,40.9044952 L26.1738281,43.541214 Z M51.1992188,57.5060577 C51.1992188,58.4093781 51.9316406,59.1417999 52.8349609,59.1417999 C53.7382812,59.1417999 54.4951172,58.4093781 54.4951172,57.5060577 C54.4951172,56.6027374 53.7382812,55.8459015 52.8349609,55.8459015 C51.9316406,55.8459015 51.1992188,56.6027374 51.1992188,57.5060577 L51.1992188,57.5060577 Z" id="$0." fill="#D0011B" sketch:type="MSShapeGroup"></path>
            <path d="M8.43339716,77.536682 C10.6553611,77.536682 12.6035284,75.9886787 12.6035284,72.8926721 L12.6035284,70.8918516 C12.6035284,68.027519 10.8449125,66.268903 8.46498906,66.268903 C6.07453501,66.268903 5.095186,67.8484982 4.87404267,68.5435201 L4.83192013,68.5435201 L4.83192013,66.4479238 L4,66.4479238 L4,80.8854238 L4.8529814,80.8854238 L4.8529814,75.2936568 L4.89510394,75.2936568 C5.21102298,76.1466382 6.20090263,77.536682 8.43339716,77.536682 L8.43339716,77.536682 Z M8.38074398,76.757415 C6.20090263,76.757415 4.8529814,74.9672072 4.8529814,72.7557739 L4.8529814,70.9760967 C4.8529814,68.9226229 6.09559628,67.0376393 8.35968271,67.0376393 C10.2657276,67.0376393 11.7400164,68.4698056 11.7400164,71.0392805 L11.7400164,72.7136514 C11.7400164,75.4937389 10.1288293,76.757415 8.38074398,76.757415 L8.38074398,76.757415 Z M19.5010941,77.536682 C22.1758753,77.536682 23.3342451,75.8307192 23.4606127,74.5986349 L22.58657,74.5986349 C22.470733,75.5463921 21.5440372,76.757415 19.5010941,76.757415 C17.2896608,76.757415 15.9943928,75.1672892 15.9943928,72.5346306 L15.9943928,71.9765069 L23.6185722,71.9765069 L23.6185722,71.4183833 C23.6185722,68.0907028 21.9863239,66.268903 19.3747265,66.268903 C16.7736597,66.268903 15.1414114,68.1117641 15.1414114,71.4289139 L15.1414114,72.5346306 C15.1414114,75.662229 16.7210066,77.536682 19.5010941,77.536682 L19.5010941,77.536682 Z M15.9943928,71.2288319 L15.9943928,71.1867093 C15.9943928,68.5856426 17.3212527,67.0376393 19.3747265,67.0376393 C21.4387309,67.0376393 22.7655908,68.5856426 22.7655908,71.1867093 L22.7655908,71.2288319 L15.9943928,71.2288319 Z M26.6724562,77.3471306 L27.5254376,77.3471306 L27.5254376,70.6180551 C27.5254376,68.2381317 28.8944201,67.0797619 30.6109136,67.0797619 C31.1058534,67.0797619 31.4533643,67.1429457 31.5797319,67.1745376 L31.5797319,66.3531481 C31.4323031,66.3320868 31.1269147,66.2794336 30.684628,66.2794336 C28.6732768,66.2794336 27.7887035,67.5220485 27.5675602,68.459275 L27.5254376,68.459275 L27.5254376,66.4479238 L26.6724562,66.4479238 L26.6724562,77.3471306 Z M50.6717724,66.4479238 L49.7766685,66.4479238 L47.2703775,76.125577 L47.2071937,76.125577 L44.1533096,66.4479238 L43.2897976,66.4479238 L40.2464442,76.125577 L40.193791,76.125577 L37.6980306,66.4479238 L36.7397429,66.4479238 L39.7725656,77.3471306 L40.6466083,77.3471306 L43.7004923,67.6694774 L43.7426149,67.6694774 L46.8175602,77.3471306 L47.6810722,77.3471306 L50.6717724,66.4479238 Z M56.6847648,66.268903 C54.0415755,66.268903 52.240837,68.0485802 52.240837,71.1551174 L52.240837,72.6820595 C52.240837,75.7991273 54.0626368,77.536682 56.6847648,77.536682 C59.2963621,77.536682 61.1392232,75.7991273 61.1392232,72.6820595 L61.1392232,71.1551174 C61.1392232,68.0591109 59.2753009,66.268903 56.6847648,66.268903 L56.6847648,66.268903 Z M56.6847648,67.0376393 C58.8435449,67.0376393 60.2757112,68.6067039 60.2757112,71.2709544 L60.2757112,72.5662225 C60.2757112,75.2620649 58.8435449,76.757415 56.6952954,76.757415 C54.5049234,76.757415 53.0938184,75.2410037 53.0938184,72.5662225 L53.0938184,71.2709544 C53.0938184,68.5856426 54.5259847,67.0376393 56.6847648,67.0376393 L56.6847648,67.0376393 Z M64.2036379,77.3471306 L65.0566193,77.3471306 L65.0566193,70.6180551 C65.0566193,68.2381317 66.4256018,67.0797619 68.1420952,67.0797619 C68.637035,67.0797619 68.984546,67.1429457 69.1109136,67.1745376 L69.1109136,66.3531481 C68.9634847,66.3320868 68.6580963,66.2794336 68.2158096,66.2794336 C66.2044584,66.2794336 65.3198851,67.5220485 65.0987418,68.459275 L65.0566193,68.459275 L65.0566193,66.4479238 L64.2036379,66.4479238 L64.2036379,77.3471306 Z M74.7658643,66.2583724 C72.4596554,66.2583724 70.5852024,67.8906207 70.5852024,70.9129128 L70.5852024,72.8926721 C70.5852024,75.7148822 72.2806346,77.536682 74.7448031,77.536682 C77.1457877,77.536682 78.146198,75.893903 78.3252188,75.2199424 L78.3673414,75.2199424 L78.3673414,77.3471306 L79.1887309,77.3471306 L79.1887309,62.23567 L78.3462801,62.23567 L78.3462801,68.5119282 L78.3041575,68.5119282 C78.0198304,67.6484161 76.9983589,66.2583724 74.7658643,66.2583724 L74.7658643,66.2583724 Z M74.8185175,67.04817 C76.9878282,67.04817 78.3462801,68.7857247 78.3462801,71.081403 L78.3462801,72.7452433 C78.3462801,74.8934927 77.0931346,76.757415 74.8290481,76.757415 C72.8703501,76.757415 71.4381838,75.2620649 71.4381838,72.724182 L71.4381838,71.1129949 C71.4381838,68.3960912 72.9861871,67.04817 74.8185175,67.04817 L74.8185175,67.04817 Z" id="per-word" fill="#222222" sketch:type="MSShapeGroup"></path>
            <path d="M63.3916016,57.7070312 L63.3916016,38.4775391 L62.2871094,38.4775391 C61.9189453,38.6616211 57.7700195,41.3803711 57.4160156,41.6352539 L57.4160156,42.8530273 C57.7416992,42.6264648 61.9472656,39.9077148 62.1879883,39.7802734 L62.2446289,39.7802734 L62.2446289,57.7070312 L63.3916016,57.7070312 Z M80.3413086,42.9946289 C80.0864258,40.7290039 78.1606445,38.2509766 74.9887695,38.2509766 C70.9956055,38.2509766 67.9086914,41.5078125 67.9086914,49.5366211 C67.9086914,55.5688477 70.7407227,58.1459961 74.4790039,58.1459961 C78.0615234,58.1459961 80.7944336,55.6538086 80.7944336,51.8022461 C80.7944336,47.7666016 77.5800781,45.4301758 74.6630859,45.4301758 C71.6044922,45.4301758 69.5512695,47.3276367 69.0273438,49.2675781 L68.9990234,49.2675781 C69.0415039,42.3007812 71.6469727,39.284668 74.9179688,39.284668 C77.6083984,39.284668 79.0244141,41.2670898 79.2084961,42.9946289 L80.3413086,42.9946289 Z M69.324707,51.519043 C69.324707,48.6870117 71.8452148,46.4780273 74.5214844,46.4780273 C77.0844727,46.4780273 79.6333008,48.5170898 79.6333008,51.9155273 C79.6333008,55.0166016 77.4243164,57.1123047 74.5073242,57.1123047 C71.5195312,57.1123047 69.324707,54.8466797 69.324707,51.519043 L69.324707,51.519043 Z" id="16" fill="#D0011B" sketch:type="MSShapeGroup"></path>
            <path d="M59.7716156,17.938987 L59.7716156,17.8965182 C59.7822328,16.314553 60.9713609,14.7750567 63.190359,14.7750567 C65.3881227,14.7750567 66.534782,16.2296153 66.534782,17.7691116 C66.534782,19.3829283 65.5686153,20.5189704 64.6873864,21.5382231 L58.9859416,28.0890452 L58.9859416,28.768547 L67.766379,28.768547 L67.766379,27.9934903 L60.185687,27.9934903 L60.185687,27.9722558 L65.2713333,22.1115528 C66.2799688,20.9436591 67.4372453,19.5952727 67.4372453,17.8009632 C67.4372453,15.7518406 65.9614523,14 63.2009762,14 C60.3237108,14 58.9116211,15.9960365 58.9116211,17.8965182 L58.9116211,17.938987 L59.7716156,17.938987 Z M71.2912946,17.938987 L71.2912946,17.8965182 C71.3019118,16.314553 72.4910399,14.7750567 74.710038,14.7750567 C76.9078017,14.7750567 78.054461,16.2296153 78.054461,17.7691116 C78.054461,19.3829283 77.0882943,20.5189704 76.2070654,21.5382231 L70.5056206,28.0890452 L70.5056206,28.768547 L79.286058,28.768547 L79.286058,27.9934903 L71.705366,27.9934903 L71.705366,27.9722558 L76.7910123,22.1115528 C77.7996478,20.9436591 78.9569243,19.5952727 78.9569243,17.8009632 C78.9569243,15.7518406 77.4811313,14 74.7206552,14 C71.8433898,14 70.4313001,15.9960365 70.4313001,17.8965182 L70.4313001,17.938987 L71.2912946,17.938987 Z" id="22" fill="#D0011B" sketch:type="MSShapeGroup"></path>
            <path d="M81.5,23.5166667 L57.5,23.5166667" id="Line" stroke="#D0011B" stroke-linecap="square" sketch:type="MSShapeGroup"></path>
        </g>
    </g>
</svg>