<?xml version="1.0" encoding="utf-8"?>
<!-- Generator: Adobe Illustrator 18.1.1, SVG Export Plug-In . SVG Version: 6.00 Build 0)  -->
<svg version="1.1" id="playstore-button" xmlns="http://www.w3.org/2000/svg" xmlns:xlink="http://www.w3.org/1999/xlink" x="0px"
	 y="0px" viewBox="0 0 288.1 94.2" enable-background="new 0 0 288.1 94.2" xml:space="preserve">
<g>
	<path d="M288.1,81.5c0,7-5.7,12.7-12.7,12.7H12.7C5.7,94.2,0,88.5,0,81.5V12.7C0,5.7,5.7,0,12.7,0h262.6c7,0,12.7,5.7,12.7,12.7
		V81.5z"/>
	<g id="PLAY_1_">
		<defs>
			<path id="SVGID_1_" d="M62.4,41.5l-13-7.5c0,0-23.7-13.7-25.1-14.5c-1.4-0.8-2.8-0.3-2.8,1.4c0,2.8,0,29.2,0,29.2s0,28.5,0,29.8
				c0,1.3,1,1.8,2.2,1.1c1.2-0.7,25.6-14.8,25.6-14.8l13-7.5c0,0,11-6.4,12.5-7.2c1.5-0.8,1.3-2,0.1-2.7
				C73.8,48.1,62.4,41.5,62.4,41.5z"/>
		</defs>
		<clipPath id="SVGID_2_">
			<use xlink:href="#SVGID_1_"  overflow="visible"/>
		</clipPath>
		<linearGradient id="SVGID_3_" gradientUnits="userSpaceOnUse" x1="37.6965" y1="18.1416" x2="37.6965" y2="81.9548">
			<stop  offset="0" style="stop-color:#257CB0"/>
			<stop  offset="0.2863" style="stop-color:#4A93B5"/>
			<stop  offset="0.767" style="stop-color:#78BCBB"/>
			<stop  offset="1" style="stop-color:#89CFBD"/>
		</linearGradient>
		<polygon clip-path="url(#SVGID_2_)" fill="url(#SVGID_3_)" points="21.6,18.1 21.6,50 21.6,82 53.8,50 		"/>
		<linearGradient id="SVGID_4_" gradientUnits="userSpaceOnUse" x1="21.6074" y1="33.979" x2="62.4286" y2="33.979">
			<stop  offset="0" style="stop-color:#52C1AD"/>
			<stop  offset="1" style="stop-color:#DEE89A"/>
		</linearGradient>
		<polygon clip-path="url(#SVGID_2_)" fill="url(#SVGID_4_)" points="62.4,41.5 49.4,34 21.6,17.9 21.6,18.1 53.8,50 		"/>
		<linearGradient id="SVGID_5_" gradientUnits="userSpaceOnUse" x1="42.0177" y1="50.0487" x2="42.0177" y2="82.1869">
			<stop  offset="0" style="stop-color:#EC413D"/>
			<stop  offset="0.1668" style="stop-color:#DA4452"/>
			<stop  offset="0.5748" style="stop-color:#B0487A"/>
			<stop  offset="0.8619" style="stop-color:#954A92"/>
			<stop  offset="1" style="stop-color:#8A4A9D"/>
		</linearGradient>
		<polygon clip-path="url(#SVGID_2_)" fill="url(#SVGID_5_)" points="21.6,82 21.6,82.2 49.4,66.1 62.4,58.6 53.8,50 		"/>
		<linearGradient id="SVGID_6_" gradientUnits="userSpaceOnUse" x1="65.5291" y1="41.4784" x2="65.5291" y2="58.6178">
			<stop  offset="0" style="stop-color:#F58879"/>
			<stop  offset="0.1194" style="stop-color:#F69079"/>
			<stop  offset="0.7128" style="stop-color:#FCB877"/>
			<stop  offset="1" style="stop-color:#FEC874"/>
		</linearGradient>
		<polygon clip-path="url(#SVGID_2_)" fill="url(#SVGID_6_)" points="62.4,41.5 53.8,50 62.4,58.6 77.3,50 		"/>
	</g>
	<g>
		<path fill="#F9F9F9" d="M224.2,62.5c-1.2,0-2.3-0.2-3.3-0.7c-1-0.4-1.8-1.1-2.5-2.1h-0.2c0.1,1.1,0.2,2.1,0.2,3.1v7.6h-2.8V43.6
			h2.3l0.4,2.5h0.1c0.7-1,1.6-1.7,2.5-2.2c1-0.5,2.1-0.7,3.3-0.7c2.5,0,4.4,0.8,5.7,2.5c1.3,1.7,2,4,2,7.1c0,3-0.7,5.4-2,7.1
			C228.5,61.7,226.6,62.5,224.2,62.5z M223.8,45.7c-1.9,0-3.3,0.5-4.1,1.6c-0.8,1-1.3,2.7-1.3,5v0.6c0,2.6,0.4,4.5,1.3,5.6
			c0.9,1.1,2.3,1.7,4.2,1.7c1.6,0,2.9-0.6,3.8-1.9c0.9-1.3,1.4-3.1,1.4-5.4c0-2.3-0.5-4.1-1.4-5.3C226.7,46.3,225.4,45.7,223.8,45.7
			z"/>
		<path fill="#F9F9F9" d="M238.4,62.2h-2.8V35.8h2.8V62.2z"/>
		<path fill="#F9F9F9" d="M254.6,62.2l-0.6-2.6h-0.1c-0.9,1.2-1.8,2-2.8,2.4c-0.9,0.4-2.1,0.6-3.4,0.6c-1.8,0-3.3-0.5-4.3-1.4
			c-1-0.9-1.6-2.3-1.6-4c0-3.7,3-5.7,9-5.9l3.2-0.1v-1.2c0-1.5-0.3-2.5-0.9-3.2c-0.6-0.7-1.6-1-3-1c-1.5,0-3.3,0.5-5.2,1.4l-0.9-2.2
			c0.9-0.5,1.9-0.9,3-1.2c1.1-0.3,2.2-0.4,3.3-0.4c2.2,0,3.9,0.5,4.9,1.5c1.1,1,1.6,2.6,1.6,4.7v12.7H254.6z M248.2,60.2
			c1.7,0,3.1-0.5,4.1-1.4c1-1,1.5-2.3,1.5-4v-1.7l-2.8,0.1c-2.2,0.1-3.8,0.4-4.8,1c-1,0.6-1.5,1.6-1.5,2.9c0,1,0.3,1.8,0.9,2.3
			C246.2,59.9,247.1,60.2,248.2,60.2z"/>
		<path fill="#F9F9F9" d="M258.3,43.6h3l4.1,10.6c0.9,2.4,1.4,4.2,1.7,5.2h0.1c0.1-0.6,0.5-1.6,0.9-3c0.5-1.4,2-5.7,4.6-12.9h3
			l-8,21.1c-0.8,2.1-1.7,3.6-2.8,4.4c-1.1,0.9-2.4,1.3-3.9,1.3c-0.9,0-1.7-0.1-2.5-0.3V68c0.6,0.1,1.3,0.2,2.1,0.2
			c1.9,0,3.3-1.1,4.1-3.3l1-2.6L258.3,43.6z"/>
	</g>
	<g>
		<path fill="#F9F9F9" d="M172.1,45.3c0.9,0.7,2.8,2.3,2.8,5.2c0,2.9-1.6,4.2-3.3,5.5c-0.5,0.5-1.1,1-1.1,1.9c0,0.9,0.6,1.3,1,1.7
			l1.4,1.1c1.7,1.4,3.3,2.8,3.3,5.4c0,3.6-3.5,7.3-10.2,7.3c-5.6,0-8.3-2.7-8.3-5.6c0-1.4,0.7-3.4,3-4.7c2.4-1.5,5.7-1.7,7.4-1.8
			c-0.5-0.7-1.2-1.4-1.2-2.6c0-0.7,0.2-1,0.4-1.5c-0.4,0-0.9,0.1-1.2,0.1c-4.1,0-6.4-3.1-6.4-6.1c0-1.8,0.8-3.8,2.5-5.2
			c2.2-1.8,4.9-2.1,7-2.1h8l-2.5,1.4H172.1z M169.4,62.6c-0.3,0-0.5,0-0.9,0c-0.3,0-2.4,0.1-4.1,0.6c-0.9,0.3-3.3,1.2-3.3,4
			c0,2.8,2.7,4.7,6.8,4.7c3.7,0,5.7-1.8,5.7-4.2C173.6,65.7,172.3,64.7,169.4,62.6z M170.5,55.2c0.9-0.9,1-2.1,1-2.8
			c0-2.8-1.7-7.1-4.9-7.1c-1,0-2.1,0.5-2.7,1.3c-0.7,0.8-0.9,1.9-0.9,2.9c0,2.6,1.5,6.9,4.9,6.9C168.8,56.3,169.9,55.8,170.5,55.2z"
			/>
		<path fill="#F9F9F9" d="M147.7,62c-6.2,0-9.5-4.8-9.5-9.1c0-5.1,4.1-9.4,10-9.4c5.7,0,9.3,4.5,9.3,9.1C157.5,57.1,154,62,147.7,62
			z M152.5,58.8c0.9-1.2,1.2-2.8,1.2-4.3c0-3.4-1.6-9.9-6.4-9.9c-1.3,0-2.6,0.5-3.5,1.3c-1.5,1.4-1.8,3.1-1.8,4.7
			c0,3.8,1.9,10.1,6.6,10.1C150.1,60.8,151.6,60.1,152.5,58.8z"/>
		<path fill="#F9F9F9" d="M126.7,62c-6.2,0-9.5-4.8-9.5-9.1c0-5.1,4.1-9.4,10-9.4c5.7,0,9.3,4.5,9.3,9.1C136.5,57.1,133,62,126.7,62
			z M131.5,58.8c0.9-1.2,1.2-2.8,1.2-4.3c0-3.4-1.6-9.9-6.4-9.9c-1.3,0-2.6,0.5-3.5,1.3c-1.5,1.4-1.8,3.1-1.8,4.7
			c0,3.8,1.9,10.1,6.6,10.1C129.1,60.8,130.6,60.1,131.5,58.8z"/>
		<path fill="#F9F9F9" d="M114.3,61.4l-5.6,1.3c-2.3,0.4-4.3,0.7-6.4,0.7c-10.8,0-14.8-7.9-14.8-14.1c0-7.6,5.8-14.6,15.7-14.6
			c2.1,0,4.1,0.3,6,0.8c2.9,0.8,4.3,1.8,5.1,2.4l-3.2,3.1l-1.4,0.3l1-1.6c-1.3-1.3-3.7-3.7-8.3-3.7c-6.2,0-10.8,4.7-10.8,11.5
			c0,7.3,5.3,14.2,13.8,14.2c2.5,0,3.8-0.5,4.9-1v-6.3l-5.9,0.3l3.1-1.7h8.3l-1,1c-0.3,0.2-0.3,0.3-0.4,0.6c0,0.4-0.1,1.5-0.1,1.9
			V61.4z"/>
		<path fill="#F9F9F9" d="M184.4,60.2c-1.3-0.1-1.6-0.3-1.6-1.9v-0.4V36.3c0-0.1,0-0.2,0-0.3c0.2-1.4,0.5-1.6,1.8-2.3h-5.6l-2.9,1.4
			h3v0l0,0v22.8v1.3c0,0.8-0.2,0.9-1.1,2.1h6.9l1.4-0.9C185.8,60.4,185.1,60.3,184.4,60.2z"/>
		<path fill="#F9F9F9" d="M200.3,60.6c-0.4,0.2-0.8,0.5-1.3,0.7c-1.3,0.6-2.6,0.7-3.8,0.7c-1.2,0-3.2-0.1-5.1-1.5
			c-2.7-1.9-3.9-5.3-3.9-8.2c0-6,4.9-8.9,8.9-8.9c1.4,0,2.8,0.3,4,1.1c1.9,1.3,2.4,2.9,2.7,3.8l-9.1,3.7l-3,0.2c1,4.9,4.3,7.8,8,7.8
			c2,0,3.4-0.7,4.7-1.4L200.3,60.6z M196.7,49.1c0.7-0.3,1.1-0.5,1.1-1c0-1.5-1.7-3.3-3.8-3.3c-1.5,0-4.4,1.2-4.4,5.4
			c0,0.7,0.1,1.4,0.1,2.1L196.7,49.1z"/>
		<g>
			<path fill="#F9F9F9" d="M204,43.7v2.6h-0.3v-2.6h-0.8v-0.3h2v0.3H204z"/>
			<path fill="#F9F9F9" d="M207.5,46.2v-2.6h0l-0.8,2.6h-0.2l-0.8-2.6h0v2.6h-0.3v-2.8h0.5l0.7,2.3h0l0.7-2.3h0.5v2.8H207.5z"/>
		</g>
	</g>
	<g>
		<path fill="#F9F9FA" d="M95.2,27h-1.9c0-0.3-0.2-1-0.6-2.3h-2.8c-0.4,1.2-0.6,2-0.6,2.3h-1.8c0-0.2,0.5-1.4,1.4-3.9
			c0.9-2.4,1.4-3.8,1.4-4h2.3c0,0.2,0.4,1.5,1.3,3.9C94.7,25.5,95.2,26.8,95.2,27z M92.4,23.6c-0.7-2.1-1-3.2-1-3.4h-0.1
			c0,0.2-0.4,1.3-1.1,3.4H92.4z"/>
		<path fill="#F9F9FA" d="M103,27h-1.5c0-0.2-0.6-1-1.7-2.6c-1.2-1.7-1.8-2.8-2-3.4h-0.1c0.1,0.9,0.2,1.7,0.2,2.4c0,1,0,2.2,0.1,3.6
			h-1.5c0.1-1.3,0.1-2.6,0.1-4.1c0-1.5,0-2.7-0.1-3.8h1.8c0,0.2,0.5,1.1,1.5,2.6c1.1,1.6,1.7,2.7,1.8,3.2h0.1
			c-0.1-0.9-0.1-1.7-0.1-2.4c0-1.1,0-2.2-0.1-3.4h1.5c-0.1,1-0.1,2.3-0.1,3.8C102.9,24.4,102.9,25.8,103,27z"/>
		<path fill="#F9F9FA" d="M111.7,22.8c0,1.1-0.4,2.1-1.1,3c-0.7,0.9-1.8,1.3-3.1,1.3c-0.6,0-1.4,0-2.5-0.1c0.1-1.2,0.1-2.6,0.1-4.1
			c0-1.5,0-2.7-0.1-3.8h1.1c0.2,0,0.4,0,0.8,0c0.3,0,0.6,0,0.7,0c1.5,0,2.5,0.4,3.2,1.1C111.4,20.9,111.7,21.8,111.7,22.8z
			 M110.1,23.1c0-0.8-0.2-1.4-0.7-2c-0.5-0.5-1.1-0.8-2.1-0.8c-0.2,0-0.4,0-0.7,0.1c0,0.8,0.1,1.6,0.1,2.5c0,1,0,1.9,0.1,2.9
			c0.3,0.1,0.5,0.1,0.8,0.1c0.9,0,1.5-0.3,1.9-0.8C109.9,24.5,110.1,23.9,110.1,23.1z"/>
		<path fill="#F9F9FA" d="M119.8,27H118c-0.5-1.4-0.8-2.3-1.1-2.6c-0.3-0.3-0.7-0.5-1.2-0.5c-0.2,0-0.5,0-0.7,0c0,1,0,2.1,0.1,3.1
			h-1.7c0.1-1.2,0.1-2.6,0.1-4.1c0-1.5,0-2.7-0.1-3.8h1c0.1,0,0.4,0,0.8,0c0.4,0,0.7,0,1.1,0c1.9,0,2.8,0.6,2.8,1.9
			c0,1-0.5,1.7-1.6,2.1v0.1c0.4,0.1,0.8,0.4,1.1,1C118.9,24.7,119.3,25.7,119.8,27z M117.5,21.5c0-0.8-0.5-1.2-1.5-1.2
			c-0.4,0-0.7,0-1,0.1c0,0.6,0.1,1.4,0.1,2.4c0.2,0,0.4,0,0.6,0C116.9,22.8,117.5,22.4,117.5,21.5z"/>
		<path fill="#F9F9FA" d="M128.5,23c0,1.2-0.4,2.3-1.1,3.1c-0.8,0.8-1.7,1.2-2.8,1.2c-1.1,0-2-0.4-2.7-1.1c-0.7-0.7-1.1-1.7-1.1-2.9
			c0-1.2,0.4-2.3,1.1-3.1c0.8-0.8,1.7-1.2,2.8-1.2c1.1,0,2,0.4,2.7,1.1C128.1,20.8,128.5,21.8,128.5,23z M126.8,23.1
			c0-0.8-0.2-1.5-0.6-2.1c-0.4-0.5-1-0.8-1.6-0.8c-0.6,0-1.1,0.3-1.5,0.8c-0.4,0.5-0.6,1.2-0.6,2c0,0.8,0.2,1.5,0.7,2
			c0.4,0.5,1,0.8,1.6,0.8c0.6,0,1.1-0.3,1.5-0.8C126.6,24.6,126.8,23.9,126.8,23.1z"/>
		<path fill="#F9F9FA" d="M131.9,27h-1.7c0.1-1.3,0.1-2.6,0.1-4.1c0-1.5,0-2.7-0.1-3.8h1.7c-0.1,1-0.1,2.3-0.1,3.8
			C131.8,24.4,131.9,25.8,131.9,27z"/>
		<path fill="#F9F9FA" d="M140.7,22.8c0,1.1-0.4,2.1-1.1,3c-0.7,0.9-1.8,1.3-3.1,1.3c-0.6,0-1.4,0-2.5-0.1c0.1-1.2,0.1-2.6,0.1-4.1
			c0-1.5,0-2.7-0.1-3.8h1.1c0.2,0,0.4,0,0.8,0c0.3,0,0.6,0,0.7,0c1.5,0,2.5,0.4,3.2,1.1C140.3,20.9,140.7,21.8,140.7,22.8z
			 M139,23.1c0-0.8-0.2-1.4-0.7-2c-0.5-0.5-1.1-0.8-2.1-0.8c-0.2,0-0.4,0-0.7,0.1c0,0.8,0.1,1.6,0.1,2.5c0,1,0,1.9,0.1,2.9
			c0.3,0.1,0.5,0.1,0.8,0.1c0.9,0,1.5-0.3,1.9-0.8C138.8,24.5,139,23.9,139,23.1z"/>
		<path fill="#F9F9FA" d="M152.3,27h-1.9c0-0.3-0.2-1-0.6-2.3H147c-0.4,1.2-0.6,2-0.6,2.3h-1.8c0-0.2,0.5-1.4,1.4-3.9
			c0.9-2.4,1.4-3.8,1.4-4h2.3c0,0.2,0.4,1.5,1.3,3.9C151.9,25.5,152.3,26.8,152.3,27z M149.5,23.6c-0.7-2.1-1-3.2-1-3.4h-0.1
			c0,0.2-0.4,1.3-1.1,3.4H149.5z"/>
		<path fill="#F9F9FA" d="M159.4,21.2c0,1-0.4,1.7-1.1,2.1c-0.7,0.5-1.6,0.7-2.6,0.7c-0.2,0-0.3,0-0.4,0c0,0.8,0,1.8,0.1,3h-1.7
			c0.1-1.2,0.1-2.5,0.1-4.1c0-1.5,0-2.7-0.1-3.8h1.1c0.1,0,0.4,0,0.9,0c0.4,0,0.8,0,1.1,0c0.8,0,1.4,0.2,1.9,0.5
			C159.1,20,159.4,20.5,159.4,21.2z M157.8,21.6c0-0.9-0.6-1.3-1.7-1.3c-0.3,0-0.6,0-0.9,0.1c0,0.8,0.1,1.6,0.1,2.6
			c0.1,0,0.2,0,0.4,0C157.1,23,157.8,22.5,157.8,21.6z"/>
		<path fill="#F9F9FA" d="M166.6,21.2c0,1-0.4,1.7-1.1,2.1c-0.7,0.5-1.6,0.7-2.6,0.7c-0.2,0-0.3,0-0.4,0c0,0.8,0,1.8,0.1,3h-1.7
			c0.1-1.2,0.1-2.5,0.1-4.1c0-1.5,0-2.7-0.1-3.8h1.1c0.1,0,0.4,0,0.9,0c0.4,0,0.8,0,1.1,0c0.8,0,1.4,0.2,1.9,0.5
			C166.4,20,166.6,20.5,166.6,21.2z M165.1,21.6c0-0.9-0.6-1.3-1.7-1.3c-0.3,0-0.6,0-0.9,0.1c0,0.8,0.1,1.6,0.1,2.6
			c0.1,0,0.2,0,0.4,0C164.3,23,165.1,22.5,165.1,21.6z"/>
		<path fill="#F9F9FA" d="M178.5,23c0,1.2-0.4,2.3-1.1,3.1c-0.8,0.8-1.7,1.2-2.8,1.2c-1.1,0-2-0.4-2.7-1.1c-0.7-0.7-1.1-1.7-1.1-2.9
			c0-1.2,0.4-2.3,1.1-3.1c0.8-0.8,1.7-1.2,2.8-1.2c1.1,0,2,0.4,2.7,1.1C178.1,20.8,178.5,21.8,178.5,23z M176.8,23.1
			c0-0.8-0.2-1.5-0.6-2.1c-0.4-0.5-1-0.8-1.6-0.8c-0.6,0-1.1,0.3-1.5,0.8c-0.4,0.5-0.6,1.2-0.6,2c0,0.8,0.2,1.5,0.7,2
			c0.4,0.5,1,0.8,1.6,0.8c0.6,0,1.1-0.3,1.5-0.8C176.6,24.6,176.8,23.9,176.8,23.1z"/>
		<path fill="#F9F9FA" d="M186.7,27h-1.5c0-0.2-0.6-1-1.7-2.6c-1.2-1.7-1.8-2.8-2-3.4h-0.1c0.1,0.9,0.2,1.7,0.2,2.4
			c0,1,0,2.2,0.1,3.6h-1.5c0.1-1.3,0.1-2.6,0.1-4.1c0-1.5,0-2.7-0.1-3.8h1.8c0,0.2,0.5,1.1,1.5,2.6c1.1,1.6,1.7,2.7,1.8,3.2h0.1
			c-0.1-0.9-0.1-1.7-0.1-2.4c0-1.1,0-2.2-0.1-3.4h1.5c-0.1,1-0.1,2.3-0.1,3.8C186.6,24.4,186.6,25.8,186.7,27z"/>
	</g>
</g>
</svg>
