<?xml version="1.0" encoding="UTF-8" standalone="no"?>
<svg width="289px" height="95px" viewBox="0 0 289 95" version="1.1" xmlns="http://www.w3.org/2000/svg" xmlns:xlink="http://www.w3.org/1999/xlink" xmlns:sketch="http://www.bohemiancoding.com/sketch/ns">
    <!-- Generator: Sketch 3.3.2 (12043) - http://www.bohemiancoding.com/sketch -->
    <title>playstore-button</title>
    <desc>Created with Sketch.</desc>
    <defs></defs>
    <g id="Page-1" stroke="none" stroke-width="1" fill="none" fill-rule="evenodd" sketch:type="MSPage">
        <g id="playstore-button" sketch:type="MSLayerGroup">
            <g id="Group" fill="#000000" sketch:type="MSShapeGroup">
                <path d="M288.1,81.5 C288.1,88.5 282.4,94.2 275.4,94.2 L12.7,94.2 C5.7,94.2 0,88.5 0,81.5 L0,12.7 C0,5.7 5.7,0 12.7,0 L275.3,0 C282.3,0 288,5.7 288,12.7 L288,81.5 L288.1,81.5 Z" id="Shape"></path>
            </g>
            <path d="M47.487,37.52 C47.0469978,36.9479971 46.425504,36.4695019 45.6225,36.0845 C44.819496,35.6994981 44.0110041,35.507 43.197,35.507 C42.7129976,35.507 42.2290024,35.5674994 41.745,35.6885 C41.2609976,35.8095006 40.821002,35.9964987 40.425,36.2495 C40.028998,36.5025013 39.7045013,36.832498 39.4515,37.2395 C39.1984987,37.646502 39.072,38.1359971 39.072,38.708 C39.072,39.2360026 39.1819989,39.6869981 39.402,40.061 C39.6220011,40.4350019 39.9244981,40.7539987 40.3095,41.018 C40.6945019,41.2820013 41.1619972,41.512999 41.712,41.711 C42.2620028,41.909001 42.8669967,42.106999 43.527,42.305 C44.2750037,42.5470012 45.050496,42.8219985 45.8535,43.13 C46.656504,43.4380015 47.3934966,43.8449975 48.0645,44.351 C48.7355034,44.8570025 49.2854979,45.4949961 49.7145,46.265 C50.1435021,47.0350039 50.358,47.9919943 50.358,49.136 C50.358,50.3900063 50.1270023,51.4844953 49.665,52.4195 C49.2029977,53.3545047 48.5870039,54.1299969 47.817,54.746 C47.0469961,55.3620031 46.1450052,55.8239985 45.111,56.132 C44.0769948,56.4400015 42.9880057,56.594 41.844,56.594 C40.3259924,56.594 38.8410073,56.3135028 37.389,55.7525 C35.9369927,55.1914972 34.7490046,54.3610055 33.825,53.261 L36.795,50.489 C37.3670029,51.281004 38.1314952,51.9079977 39.0885,52.37 C40.0455048,52.8320023 40.9859954,53.063 41.91,53.063 C42.3940024,53.063 42.8889975,53.0025006 43.395,52.8815 C43.9010025,52.7604994 44.357498,52.5570014 44.7645,52.271 C45.171502,51.9849986 45.5014987,51.6275021 45.7545,51.1985 C46.0075013,50.7694979 46.134,50.2360032 46.134,49.598 C46.134,48.9819969 45.9910014,48.470502 45.705,48.0635 C45.4189986,47.656498 45.0340024,47.3045015 44.55,47.0075 C44.0659976,46.7104985 43.4940033,46.4520011 42.834,46.232 C42.1739967,46.0119989 41.4810036,45.7810012 40.755,45.539 C40.0509965,45.3189989 39.3470035,45.0550015 38.643,44.747 C37.9389965,44.4389985 37.3065028,44.0320025 36.7455,43.526 C36.1844972,43.0199975 35.7280018,42.3985037 35.376,41.6615 C35.0239982,40.9244963 34.848,40.0060055 34.848,38.906 C34.848,37.7179941 35.0954975,36.6950043 35.5905,35.837 C36.0855025,34.9789957 36.734496,34.2695028 37.5375,33.7085 C38.340504,33.1474972 39.2534949,32.7295014 40.2765,32.4545 C41.2995051,32.1794986 42.3389947,32.042 43.395,32.042 C44.5830059,32.042 45.7874939,32.2509979 47.0085,32.669 C48.2295061,33.0870021 49.2909955,33.7139958 50.193,34.55 L47.487,37.52 Z M52.443,43.328 L52.443,40.16 L55.215,40.16 L55.215,35.573 L59.109,35.573 L59.109,40.16 L63.069,40.16 L63.069,43.328 L59.109,43.328 L59.109,50.687 C59.109,51.3910035 59.2354988,51.9739977 59.4885,52.436 C59.7415013,52.8980023 60.3079956,53.129 61.188,53.129 C61.4520013,53.129 61.7379985,53.1015003 62.046,53.0465 C62.3540016,52.9914997 62.6289988,52.9090006 62.871,52.799 L63.003,55.901 C62.6509983,56.0330007 62.2330024,56.1374996 61.749,56.2145 C61.2649976,56.2915004 60.8030022,56.33 60.363,56.33 C59.3069947,56.33 58.4490033,56.1815015 57.789,55.8845 C57.1289967,55.5874985 56.6065019,55.1805026 56.2215,54.6635 C55.8364981,54.1464974 55.5725007,53.5525034 55.4295,52.8815 C55.2864993,52.2104966 55.215,51.4900039 55.215,50.72 L55.215,43.328 L52.443,43.328 Z M76.374,53.987 L76.275,53.987 C75.8789981,54.6910035 75.2410044,55.2684977 74.361,55.7195 C73.4809956,56.1705023 72.4800057,56.396 71.358,56.396 C70.7199969,56.396 70.0545035,56.3135008 69.3615,56.1485 C68.6684966,55.9834992 68.030503,55.7085019 67.4475,55.3235 C66.8644971,54.9384981 66.380502,54.4325031 65.9955,53.8055 C65.6104981,53.1784969 65.418,52.4030046 65.418,51.479 C65.418,50.2909941 65.7534967,49.3450035 66.4245,48.641 C67.0955034,47.9369965 67.9589948,47.3980019 69.015,47.024 C70.0710053,46.6499981 71.2424936,46.4025006 72.5295,46.2815 C73.8165065,46.1604994 75.0759939,46.1 76.308,46.1 L76.308,45.704 C76.308,44.7139951 75.9505036,43.9825024 75.2355,43.5095 C74.5204965,43.0364976 73.668005,42.8 72.678,42.8 C71.8419959,42.8 71.0390039,42.9759982 70.269,43.328 C69.4989962,43.6800018 68.8610026,44.1089975 68.355,44.615 L66.309,42.206 C67.2110046,41.3699958 68.2504942,40.7430021 69.4275,40.325 C70.6045059,39.9069979 71.797994,39.698 73.008,39.698 C74.4160071,39.698 75.5764955,39.895998 76.4895,40.292 C77.4025046,40.688002 78.1229974,41.2049968 78.651,41.843 C79.1790027,42.4810032 79.547499,43.195996 79.7565,43.988 C79.9655011,44.780004 80.07,45.571996 80.07,46.364 L80.07,56 L76.374,56 L76.374,53.987 Z M76.308,48.773 L75.417,48.773 C74.7789969,48.773 74.1080036,48.8004997 73.404,48.8555 C72.6999965,48.9105003 72.051003,49.0314991 71.457,49.2185 C70.8629971,49.4055009 70.368002,49.6694983 69.972,50.0105 C69.5759981,50.3515017 69.378,50.818997 69.378,51.413 C69.378,51.7870019 69.4604992,52.1004987 69.6255,52.3535 C69.7905009,52.6065013 70.0049987,52.8099992 70.269,52.964 C70.5330014,53.1180008 70.8299984,53.2279997 71.16,53.294 C71.4900017,53.3600003 71.8199984,53.393 72.15,53.393 C73.5140069,53.393 74.5479965,53.0300036 75.252,52.304 C75.9560036,51.5779964 76.308,50.5880063 76.308,49.334 L76.308,48.773 Z M85.2900001,40.16 L89.0850001,40.16 L89.0850001,42.8 L89.1510001,42.8 C89.5910023,41.8759954 90.2069961,41.1280029 90.9990001,40.556 C91.791004,39.9839971 92.7149948,39.698 93.7710001,39.698 C93.9250008,39.698 94.0899992,39.7034999 94.2660001,39.7145 C94.442001,39.7255001 94.5959994,39.7529998 94.7280001,39.797 L94.7280001,43.427 C94.4639988,43.3609997 94.238501,43.3170001 94.0515001,43.295 C93.8644991,43.2729999 93.683001,43.262 93.5070001,43.262 C92.6049956,43.262 91.8790028,43.4269983 91.3290001,43.757 C90.7789973,44.0870016 90.3500016,44.4829977 90.0420001,44.945 C89.7339985,45.4070023 89.5250006,45.8799976 89.4150001,46.364 C89.3049995,46.8480024 89.2500001,47.2329986 89.2500001,47.519 L89.2500001,56 L85.2900001,56 L85.2900001,40.16 Z M95.2290001,43.328 L95.2290001,40.16 L98.0010001,40.16 L98.0010001,35.573 L101.895,35.573 L101.895,40.16 L105.855,40.16 L105.855,43.328 L101.895,43.328 L101.895,50.687 C101.895,51.3910035 102.021499,51.9739977 102.2745,52.436 C102.527501,52.8980023 103.093996,53.129 103.974,53.129 C104.238001,53.129 104.523999,53.1015003 104.832,53.0465 C105.140002,52.9914997 105.414999,52.9090006 105.657,52.799 L105.789,55.901 C105.436998,56.0330007 105.019003,56.1374996 104.535,56.2145 C104.050998,56.2915004 103.589002,56.33 103.149,56.33 C102.092995,56.33 101.235003,56.1815015 100.575,55.8845 C99.9149968,55.5874985 99.392502,55.1805026 99.0075001,54.6635 C98.6224982,54.1464974 98.3585008,53.5525034 98.2155001,52.8815 C98.0724994,52.2104966 98.0010001,51.4900039 98.0010001,50.72 L98.0010001,43.328 L95.2290001,43.328 Z M128.01,53.987 L127.911,53.987 C127.514998,54.6910035 126.877005,55.2684977 125.997,55.7195 C125.116996,56.1705023 124.116006,56.396 122.994,56.396 C122.355997,56.396 121.690504,56.3135008 120.9975,56.1485 C120.304497,55.9834992 119.666503,55.7085019 119.0835,55.3235 C118.500497,54.9384981 118.016502,54.4325031 117.6315,53.8055 C117.246498,53.1784969 117.054,52.4030046 117.054,51.479 C117.054,50.2909941 117.389497,49.3450035 118.0605,48.641 C118.731503,47.9369965 119.594995,47.3980019 120.651,47.024 C121.707005,46.6499981 122.878494,46.4025006 124.1655,46.2815 C125.452507,46.1604994 126.711994,46.1 127.944,46.1 L127.944,45.704 C127.944,44.7139951 127.586504,43.9825024 126.8715,43.5095 C126.156497,43.0364976 125.304005,42.8 124.314,42.8 C123.477996,42.8 122.675004,42.9759982 121.905,43.328 C121.134996,43.6800018 120.497003,44.1089975 119.991,44.615 L117.945,42.206 C118.847005,41.3699958 119.886494,40.7430021 121.0635,40.325 C122.240506,39.9069979 123.433994,39.698 124.644,39.698 C126.052007,39.698 127.212496,39.895998 128.1255,40.292 C129.038505,40.688002 129.758998,41.2049968 130.287,41.843 C130.815003,42.4810032 131.183499,43.195996 131.3925,43.988 C131.601501,44.780004 131.706,45.571996 131.706,46.364 L131.706,56 L128.01,56 L128.01,53.987 Z M127.944,48.773 L127.053,48.773 C126.414997,48.773 125.744004,48.8004997 125.04,48.8555 C124.335997,48.9105003 123.687003,49.0314991 123.093,49.2185 C122.498997,49.4055009 122.004002,49.6694983 121.608,50.0105 C121.211998,50.3515017 121.014,50.818997 121.014,51.413 C121.014,51.7870019 121.096499,52.1004987 121.2615,52.3535 C121.426501,52.6065013 121.640999,52.8099992 121.905,52.964 C122.169001,53.1180008 122.465998,53.2279997 122.796,53.294 C123.126002,53.3600003 123.455998,53.393 123.786,53.393 C125.150007,53.393 126.183997,53.0300036 126.888,52.304 C127.592004,51.5779964 127.944,50.5880063 127.944,49.334 L127.944,48.773 Z M149.571,40.16 L149.571,42.371 L149.67,42.371 C149.868001,42.0629985 150.126499,41.7495016 150.4455,41.4305 C150.764502,41.1114984 151.154998,40.8255013 151.617,40.5725 C152.079003,40.3194987 152.601497,40.1105008 153.1845,39.9455 C153.767503,39.7804992 154.421997,39.698 155.148,39.698 C156.270006,39.698 157.303995,39.9124979 158.25,40.3415 C159.196005,40.7705021 160.009997,41.3589963 160.692,42.107 C161.374004,42.8550037 161.901998,43.7349949 162.276,44.747 C162.650002,45.7590051 162.837,46.8479942 162.837,48.014 C162.837,49.1800058 162.655502,50.2744949 162.2925,51.2975 C161.929498,52.3205051 161.412504,53.2114962 160.7415,53.9705 C160.070497,54.7295038 159.256505,55.3344977 158.2995,55.7855 C157.342495,56.2365023 156.259006,56.462 155.049,56.462 C153.926995,56.462 152.898505,56.2310023 151.9635,55.769 C151.028496,55.3069977 150.308003,54.680004 149.802,53.888 L149.736,53.888 L149.736,63.92 L145.776,63.92 L145.776,40.16 L149.571,40.16 Z M158.811,48.014 C158.811,47.3979969 158.717501,46.787503 158.5305,46.1825 C158.343499,45.577497 158.063002,45.0330024 157.689,44.549 C157.314998,44.0649976 156.842003,43.6745015 156.27,43.3775 C155.697997,43.0804985 155.027004,42.932 154.257,42.932 C153.530997,42.932 152.882003,43.0859985 152.31,43.394 C151.737997,43.7020015 151.248502,44.0979976 150.8415,44.582 C150.434498,45.0660024 150.126501,45.6159969 149.9175,46.232 C149.708499,46.8480031 149.604,47.4639969 149.604,48.08 C149.604,48.6960031 149.708499,49.306497 149.9175,49.9115 C150.126501,50.516503 150.434498,51.0609976 150.8415,51.545 C151.248502,52.0290024 151.737997,52.4194985 152.31,52.7165 C152.882003,53.0135015 153.530997,53.162 154.257,53.162 C155.027004,53.162 155.697997,53.0080015 156.27,52.7 C156.842003,52.3919985 157.314998,51.9960024 157.689,51.512 C158.063002,51.0279976 158.343499,50.4780031 158.5305,49.862 C158.717501,49.2459969 158.811,48.6300031 158.811,48.014 L158.811,48.014 Z M167.265,40.16 L171.06,40.16 L171.06,42.8 L171.126,42.8 C171.566002,41.8759954 172.181996,41.1280029 172.974,40.556 C173.766004,39.9839971 174.689995,39.698 175.746,39.698 C175.900001,39.698 176.064999,39.7034999 176.241,39.7145 C176.417001,39.7255001 176.571,39.7529998 176.703,39.797 L176.703,43.427 C176.438999,43.3609997 176.213501,43.3170001 176.0265,43.295 C175.839499,43.2729999 175.658001,43.262 175.482,43.262 C174.579996,43.262 173.854003,43.4269983 173.304,43.757 C172.753997,44.0870016 172.325002,44.4829977 172.017,44.945 C171.708999,45.4070023 171.500001,45.8799976 171.39,46.364 C171.28,46.8480024 171.225,47.2329986 171.225,47.519 L171.225,56 L167.265,56 L167.265,40.16 Z M178.359,48.014 C178.359,46.7599937 178.584498,45.6215051 179.0355,44.5985 C179.486502,43.5754949 180.096996,42.7010036 180.867,41.975 C181.637004,41.2489964 182.549995,40.688002 183.606,40.292 C184.662006,39.895998 185.783994,39.698 186.972,39.698 C188.160006,39.698 189.281995,39.895998 190.338,40.292 C191.394006,40.688002 192.306996,41.2489964 193.077,41.975 C193.847004,42.7010036 194.457498,43.5754949 194.9085,44.5985 C195.359502,45.6215051 195.585,46.7599937 195.585,48.014 C195.585,49.2680063 195.359502,50.4119948 194.9085,51.446 C194.457498,52.4800052 193.847004,53.3654963 193.077,54.1025 C192.306996,54.8395037 191.394006,55.4169979 190.338,55.835 C189.281995,56.2530021 188.160006,56.462 186.972,56.462 C185.783994,56.462 184.662006,56.2530021 183.606,55.835 C182.549995,55.4169979 181.637004,54.8395037 180.867,54.1025 C180.096996,53.3654963 179.486502,52.4800052 179.0355,51.446 C178.584498,50.4119948 178.359,49.2680063 178.359,48.014 L178.359,48.014 Z M182.385,48.014 C182.385,48.6300031 182.478499,49.2459969 182.6655,49.862 C182.852501,50.4780031 183.132998,51.0279976 183.507,51.512 C183.881002,51.9960024 184.353997,52.3919985 184.926,52.7 C185.498003,53.0080015 186.179996,53.162 186.972,53.162 C187.764004,53.162 188.445997,53.0080015 189.018,52.7 C189.590003,52.3919985 190.062998,51.9960024 190.437,51.512 C190.811002,51.0279976 191.091499,50.4780031 191.2785,49.862 C191.465501,49.2459969 191.559,48.6300031 191.559,48.014 C191.559,47.3979969 191.465501,46.787503 191.2785,46.1825 C191.091499,45.577497 190.811002,45.0330024 190.437,44.549 C190.062998,44.0649976 189.590003,43.6745015 189.018,43.3775 C188.445997,43.0804985 187.764004,42.932 186.972,42.932 C186.179996,42.932 185.498003,43.0804985 184.926,43.3775 C184.353997,43.6745015 183.881002,44.0649976 183.507,44.549 C183.132998,45.0330024 182.852501,45.577497 182.6655,46.1825 C182.478499,46.787503 182.385,47.3979969 182.385,48.014 L182.385,48.014 Z M204.039,40.16 L204.039,56.957 C204.039,57.9030047 203.962001,58.7994958 203.808,59.6465 C203.653999,60.4935042 203.362502,61.2304969 202.9335,61.8575 C202.504498,62.4845031 201.921504,62.9849981 201.1845,63.359 C200.447497,63.7330019 199.485006,63.92 198.297,63.92 C197.966999,63.92 197.637002,63.8980002 197.307,63.854 C196.976999,63.8099998 196.713001,63.7660002 196.515,63.722 L196.845,60.356 C197.021001,60.4000002 197.207999,60.4329999 197.406,60.455 C197.604001,60.4770001 197.779999,60.488 197.934,60.488 C198.396003,60.488 198.769999,60.4000009 199.056,60.224 C199.342002,60.0479991 199.561999,59.8060015 199.716,59.498 C199.870001,59.1899985 199.969,58.832502 200.013,58.4255 C200.057,58.018498 200.079,57.5840023 200.079,57.122 L200.079,40.16 L204.039,40.16 Z M199.518,34.781 C199.518,34.1429968 199.754498,33.5875024 200.2275,33.1145 C200.700503,32.6414976 201.299997,32.405 202.026,32.405 C202.752004,32.405 203.362498,32.6304977 203.8575,33.0815 C204.352503,33.5325023 204.6,34.0989966 204.6,34.781 C204.6,35.4630034 204.352503,36.0294977 203.8575,36.4805 C203.362498,36.9315023 202.752004,37.157 202.026,37.157 C201.299997,37.157 200.700503,36.9205024 200.2275,36.4475 C199.754498,35.9744976 199.518,35.4190032 199.518,34.781 L199.518,34.781 Z M220.611,46.496 C220.611,45.9899975 220.539501,45.5060023 220.3965,45.044 C220.2535,44.5819977 220.028002,44.1750018 219.72,43.823 C219.411999,43.4709982 219.021503,43.190501 218.5485,42.9815 C218.075498,42.772499 217.520003,42.668 216.882,42.668 C215.693994,42.668 214.687504,43.0254964 213.8625,43.7405 C213.037496,44.4555036 212.581001,45.3739944 212.493,46.496 L220.611,46.496 Z M224.571,48.278 L224.571,48.806 C224.571,48.9820009 224.56,49.1579991 224.538,49.334 L212.493,49.334 C212.537001,49.9060029 212.685499,50.4284976 212.9385,50.9015 C213.191502,51.3745024 213.526998,51.7814983 213.945,52.1225 C214.363002,52.4635017 214.835998,52.732999 215.364,52.931 C215.892003,53.129001 216.441997,53.228 217.014,53.228 C218.004005,53.228 218.839997,53.0465018 219.522,52.6835 C220.204004,52.3204982 220.764998,51.8200032 221.205,51.182 L223.845,53.294 C222.282992,55.4060106 220.017015,56.462 217.047,56.462 C215.814994,56.462 214.682005,56.2695019 213.648,55.8845 C212.613995,55.4994981 211.717504,54.9550035 210.9585,54.251 C210.199496,53.5469965 209.605502,52.6835051 209.1765,51.6605 C208.747498,50.6374949 208.533,49.4770065 208.533,48.179 C208.533,46.9029936 208.747498,45.7425052 209.1765,44.6975 C209.605502,43.6524948 210.193997,42.7615037 210.942,42.0245 C211.690004,41.2874963 212.575495,40.715502 213.5985,40.3085 C214.621505,39.901498 215.726994,39.698 216.915,39.698 C218.015006,39.698 219.032496,39.8794982 219.9675,40.2425 C220.902505,40.6055018 221.710997,41.1444964 222.393,41.8595 C223.075004,42.5745036 223.608498,43.4654947 223.9935,44.5325 C224.378502,45.5995053 224.571,46.8479928 224.571,48.278 L224.571,48.278 Z M239.823,44.549 C239.514999,44.1089978 239.053003,43.7405015 238.437,43.4435 C237.820997,43.1464985 237.194003,42.998 236.556,42.998 C235.829997,42.998 235.192003,43.1464985 234.642,43.4435 C234.091998,43.7405015 233.635502,44.1309976 233.2725,44.615 C232.909498,45.0990024 232.640001,45.643497 232.464,46.2485 C232.287999,46.853503 232.2,47.4639969 232.2,48.08 C232.2,48.6960031 232.293499,49.306497 232.4805,49.9115 C232.667501,50.516503 232.947998,51.0609976 233.322,51.545 C233.696002,52.0290024 234.163498,52.4194985 234.7245,52.7165 C235.285503,53.0135015 235.939997,53.162 236.688,53.162 C237.304003,53.162 237.919997,53.0410012 238.536,52.799 C239.152003,52.5569988 239.646998,52.2050023 240.021,51.743 L242.496,54.251 C241.835997,54.9550035 240.994505,55.4994981 239.9715,55.8845 C238.948495,56.2695019 237.843006,56.462 236.655,56.462 C235.488994,56.462 234.383506,56.2750019 233.3385,55.901 C232.293495,55.5269981 231.380504,54.9770036 230.5995,54.251 C229.818496,53.5249964 229.202503,52.6450052 228.7515,51.611 C228.300498,50.5769948 228.075,49.4000066 228.075,48.08 C228.075,46.8039936 228.300498,45.6490052 228.7515,44.615 C229.202503,43.5809948 229.812996,42.7010036 230.583,41.975 C231.353004,41.2489964 232.249495,40.688002 233.2725,40.292 C234.295505,39.895998 235.389994,39.698 236.556,39.698 C237.722006,39.698 238.849495,39.9179978 239.9385,40.358 C241.027506,40.7980022 241.890997,41.4029961 242.529,42.173 L239.823,44.549 Z M243.426,43.328 L243.426,40.16 L246.198,40.16 L246.198,35.573 L250.092,35.573 L250.092,40.16 L254.052,40.16 L254.052,43.328 L250.092,43.328 L250.092,50.687 C250.092,51.3910035 250.218499,51.9739977 250.4715,52.436 C250.724502,52.8980023 251.290996,53.129 252.171,53.129 C252.435002,53.129 252.720999,53.1015003 253.029,53.0465 C253.337002,52.9914997 253.611999,52.9090006 253.854,52.799 L253.986,55.901 C253.633999,56.0330007 253.216003,56.1374996 252.732,56.2145 C252.247998,56.2915004 251.786003,56.33 251.346,56.33 C250.289995,56.33 249.432004,56.1815015 248.772,55.8845 C248.111997,55.5874985 247.589502,55.1805026 247.2045,54.6635 C246.819498,54.1464974 246.555501,53.5525034 246.4125,52.8815 C246.2695,52.2104966 246.198,51.4900039 246.198,50.72 L246.198,43.328 L243.426,43.328 Z" id="Start-a-project" fill="#FCFCFC" sketch:type="MSShapeGroup"></path>
        </g>
    </g>
</svg>