<svg xmlns="http://www.w3.org/2000/svg" width="46" height="15" viewBox="0 0 46 15" version="1.1"><title>start-project</title><desc>Created with Sketch.</desc><g stroke="none" stroke-width="1" fill="none" fill-rule="evenodd"><g fill="#000000"><path d="M45.9 12.9C45.9 14 44.9 14.9 43.8 14.9L2 14.9C0.9 14.9 0 14 0 12.9L0 2C0 0.9 0.9 0 2 0L43.8 0C44.9 0 45.8 0.9 45.8 2L45.8 12.9 45.9 12.9 45.9 12.9Z"/></g><path d="M7.6 5.9C7.5 5.8 7.4 5.8 7.3 5.7 7.1 5.6 7 5.6 6.9 5.6 6.8 5.6 6.7 5.6 6.6 5.6 6.6 5.7 6.5 5.7 6.4 5.7 6.4 5.8 6.3 5.8 6.3 5.9 6.2 5.9 6.2 6 6.2 6.1 6.2 6.2 6.2 6.3 6.3 6.3 6.3 6.4 6.4 6.4 6.4 6.5 6.5 6.5 6.6 6.6 6.6 6.6 6.7 6.6 6.8 6.6 6.9 6.7 7 6.7 7.2 6.8 7.3 6.8 7.4 6.9 7.5 6.9 7.7 7 7.8 7.1 7.8 7.2 7.9 7.3 8 7.4 8 7.6 8 7.8 8 8 8 8.1 7.9 8.3 7.8 8.4 7.7 8.5 7.6 8.6 7.5 8.7 7.3 8.8 7.2 8.9 7 8.9 6.8 8.9 6.7 8.9 6.4 8.9 6.2 8.9 6 8.8 5.7 8.7 5.5 8.6 5.4 8.4L5.9 8C5.9 8.1 6.1 8.2 6.2 8.3 6.4 8.3 6.5 8.4 6.7 8.4 6.7 8.4 6.8 8.4 6.9 8.3 7 8.3 7.1 8.3 7.1 8.3 7.2 8.2 7.2 8.2 7.3 8.1 7.3 8 7.3 7.9 7.3 7.8 7.3 7.7 7.3 7.7 7.3 7.6 7.2 7.5 7.2 7.5 7.1 7.4 7 7.4 6.9 7.3 6.8 7.3 6.7 7.3 6.6 7.2 6.5 7.2 6.4 7.2 6.3 7.1 6.2 7.1 6 7 5.9 7 5.8 6.9 5.8 6.8 5.7 6.7 5.6 6.6 5.6 6.5 5.5 6.3 5.5 6.1 5.5 6 5.6 5.8 5.7 5.7 5.7 5.5 5.8 5.4 6 5.3 6.1 5.2 6.2 5.2 6.4 5.1 6.6 5.1 6.7 5.1 6.9 5.1 7.1 5.1 7.3 5.1 7.5 5.2 7.7 5.2 7.8 5.3 8 5.5L7.6 5.9 7.6 5.9ZM8.3 6.8L8.3 6.3 8.8 6.3 8.8 5.6 9.4 5.6 9.4 6.3 10 6.3 10 6.8 9.4 6.8 9.4 8C9.4 8.1 9.4 8.2 9.5 8.3 9.5 8.4 9.6 8.4 9.7 8.4 9.8 8.4 9.8 8.4 9.9 8.4 9.9 8.4 10 8.4 10 8.3L10 8.8C10 8.8 9.9 8.9 9.8 8.9 9.8 8.9 9.7 8.9 9.6 8.9 9.4 8.9 9.3 8.9 9.2 8.8 9.1 8.8 9 8.7 8.9 8.6 8.9 8.5 8.8 8.5 8.8 8.3 8.8 8.2 8.8 8.1 8.8 8L8.8 6.8 8.3 6.8 8.3 6.8ZM12.2 8.5L12.1 8.5C12.1 8.6 12 8.7 11.8 8.8 11.7 8.9 11.5 8.9 11.4 8.9 11.3 8.9 11.2 8.9 11 8.9 10.9 8.8 10.8 8.8 10.7 8.7 10.6 8.7 10.6 8.6 10.5 8.5 10.4 8.4 10.4 8.3 10.4 8.1 10.4 7.9 10.5 7.8 10.6 7.7 10.7 7.6 10.8 7.5 11 7.4 11.2 7.4 11.3 7.3 11.5 7.3 11.7 7.3 11.9 7.3 12.1 7.3L12.1 7.2C12.1 7.1 12.1 6.9 12 6.9 11.9 6.8 11.7 6.8 11.6 6.8 11.4 6.8 11.3 6.8 11.2 6.8 11.1 6.9 11 7 10.9 7L10.6 6.7C10.7 6.5 10.9 6.4 11.1 6.4 11.2 6.3 11.4 6.3 11.6 6.3 11.8 6.3 12 6.3 12.2 6.4 12.3 6.4 12.4 6.5 12.5 6.6 12.6 6.7 12.7 6.8 12.7 6.9 12.7 7.1 12.7 7.2 12.7 7.3L12.7 8.8 12.2 8.8 12.2 8.5 12.2 8.5ZM12.1 7.7L12 7.7C11.9 7.7 11.8 7.7 11.7 7.7 11.6 7.7 11.5 7.7 11.4 7.8 11.3 7.8 11.2 7.8 11.1 7.9 11.1 8 11 8 11 8.1 11 8.2 11.1 8.2 11.1 8.3 11.1 8.3 11.1 8.3 11.2 8.4 11.2 8.4 11.3 8.4 11.3 8.4 11.4 8.4 11.4 8.4 11.5 8.4 11.7 8.4 11.9 8.4 12 8.3 12.1 8.1 12.1 8 12.1 7.8L12.1 7.7 12.1 7.7ZM13.6 6.3L14.2 6.3 14.2 6.8 14.2 6.8C14.3 6.6 14.4 6.5 14.5 6.4 14.6 6.3 14.8 6.3 14.9 6.3 15 6.3 15 6.3 15 6.3 15 6.3 15.1 6.3 15.1 6.3L15.1 6.9C15 6.8 15 6.8 15 6.8 14.9 6.8 14.9 6.8 14.9 6.8 14.7 6.8 14.6 6.9 14.5 6.9 14.4 7 14.4 7 14.3 7.1 14.3 7.2 14.2 7.2 14.2 7.3 14.2 7.4 14.2 7.5 14.2 7.5L14.2 8.8 13.6 8.8 13.6 6.3 13.6 6.3ZM15.2 6.8L15.2 6.3 15.6 6.3 15.6 5.6 16.2 5.6 16.2 6.3 16.8 6.3 16.8 6.8 16.2 6.8 16.2 8C16.2 8.1 16.2 8.2 16.3 8.3 16.3 8.4 16.4 8.4 16.5 8.4 16.6 8.4 16.6 8.4 16.7 8.4 16.7 8.4 16.8 8.4 16.8 8.3L16.8 8.8C16.8 8.8 16.7 8.9 16.6 8.9 16.6 8.9 16.5 8.9 16.4 8.9 16.3 8.9 16.1 8.9 16 8.8 15.9 8.8 15.8 8.7 15.8 8.6 15.7 8.5 15.7 8.5 15.6 8.3 15.6 8.2 15.6 8.1 15.6 8L15.6 6.8 15.2 6.8 15.2 6.8ZM20.4 8.5L20.4 8.5C20.3 8.6 20.2 8.7 20.1 8.8 19.9 8.9 19.8 8.9 19.6 8.9 19.5 8.9 19.4 8.9 19.3 8.9 19.1 8.8 19 8.8 19 8.7 18.9 8.7 18.8 8.6 18.7 8.5 18.7 8.4 18.6 8.3 18.6 8.1 18.6 7.9 18.7 7.8 18.8 7.7 18.9 7.6 19 7.5 19.2 7.4 19.4 7.4 19.6 7.3 19.8 7.3 20 7.3 20.2 7.3 20.4 7.3L20.4 7.2C20.4 7.1 20.3 6.9 20.2 6.9 20.1 6.8 19.9 6.8 19.8 6.8 19.7 6.8 19.5 6.8 19.4 6.8 19.3 6.9 19.2 7 19.1 7L18.8 6.7C18.9 6.5 19.1 6.4 19.3 6.4 19.5 6.3 19.6 6.3 19.8 6.3 20.1 6.3 20.2 6.3 20.4 6.4 20.5 6.4 20.7 6.5 20.7 6.6 20.8 6.7 20.9 6.8 20.9 6.9 20.9 7.1 21 7.2 21 7.3L21 8.8 20.4 8.8 20.4 8.5 20.4 8.5ZM20.4 7.7L20.2 7.7C20.1 7.7 20 7.7 19.9 7.7 19.8 7.7 19.7 7.7 19.6 7.8 19.5 7.8 19.4 7.8 19.4 7.9 19.3 8 19.3 8 19.3 8.1 19.3 8.2 19.3 8.2 19.3 8.3 19.3 8.3 19.4 8.3 19.4 8.4 19.4 8.4 19.5 8.4 19.5 8.4 19.6 8.4 19.7 8.4 19.7 8.4 19.9 8.4 20.1 8.4 20.2 8.3 20.3 8.1 20.4 8 20.4 7.8L20.4 7.7 20.4 7.7ZM23.8 6.3L23.8 6.7 23.8 6.7C23.9 6.6 23.9 6.6 23.9 6.5 24 6.5 24.1 6.4 24.1 6.4 24.2 6.4 24.3 6.3 24.4 6.3 24.5 6.3 24.6 6.3 24.7 6.3 24.9 6.3 25 6.3 25.2 6.4 25.3 6.4 25.5 6.5 25.6 6.6 25.7 6.8 25.8 6.9 25.8 7.1 25.9 7.2 25.9 7.4 25.9 7.6 25.9 7.8 25.9 7.9 25.8 8.1 25.8 8.3 25.7 8.4 25.6 8.5 25.5 8.6 25.3 8.7 25.2 8.8 25 8.9 24.9 8.9 24.7 8.9 24.5 8.9 24.3 8.9 24.2 8.8 24 8.7 23.9 8.6 23.8 8.5L23.8 8.5 23.8 10.1 23.2 10.1 23.2 6.3 23.8 6.3 23.8 6.3ZM25.3 7.6C25.3 7.5 25.3 7.4 25.2 7.3 25.2 7.2 25.2 7.1 25.1 7 25 7 25 6.9 24.9 6.8 24.8 6.8 24.7 6.8 24.6 6.8 24.4 6.8 24.3 6.8 24.2 6.9 24.2 6.9 24.1 7 24 7 23.9 7.1 23.9 7.2 23.9 7.3 23.8 7.4 23.8 7.5 23.8 7.6 23.8 7.7 23.8 7.8 23.9 7.9 23.9 8 23.9 8.1 24 8.1 24.1 8.2 24.2 8.3 24.2 8.3 24.3 8.4 24.4 8.4 24.6 8.4 24.7 8.4 24.8 8.4 24.9 8.3 25 8.3 25 8.2 25.1 8.1 25.2 8.1 25.2 8 25.2 7.9 25.3 7.8 25.3 7.7 25.3 7.6L25.3 7.6 25.3 7.6ZM26.6 6.3L27.2 6.3 27.2 6.8 27.2 6.8C27.3 6.6 27.4 6.5 27.5 6.4 27.7 6.3 27.8 6.3 28 6.3 28 6.3 28 6.3 28.1 6.3 28.1 6.3 28.1 6.3 28.1 6.3L28.1 6.9C28.1 6.8 28 6.8 28 6.8 28 6.8 28 6.8 27.9 6.8 27.8 6.8 27.7 6.9 27.6 6.9 27.5 7 27.4 7 27.4 7.1 27.3 7.2 27.3 7.2 27.3 7.3 27.3 7.4 27.3 7.5 27.3 7.5L27.3 8.8 26.6 8.8 26.6 6.3 26.6 6.3ZM28.4 7.6C28.4 7.4 28.4 7.2 28.5 7 28.6 6.9 28.7 6.7 28.8 6.6 28.9 6.5 29.1 6.4 29.2 6.4 29.4 6.3 29.6 6.3 29.8 6.3 29.9 6.3 30.1 6.3 30.3 6.4 30.5 6.4 30.6 6.5 30.7 6.6 30.9 6.7 31 6.9 31 7 31.1 7.2 31.1 7.4 31.1 7.6 31.1 7.8 31.1 8 31 8.1 31 8.3 30.9 8.4 30.7 8.5 30.6 8.7 30.5 8.8 30.3 8.8 30.1 8.9 29.9 8.9 29.8 8.9 29.6 8.9 29.4 8.9 29.2 8.8 29.1 8.8 28.9 8.7 28.8 8.5 28.7 8.4 28.6 8.3 28.5 8.1 28.4 8 28.4 7.8 28.4 7.6L28.4 7.6 28.4 7.6ZM29 7.6C29 7.7 29 7.8 29.1 7.9 29.1 8 29.1 8.1 29.2 8.1 29.3 8.2 29.3 8.3 29.4 8.3 29.5 8.4 29.6 8.4 29.8 8.4 29.9 8.4 30 8.4 30.1 8.3 30.2 8.3 30.3 8.2 30.3 8.1 30.4 8.1 30.4 8 30.4 7.9 30.5 7.8 30.5 7.7 30.5 7.6 30.5 7.5 30.5 7.4 30.4 7.3 30.4 7.2 30.4 7.1 30.3 7 30.3 7 30.2 6.9 30.1 6.8 30 6.8 29.9 6.8 29.8 6.8 29.6 6.8 29.5 6.8 29.4 6.8 29.3 6.9 29.3 7 29.2 7 29.1 7.1 29.1 7.2 29.1 7.3 29 7.4 29 7.5 29 7.6L29 7.6 29 7.6ZM32.5 6.3L32.5 9C32.5 9.1 32.5 9.3 32.4 9.4 32.4 9.6 32.4 9.7 32.3 9.8 32.2 9.9 32.1 9.9 32 10 31.9 10.1 31.8 10.1 31.6 10.1 31.5 10.1 31.5 10.1 31.4 10.1 31.4 10.1 31.3 10.1 31.3 10.1L31.3 9.5C31.4 9.5 31.4 9.5 31.4 9.5 31.5 9.5 31.5 9.6 31.5 9.6 31.6 9.6 31.6 9.5 31.7 9.5 31.7 9.5 31.8 9.4 31.8 9.4 31.8 9.3 31.8 9.3 31.8 9.2 31.8 9.2 31.8 9.1 31.8 9L31.8 6.3 32.5 6.3 32.5 6.3ZM31.8 5.5C31.8 5.4 31.8 5.3 31.9 5.2 31.9 5.2 32 5.1 32.2 5.1 32.3 5.1 32.4 5.2 32.4 5.2 32.5 5.3 32.6 5.4 32.6 5.5 32.6 5.6 32.5 5.7 32.4 5.8 32.4 5.8 32.3 5.9 32.2 5.9 32 5.9 31.9 5.8 31.9 5.8 31.8 5.7 31.8 5.6 31.8 5.5L31.8 5.5 31.8 5.5ZM35.1 7.3C35.1 7.3 35.1 7.2 35.1 7.1 35.1 7 35 7 35 6.9 34.9 6.9 34.9 6.8 34.8 6.8 34.7 6.8 34.6 6.7 34.5 6.7 34.3 6.7 34.2 6.8 34 6.9 33.9 7 33.8 7.2 33.8 7.3L35.1 7.3 35.1 7.3ZM35.7 7.6L35.7 7.7C35.7 7.7 35.7 7.8 35.7 7.8L33.8 7.8C33.8 7.9 33.9 8 33.9 8 33.9 8.1 34 8.2 34.1 8.2 34.1 8.3 34.2 8.3 34.3 8.4 34.4 8.4 34.5 8.4 34.5 8.4 34.7 8.4 34.8 8.4 34.9 8.3 35 8.3 35.1 8.2 35.2 8.1L35.6 8.4C35.4 8.7 35 8.9 34.5 8.9 34.4 8.9 34.2 8.9 34 8.8 33.8 8.8 33.7 8.7 33.6 8.6 33.5 8.5 33.4 8.3 33.3 8.2 33.2 8 33.2 7.8 33.2 7.6 33.2 7.4 33.2 7.2 33.3 7.1 33.4 6.9 33.5 6.8 33.6 6.6 33.7 6.5 33.8 6.4 34 6.4 34.2 6.3 34.3 6.3 34.5 6.3 34.7 6.3 34.9 6.3 35 6.4 35.2 6.4 35.3 6.5 35.4 6.6 35.5 6.7 35.6 6.9 35.7 7 35.7 7.2 35.7 7.4 35.7 7.6L35.7 7.6 35.7 7.6ZM38.2 7C38.1 7 38 6.9 38 6.9 37.9 6.8 37.8 6.8 37.7 6.8 37.5 6.8 37.4 6.8 37.3 6.9 37.3 6.9 37.2 7 37.1 7 37.1 7.1 37 7.2 37 7.3 37 7.4 37 7.5 37 7.6 37 7.7 37 7.8 37 7.9 37 8 37.1 8.1 37.1 8.1 37.2 8.2 37.3 8.3 37.4 8.3 37.5 8.4 37.6 8.4 37.7 8.4 37.8 8.4 37.9 8.4 38 8.3 38.1 8.3 38.1 8.2 38.2 8.2L38.6 8.6C38.5 8.7 38.4 8.8 38.2 8.8 38 8.9 37.9 8.9 37.7 8.9 37.5 8.9 37.3 8.9 37.1 8.8 37 8.8 36.8 8.7 36.7 8.6 36.6 8.5 36.5 8.3 36.4 8.1 36.3 8 36.3 7.8 36.3 7.6 36.3 7.4 36.3 7.2 36.4 7 36.5 6.9 36.6 6.7 36.7 6.6 36.8 6.5 37 6.4 37.1 6.4 37.3 6.3 37.5 6.3 37.7 6.3 37.8 6.3 38 6.3 38.2 6.4 38.4 6.4 38.5 6.5 38.6 6.7L38.2 7 38.2 7ZM38.7 6.8L38.7 6.3 39.2 6.3 39.2 5.6 39.8 5.6 39.8 6.3 40.4 6.3 40.4 6.8 39.8 6.8 39.8 8C39.8 8.1 39.8 8.2 39.9 8.3 39.9 8.4 40 8.4 40.1 8.4 40.2 8.4 40.2 8.4 40.3 8.4 40.3 8.4 40.4 8.4 40.4 8.3L40.4 8.8C40.4 8.8 40.3 8.9 40.2 8.9 40.2 8.9 40.1 8.9 40 8.9 39.8 8.9 39.7 8.9 39.6 8.8 39.5 8.8 39.4 8.7 39.3 8.6 39.3 8.5 39.2 8.5 39.2 8.3 39.2 8.2 39.2 8.1 39.2 8L39.2 6.8 38.7 6.8 38.7 6.8Z" fill="#FCFCFC"/></g></svg>