<?xml version="1.0" encoding="UTF-8" standalone="no"?>
<svg width="85px" height="85px" viewBox="0 0 85 85" version="1.1" xmlns="http://www.w3.org/2000/svg" xmlns:xlink="http://www.w3.org/1999/xlink" xmlns:sketch="http://www.bohemiancoding.com/sketch/ns">
    <!-- Generator: Sketch 3.3.3 (12072) - http://www.bohemiancoding.com/sketch -->
    <title>tryhere</title>
    <desc>Created with Sketch.</desc>
    <defs></defs>
    <g id="Page-1" stroke="none" stroke-width="1" fill="none" fill-rule="evenodd" sketch:type="MSPage">
        <g id="Desktop-HD-2" sketch:type="MSArtboardGroup" transform="translate(-792.000000, -173.000000)">
            <g id="tryhere" sketch:type="MSLayerGroup" transform="translate(792.000000, 173.000000)">
                <circle id="Oval-889" fill="#00CD6F" sketch:type="MSShapeGroup" cx="42.5" cy="42.5" r="42.5"></circle>
                <path d="M33.6234409,28.3978495 L33.6234409,32.5655914 C33.6234409,33.0774219 33.7221496,33.461289 33.9195699,33.7172043 C34.1169902,33.9731196 34.4716103,34.1010753 34.9834409,34.1010753 C35.1589256,34.1010753 35.3453754,34.0864518 35.5427957,34.0572043 C35.740216,34.0279568 35.9047305,33.9840863 36.0363441,33.9255914 L36.0802151,36.5578495 C35.8316117,36.6455918 35.5172062,36.7223653 35.1369892,36.788172 C34.7567723,36.8539788 34.376561,36.8868817 33.9963441,36.8868817 C33.2651576,36.8868817 32.6509702,36.7954848 32.1537634,36.6126882 C31.6565567,36.4298916 31.258066,36.1666684 30.9582796,35.8230108 C30.6584931,35.4793531 30.4427964,35.0698948 30.3111828,34.5946237 C30.1795692,34.1193525 30.1137634,33.5892502 30.1137634,33.0043011 L30.1137634,28.3978495 L28.3589247,28.3978495 L28.3589247,25.6997849 L30.091828,25.6997849 L30.091828,22.8262366 L33.6234409,22.8262366 L33.6234409,25.6997849 L36.1898925,25.6997849 L36.1898925,28.3978495 L33.6234409,28.3978495 Z M44.964086,28.6391398 C44.803225,28.5952686 44.6460223,28.5660216 44.4924731,28.5513978 C44.338924,28.5367741 44.189033,28.5294624 44.0427957,28.5294624 C43.5602126,28.5294624 43.1544102,28.6172034 42.8253763,28.7926882 C42.4963424,28.9681729 42.2331193,29.1802138 42.0356989,29.4288172 C41.8382786,29.6774206 41.6956994,29.9479555 41.607957,30.2404301 C41.5202146,30.5329047 41.4763441,30.7888161 41.4763441,31.008172 L41.4763441,36.6236559 L37.8789247,36.6236559 L37.8789247,25.6997849 L41.3447312,25.6997849 L41.3447312,27.2791398 L41.3886022,27.2791398 C41.666453,26.7234381 42.0612878,26.2701093 42.5731183,25.9191398 C43.0849488,25.5681703 43.6772009,25.3926882 44.3498925,25.3926882 C44.4961298,25.3926882 44.638709,25.3999999 44.7776344,25.4146237 C44.9165598,25.4292474 45.029892,25.4511826 45.1176344,25.4804301 L44.964086,28.6391398 Z M52.7292473,38.2688172 C52.5098914,38.8391426 52.2649476,39.3473096 51.9944086,39.7933333 C51.7238696,40.2393571 51.4021524,40.6195683 51.0292473,40.9339785 C50.6563422,41.2483887 50.2176369,41.4860207 49.7131183,41.6468817 C49.2085996,41.8077427 48.6126916,41.888172 47.9253763,41.888172 C47.5890306,41.888172 47.2417222,41.8662368 46.8834409,41.8223656 C46.5251595,41.7784944 46.2144099,41.7200004 45.9511828,41.6468817 L46.3460215,38.6197849 C46.5215063,38.6782799 46.7152678,38.7258063 46.9273118,38.7623656 C47.1393559,38.7989249 47.3331174,38.8172043 47.5086022,38.8172043 C48.0643039,38.8172043 48.4664504,38.6892486 48.7150538,38.4333333 C48.9636572,38.1774181 49.175698,37.8154862 49.3511828,37.3475269 L49.7021505,36.448172 L45.1395699,25.6997849 L49.131828,25.6997849 L51.5666667,32.7191398 L51.6324731,32.7191398 L53.804086,25.6997849 L57.6208602,25.6997849 L52.7292473,38.2688172 Z M27.371828,61.3010753 L27.371828,55.3784946 C27.371828,55.0713963 27.3498927,54.7789261 27.3060215,54.5010753 C27.2621503,54.2232244 27.1780651,53.9782806 27.0537634,53.7662366 C26.9294617,53.5541925 26.7649473,53.3860221 26.5602151,53.2617204 C26.3554828,53.1374187 26.0922597,53.0752688 25.7705376,53.0752688 C25.1417173,53.0752688 24.6591415,53.2982773 24.3227957,53.7443011 C23.9864499,54.1903248 23.8182796,54.7423623 23.8182796,55.4004301 L23.8182796,61.3010753 L20.2208602,61.3010753 L20.2208602,44.7178495 L23.8182796,44.7178495 L23.8182796,51.7591398 L23.8621505,51.7591398 C24.1107539,51.3204279 24.5055887,50.929249 25.0466667,50.5855914 C25.5877446,50.2419338 26.2384908,50.0701075 26.9989247,50.0701075 C27.7447349,50.0701075 28.36989,50.2017191 28.8744086,50.4649462 C29.3789273,50.7281734 29.7883855,51.06817 30.1027957,51.4849462 C30.4172059,51.9017225 30.6438703,52.3806425 30.7827957,52.9217204 C30.9217211,53.4627984 30.9911828,54.0038683 30.9911828,54.5449462 L30.9911828,61.3010753 L27.371828,61.3010753 Z M41.2350538,54.5888172 C41.2350538,54.0184918 41.0559158,53.5286042 40.6976344,53.1191398 C40.339353,52.7096754 39.8019391,52.5049462 39.0853763,52.5049462 C38.7344068,52.5049462 38.4126896,52.5597844 38.1202151,52.6694624 C37.8277405,52.7791403 37.5718291,52.9290313 37.3524731,53.1191398 C37.1331172,53.3092483 36.9576351,53.5322568 36.8260215,53.788172 C36.6944079,54.0440873 36.6212904,54.3109664 36.6066667,54.5888172 L41.2350538,54.5888172 Z M44.5473118,55.9707527 L44.5473118,56.4094624 C44.5473118,56.5556997 44.5400001,56.694623 44.5253763,56.8262366 L36.6066667,56.8262366 C36.6359141,57.1333349 36.7273111,57.4111816 36.8808602,57.6597849 C37.0344094,57.9083883 37.2318268,58.1240851 37.4731183,58.3068817 C37.7144098,58.4896783 37.9849447,58.6322576 38.2847312,58.7346237 C38.5845176,58.8369898 38.8952672,58.888172 39.2169892,58.888172 C39.7873147,58.888172 40.2698905,58.7821516 40.6647312,58.5701075 C41.0595719,58.3580635 41.3812891,58.0838726 41.6298925,57.7475269 L44.1305376,59.3268817 C43.6187071,60.0726919 42.9423698,60.6466647 42.1015054,61.0488172 C41.260641,61.4509698 40.2845217,61.652043 39.1731183,61.652043 C38.3541895,61.652043 37.5791434,61.5240873 36.847957,61.268172 C36.1167705,61.0122568 35.476992,60.6393573 34.9286022,60.1494624 C34.3802123,59.6595674 33.9488188,59.0563477 33.6344086,58.3397849 C33.3199984,57.6232222 33.1627957,56.8043057 33.1627957,55.8830108 C33.1627957,54.9909633 33.3163426,54.1830144 33.6234409,53.4591398 C33.9305392,52.7352652 34.3473092,52.1210778 34.8737634,51.6165591 C35.4002177,51.1120405 36.0217168,50.7208616 36.7382796,50.4430108 C37.4548423,50.1651599 38.2298883,50.0262366 39.0634409,50.0262366 C39.867746,50.0262366 40.6062332,50.161504 41.2789247,50.432043 C41.9516163,50.702582 42.5292449,51.0937609 43.011828,51.6055914 C43.494411,52.1174219 43.8709664,52.7389211 44.1415054,53.4701075 C44.4120444,54.201294 44.5473118,55.034834 44.5473118,55.9707527 L44.5473118,55.9707527 Z M53.8698925,53.3165591 C53.7090315,53.272688 53.5518287,53.2434409 53.3982796,53.2288172 C53.2447304,53.2141935 53.0948394,53.2068817 52.9486022,53.2068817 C52.4660191,53.2068817 52.0602167,53.2946228 51.7311828,53.4701075 C51.4021489,53.6455923 51.1389257,53.8576332 50.9415054,54.1062366 C50.744085,54.35484 50.6015058,54.6253749 50.5137634,54.9178495 C50.4260211,55.210324 50.3821505,55.4662355 50.3821505,55.6855914 L50.3821505,61.3010753 L46.7847312,61.3010753 L46.7847312,50.3772043 L50.2505376,50.3772043 L50.2505376,51.9565591 L50.2944086,51.9565591 C50.5722595,51.4008574 50.9670942,50.9475286 51.4789247,50.5965591 C51.9907552,50.2455896 52.5830074,50.0701075 53.2556989,50.0701075 C53.4019362,50.0701075 53.5445154,50.0774193 53.6834409,50.092043 C53.8223663,50.1066667 53.9356985,50.128602 54.0234409,50.1578495 L53.8698925,53.3165591 Z M62.9950538,54.5888172 C62.9950538,54.0184918 62.8159158,53.5286042 62.4576344,53.1191398 C62.099353,52.7096754 61.5619391,52.5049462 60.8453763,52.5049462 C60.4944068,52.5049462 60.1726896,52.5597844 59.8802151,52.6694624 C59.5877405,52.7791403 59.3318291,52.9290313 59.1124731,53.1191398 C58.8931172,53.3092483 58.7176351,53.5322568 58.5860215,53.788172 C58.4544079,54.0440873 58.3812904,54.3109664 58.3666667,54.5888172 L62.9950538,54.5888172 Z M66.3073118,55.9707527 L66.3073118,56.4094624 C66.3073118,56.5556997 66.3000001,56.694623 66.2853763,56.8262366 L58.3666667,56.8262366 C58.3959141,57.1333349 58.4873111,57.4111816 58.6408602,57.6597849 C58.7944094,57.9083883 58.9918268,58.1240851 59.2331183,58.3068817 C59.4744098,58.4896783 59.7449447,58.6322576 60.0447312,58.7346237 C60.3445176,58.8369898 60.6552672,58.888172 60.9769892,58.888172 C61.5473147,58.888172 62.0298905,58.7821516 62.4247312,58.5701075 C62.8195719,58.3580635 63.1412891,58.0838726 63.3898925,57.7475269 L65.8905376,59.3268817 C65.3787071,60.0726919 64.7023698,60.6466647 63.8615054,61.0488172 C63.020641,61.4509698 62.0445217,61.652043 60.9331183,61.652043 C60.1141895,61.652043 59.3391434,61.5240873 58.607957,61.268172 C57.8767705,61.0122568 57.236992,60.6393573 56.6886022,60.1494624 C56.1402123,59.6595674 55.7088188,59.0563477 55.3944086,58.3397849 C55.0799984,57.6232222 54.9227957,56.8043057 54.9227957,55.8830108 C54.9227957,54.9909633 55.0763426,54.1830144 55.3834409,53.4591398 C55.6905392,52.7352652 56.1073092,52.1210778 56.6337634,51.6165591 C57.1602177,51.1120405 57.7817168,50.7208616 58.4982796,50.4430108 C59.2148423,50.1651599 59.9898883,50.0262366 60.8234409,50.0262366 C61.627746,50.0262366 62.3662332,50.161504 63.0389247,50.432043 C63.7116163,50.702582 64.2892449,51.0937609 64.771828,51.6055914 C65.254411,52.1174219 65.6309664,52.7389211 65.9015054,53.4701075 C66.1720444,54.201294 66.3073118,55.034834 66.3073118,55.9707527 L66.3073118,55.9707527 Z" id="try" fill="#00753F" sketch:type="MSShapeGroup"></path>
            </g>
        </g>
    </g>
</svg>