<?xml version="1.0" encoding="UTF-8" standalone="no"?>
<svg width="29px" height="24px" viewBox="0 0 29 24" version="1.1" xmlns="http://www.w3.org/2000/svg" xmlns:xlink="http://www.w3.org/1999/xlink" xmlns:sketch="http://www.bohemiancoding.com/sketch/ns">
    <!-- Generator: Sketch 3.3.3 (12072) - http://www.bohemiancoding.com/sketch -->
    <title>Fill-5</title>
    <desc>Created with Sketch.</desc>
    <defs></defs>
    <g id="Page-1" stroke="none" stroke-width="1" fill="none" fill-rule="evenodd" sketch:type="MSPage">
        <g id="Artboard-4" sketch:type="MSArtboardGroup" transform="translate(-6.000000, -10.000000)" fill="#00CD70">
            <path d="M34.509325,13.347763 C33.4575149,13.8107844 32.3271166,14.1239351 31.1419448,14.2643403 C32.3541065,13.5433836 33.2836685,12.4027892 33.7194751,11.0429103 C32.5859016,11.7102291 31.3332552,12.1945479 29.9948764,12.4540607 C28.9287775,11.322143 27.4030574,10.6153846 25.716192,10.6153846 C22.479792,10.6153846 19.8546326,13.2239225 19.8546326,16.4406197 C19.8546326,16.8981195 19.9046432,17.3414211 20.006252,17.7673692 C15.1345848,17.5236322 10.8146219,15.2069477 7.9203578,11.6802549 C7.4154889,12.5431943 7.1281265,13.5433836 7.1281265,14.6114091 C7.1281265,16.6307187 8.1632664,18.4141793 9.735028,19.4601186 C8.7760947,19.4309333 7.8703472,19.1666877 7.0781159,18.7328516 L7.0781159,18.803843 C7.0781159,21.6285101 9.0999728,23.9830567 11.783081,24.5162807 C11.2917071,24.6527418 10.7749309,24.7213668 10.2383093,24.7213668 C9.8604514,24.7213668 9.4929132,24.6866599 9.1356947,24.618035 C9.8818846,26.9323531 12.0450413,28.6172146 14.6122519,28.6621758 C12.6046837,30.2255632 10.0755764,31.1563387 7.3305503,31.1563387 C6.8574342,31.1563387 6.3898748,31.1303086 5.9318412,31.0758819 C8.5268355,32.7276141 11.6084409,33.6923077 14.9178723,33.6923077 C25.7050786,33.6923077 31.5999784,24.8168108 31.5999784,17.1174039 C31.5999784,16.8642014 31.5952155,16.6117877 31.584102,16.363318 C32.7303767,15.5413958 33.7266195,14.5151764 34.509325,13.347763" id="Fill-5" sketch:type="MSShapeGroup"></path>
        </g>
    </g>
</svg>