<?xml version="1.0" encoding="UTF-8" standalone="no"?>
<svg width="29px" height="24px" viewBox="0 0 29 24" version="1.1" xmlns="http://www.w3.org/2000/svg" xmlns:xlink="http://www.w3.org/1999/xlink" xmlns:sketch="http://www.bohemiancoding.com/sketch/ns">
    <!-- Generator: Sketch 3.2.2 (9983) - http://www.bohemiancoding.com/sketch -->
    <title>twitter</title>
    <desc>Created with Sketch.</desc>
    <defs></defs>
    <g id="Page-1" stroke="none" stroke-width="1" fill="none" fill-rule="evenodd" sketch:type="MSPage">
        <path d="M28.509325,3.347763 C27.4575149,3.8107844 26.3271166,4.1239351 25.1419448,4.2643403 C26.3541065,3.5433836 27.2836685,2.4027892 27.7194751,1.0429103 C26.5859016,1.7102291 25.3332552,2.1945479 23.9948764,2.4540607 C22.9287775,1.322143 21.4030574,0.6153846 19.716192,0.6153846 C16.479792,0.6153846 13.8546326,3.2239225 13.8546326,6.4406197 C13.8546326,6.8981195 13.9046432,7.3414211 14.006252,7.7673692 C9.1345848,7.5236322 4.8146219,5.2069477 1.9203578,1.6802549 C1.4154889,2.5431943 1.1281265,3.5433836 1.1281265,4.6114091 C1.1281265,6.6307187 2.1632664,8.4141793 3.735028,9.4601186 C2.7760947,9.4309333 1.8703472,9.1666877 1.0781159,8.7328516 L1.0781159,8.803843 C1.0781159,11.6285101 3.0999728,13.9830567 5.783081,14.5162807 C5.2917071,14.6527418 4.7749309,14.7213668 4.2383093,14.7213668 C3.8604514,14.7213668 3.4929132,14.6866599 3.1356947,14.618035 C3.8818846,16.9323531 6.0450413,18.6172146 8.6122519,18.6621758 C6.6046837,20.2255632 4.0755764,21.1563387 1.3305503,21.1563387 C0.8574342,21.1563387 0.3898748,21.1303086 -0.0681588,21.0758819 C2.5268355,22.7276141 5.6084409,23.6923077 8.9178723,23.6923077 C19.7050786,23.6923077 25.5999784,14.8168108 25.5999784,7.1174039 C25.5999784,6.8642014 25.5952155,6.6117877 25.584102,6.363318 C26.7303767,5.5413958 27.7266195,4.5151764 28.509325,3.347763" id="twitter" fill="#FFFFFF" sketch:type="MSShapeGroup"></path>
    </g>
</svg>