<?xml version="1.0" encoding="UTF-8" standalone="no"?>
<svg width="41px" height="41px" viewBox="0 0 41 41" version="1.1" xmlns="http://www.w3.org/2000/svg" xmlns:xlink="http://www.w3.org/1999/xlink" xmlns:sketch="http://www.bohemiancoding.com/sketch/ns">
    <!-- Generator: Sketch 3.3.3 (12072) - http://www.bohemiancoding.com/sketch -->
    <title>coin_icon</title>
    <desc>Created with Sketch.</desc>
    <defs></defs>
    <g id="Page-1" stroke="none" stroke-width="1" fill="none" fill-rule="evenodd" sketch:type="MSPage">
        <g id="Desktop-HD-2" sketch:type="MSArtboardGroup" transform="translate(-760.000000, -1253.000000)">
            <g id="Group" sketch:type="MSLayerGroup" transform="translate(104.500000, 1113.000000)">
                <g id="coin_icon" transform="translate(656.000000, 140.000000)" sketch:type="MSShapeGroup">
                    <path d="M19.9181705,40.1311386 C30.8900856,40.1311386 39.7845803,31.2407264 39.7845803,20.2738472 C39.7845803,9.30696806 30.8900856,0.416555896 19.9181705,0.416555896 C8.94625531,0.416555896 0.0517606736,9.30696806 0.0517606736,20.2738472 C0.0517606736,31.2407264 8.94625531,40.1311386 19.9181705,40.1311386 Z" id="Oval-6-Copy" fill="#5DB1E9"></path>
                    <path d="M20.8331852,12.5680342 C21.6888932,12.5983477 22.5671066,12.7499132 23.4678519,13.022735 C24.3685971,13.2955569 25.1717496,13.7199401 25.8773333,14.2958974 C25.1417247,15.1446766 24.4136332,15.9707082 23.693037,16.7740171 C23.3177265,16.3950978 22.8673607,16.0995452 22.3419259,15.8873504 C21.8164912,15.6751556 21.3135826,15.5614816 20.8331852,15.5463248 L20.8331852,19.1839316 C21.4186696,19.3658129 22.0116513,19.5704262 22.6121481,19.7977778 C23.212645,20.0251293 23.7605901,20.3282602 24.256,20.7071795 C24.7514099,21.0860988 25.1567392,21.5483733 25.472,22.0940171 C25.7872608,22.6396608 25.9448889,23.3217053 25.9448889,24.1401709 C25.9448889,24.9737933 25.79852,25.6975183 25.5057778,26.3113675 C25.2130356,26.9252167 24.8227185,27.4367501 24.3348148,27.8459829 C23.8469111,28.2552157 23.2914599,28.5659249 22.6684444,28.7781197 C22.045429,28.9903145 21.4036576,29.1039885 20.7431111,29.1191453 L20.7431111,30.7788034 L19.0767407,30.7788034 L19.0767407,29.1191453 C18.1009334,29.0888318 17.1176346,28.9031641 16.1268148,28.5621368 C15.135995,28.2211094 14.2652877,27.7095761 13.5146667,27.0275214 C13.9049896,26.6182886 14.2990597,26.2052727 14.6968889,25.7884615 C15.094718,25.3716503 15.4887882,24.9510563 15.8791111,24.5266667 C16.0742726,24.7540182 16.3069616,24.9624207 16.5771852,25.1518803 C16.8474088,25.34134 17.1251344,25.5042728 17.4103704,25.6406838 C17.6956064,25.7770947 17.9808381,25.8869796 18.2660741,25.9703419 C18.5513101,26.0537041 18.8215296,26.0953846 19.0767407,26.0953846 L19.0767407,22.1167521 C18.4312066,21.9348709 17.8119536,21.7302575 17.218963,21.502906 C16.6259723,21.2755544 16.1042985,20.9800018 15.6539259,20.6162393 C15.2035533,20.2524768 14.8432606,19.8091479 14.573037,19.2862393 C14.3028135,18.7633307 14.1677037,18.1229668 14.1677037,17.3651282 C14.1677037,16.6224464 14.3178257,15.9593476 14.6180741,15.375812 C14.9183225,14.7922763 15.3086396,14.2996886 15.789037,13.8980342 C16.2694345,13.4963798 16.8098735,13.1856706 17.4103704,12.9658974 C18.0108672,12.7461243 18.6038489,12.6210828 19.1893333,12.5907692 L19.1893333,11.0220513 L20.8331852,11.0220513 L20.8331852,12.5680342 Z M19.1893333,15.5008547 C18.783998,15.546325 18.4199522,15.7016796 18.0971852,15.9669231 C17.7744181,16.2321666 17.613037,16.6148693 17.613037,17.1150427 C17.613037,17.6000594 17.7556529,17.9713947 18.0408889,18.2290598 C18.3261249,18.4867249 18.7089359,18.6761817 19.1893333,18.7974359 L19.1893333,15.5008547 Z M20.7431111,26.1181197 C21.2535334,26.0878061 21.6551096,25.917295 21.9478519,25.6065812 C22.2405941,25.2958674 22.386963,24.8752733 22.386963,24.3447863 C22.386963,23.8142993 22.233088,23.4164401 21.9253333,23.1511966 C21.6175787,22.8859531 21.2235086,22.6775506 20.7431111,22.5259829 L20.7431111,26.1181197 Z" id="$" fill="#2F81B7"></path>
                </g>
            </g>
        </g>
    </g>
</svg>