<?xml version="1.0" encoding="UTF-8" standalone="no"?>
<svg width="30px" height="30px" viewBox="0 0 30 30" version="1.1" xmlns="http://www.w3.org/2000/svg" xmlns:xlink="http://www.w3.org/1999/xlink" xmlns:sketch="http://www.bohemiancoding.com/sketch/ns">
    <!-- Generator: Sketch 3.3.3 (12072) - http://www.bohemiancoding.com/sketch -->
    <title>fun_icon copy</title>
    <desc>Created with Sketch.</desc>
    <defs></defs>
    <g id="Page-1" stroke="none" stroke-width="1" fill="none" fill-rule="evenodd" sketch:type="MSPage">
        <g id="Mobile-Portrait" sketch:type="MSArtboardGroup" transform="translate(-32.000000, -815.000000)">
            <g id="fun_icon-copy" sketch:type="MSLayerGroup" transform="translate(32.000000, 815.000000)">
                <path d="M1.01733557,13.5112032 L28.9119242,13.5504609 L28.6060664,10.9106831 L1.37994431,10.9844398 L1.01733557,13.5112032 Z" id="Path-83" opacity="0.535914179" fill="#CF2622" sketch:type="MSShapeGroup"></path>
                <path d="M14.9386279,29.9159879 C23.1675642,29.9159879 29.8384352,23.3116817 29.8384352,15.1648571 C29.8384352,7.01803261 23.1675642,0.413726427 14.9386279,0.413726427 C6.70969148,0.413726427 0.0388205052,7.01803261 0.0388205052,15.1648571 C0.0388205052,23.3116817 6.70969148,29.9159879 14.9386279,29.9159879 Z" id="Oval-6" fill="#00CD6F" sketch:type="MSShapeGroup"></path>
                <ellipse id="Oval-7" fill="#2F965D" sketch:type="MSShapeGroup" cx="8.86241409" cy="20.5787004" rx="0.917573361" ry="0.913631969"></ellipse>
                <ellipse id="Oval-8" fill="#2F965D" sketch:type="MSShapeGroup" cx="21.3206994" cy="20.5787004" rx="0.917573361" ry="0.913631969"></ellipse>
                <path d="M21.932415,23.5975752 C20.5363933,25.6043854 17.9271237,26.9545601 14.9386272,26.9545601 C11.9501307,26.9545601 9.34086113,25.6043854 7.94483943,23.5975752 L21.932415,23.5975752 Z" id="Oval-9" fill="#2F965D" sketch:type="MSShapeGroup"></path>
            </g>
        </g>
    </g>
</svg>