<?xml version="1.0" encoding="UTF-8" standalone="no"?>
<svg width="41px" height="40px" viewBox="0 0 41 40" version="1.1" xmlns="http://www.w3.org/2000/svg" xmlns:xlink="http://www.w3.org/1999/xlink" xmlns:sketch="http://www.bohemiancoding.com/sketch/ns">
    <!-- Generator: Sketch 3.3.3 (12072) - http://www.bohemiancoding.com/sketch -->
    <title>funnn_icon</title>
    <desc>Created with Sketch.</desc>
    <defs></defs>
    <g id="Page-1" stroke="none" stroke-width="1" fill="none" fill-rule="evenodd" sketch:type="MSPage">
        <g id="Desktop-HD-2" sketch:type="MSArtboardGroup" transform="translate(-761.000000, -1392.000000)">
            <g id="Group" sketch:type="MSLayerGroup" transform="translate(104.500000, 1113.000000)">
                <g id="funnn_icon" transform="translate(657.000000, 279.000000)" sketch:type="MSShapeGroup">
                    <path d="M20,36.0135597 C29.7248982,36.0135597 37.6084858,28.2973302 37.6084858,18.7788787 C37.6084858,9.26042714 29.7248982,1.54419758 20,1.54419758 C10.2751018,1.54419758 2.39151416,9.26042714 2.39151416,18.7788787 C2.39151416,28.2973302 10.2751018,36.0135597 20,36.0135597 Z" id="Oval-6" stroke="#E54D42" stroke-width="1.68333868" fill="#FFFFFF"></path>
                    <path d="M20,27.8506447 C24.646205,27.8506447 28.4126984,24.1430028 28.4126984,19.5693947 C28.4126984,14.9957866 24.646205,11.2881447 20,11.2881447 C15.353795,11.2881447 11.5873016,14.9957866 11.5873016,19.5693947 C11.5873016,24.1430028 15.353795,27.8506447 20,27.8506447 Z" id="Oval-8" fill="#EE6A6A"></path>
                    <path d="M20,22.3931319 C21.5842611,22.3931319 22.8685585,21.1289017 22.8685585,19.5693947 C22.8685585,18.0098877 21.5842611,16.7456574 20,16.7456574 C18.4157389,16.7456574 17.1314415,18.0098877 17.1314415,19.5693947 C17.1314415,21.1289017 18.4157389,22.3931319 20,22.3931319 Z" id="Oval-9" fill="#D2372C"></path>
                    <rect id="Rectangle-10" fill="#D2372C" x="22.1235784" y="19.375" width="2.53968254" height="20.625" rx="25.267616"></rect>
                    <rect id="Rectangle-11" fill="#D2372C" x="15.3367391" y="19.375" width="2.53968254" height="20.625" rx="25.267616"></rect>
                    <path d="M33.6507937,8.125 L33.6507937,5.625 L28.5714286,5.625 L28.5714286,8.125 C28.5714286,9.50571187 29.7084832,10.625 31.1111111,10.625 C32.513739,10.625 33.6507937,9.50571187 33.6507937,8.125 Z" id="Rectangle-12" fill="#D2372C"></path>
                    <path d="M22.5396825,2.5 L22.5396825,0 L17.4603175,0 L17.4603175,2.5 C17.4603175,3.88071187 18.5973721,5 20,5 C21.4026279,5 22.5396825,3.88071187 22.5396825,2.5 Z" id="Rectangle-18" fill="#D2372C"></path>
                    <path d="M33.6507937,30.625 L33.6507937,28.125 L28.5714286,28.125 L28.5714286,30.625 C28.5714286,32.0057119 29.7084832,33.125 31.1111111,33.125 C32.513739,33.125 33.6507937,32.0057119 33.6507937,30.625 Z" id="Rectangle-13" fill="#D2372C"></path>
                    <path d="M40,19.375 L40,16.875 L34.9206349,16.875 L34.9206349,19.375 C34.9206349,20.7557119 36.0576895,21.875 37.4603175,21.875 C38.8629454,21.875 40,20.7557119 40,19.375 Z" id="Rectangle-14" fill="#D2372C"></path>
                    <path d="M5.07936508,19.375 L5.07936508,16.875 L0,16.875 L0,19.375 C0,20.7557119 1.1370546,21.875 2.53968254,21.875 C3.94231048,21.875 5.07936508,20.7557119 5.07936508,19.375 Z" id="Rectangle-15" fill="#D2372C"></path>
                    <path d="M10.7936508,30.625 L10.7936508,28.125 L5.71428571,28.125 L5.71428571,30.625 C5.71428571,32.0057119 6.85134032,33.125 8.25396825,33.125 C9.65659619,33.125 10.7936508,32.0057119 10.7936508,30.625 Z" id="Rectangle-16" fill="#D2372C"></path>
                    <path d="M10.7936508,8.125 L10.7936508,5.625 L5.71428571,5.625 L5.71428571,8.125 C5.71428571,9.50571187 6.85134032,10.625 8.25396825,10.625 C9.65659619,10.625 10.7936508,9.50571187 10.7936508,8.125 Z" id="Rectangle-17" fill="#D2372C"></path>
                    <path d="M8.57142857,31.5625 L32.0634921,6.5625" id="Line" stroke="#D2372C" stroke-width="1.2633808" stroke-linecap="square"></path>
                    <path d="M2.85714286,19.375 L37.7777778,19.375" id="Line" stroke="#D2372C" stroke-width="1.2633808" stroke-linecap="square"></path>
                    <path d="M8.25396825,6.875 L31.1111111,30.625" id="Line-2" stroke="#D2372C" stroke-width="1.2633808" stroke-linecap="square"></path>
                    <path d="M20,20 L20,3.125" id="Line" stroke="#D2372C" stroke-width="1.2633808" stroke-linecap="square"></path>
                </g>
            </g>
        </g>
    </g>
</svg>