<?xml version="1.0" encoding="UTF-8" standalone="no"?>
<svg width="41px" height="40px" viewBox="0 0 41 40" version="1.1" xmlns="http://www.w3.org/2000/svg" xmlns:xlink="http://www.w3.org/1999/xlink" xmlns:sketch="http://www.bohemiancoding.com/sketch/ns">
    <!-- Generator: Sketch 3.3.3 (12072) - http://www.bohemiancoding.com/sketch -->
    <title>bitesized_icon</title>
    <desc>Created with Sketch.</desc>
    <defs>
        <path id="path-1" d="M20,39.8208955 C31.045695,39.8208955 40,31.0002369 40,20.119403 C40,9.23856911 31.045695,0.417910448 20,0.417910448 C8.954305,0.417910448 0,9.23856911 0,20.119403 C0,31.0002369 8.954305,39.8208955 20,39.8208955 Z"></path>
    </defs>
    <g id="Page-1" stroke="none" stroke-width="1" fill="none" fill-rule="evenodd" sketch:type="MSPage">
        <g id="Desktop-HD-2" sketch:type="MSArtboardGroup" transform="translate(-104.000000, -1392.000000)">
            <g id="Group" sketch:type="MSLayerGroup" transform="translate(104.500000, 1113.000000)">
                <g id="bitesized_icon" transform="translate(0.000000, 279.000000)">
                    <g id="Path-3">
                        <mask id="mask-2" sketch:name="Mask" fill="white">
                            <use xlink:href="#path-1"></use>
                        </mask>
                        <use id="Mask" fill="#EE6A6A" sketch:type="MSShapeGroup" xlink:href="#path-1"></use>
                        <path d="M27.5323153,0.89295709 C23.2386364,-0.397154851 20.4545455,-0.563316231 20.4545455,-0.563316231 L20.4545455,20.5578126 C20.4545455,20.5578126 40.5234374,7.79375011 40.5234374,7.79375011 C38.5239922,6.47510653 31.8259943,2.18306903 27.5323153,0.89295709 Z" fill="#E54D42" sketch:type="MSShapeGroup" mask="url(#mask-2)"></path>
                    </g>
                    <circle id="Oval-3" fill="#D2372C" sketch:type="MSShapeGroup" cx="20" cy="20" r="2.4"></circle>
                    <rect id="Rectangle-8" fill="#D2372C" sketch:type="MSShapeGroup" x="18.8" y="6.4" width="2.4" height="18.4"></rect>
                </g>
            </g>
        </g>
    </g>
</svg>