<?xml version="1.0" encoding="UTF-8" standalone="no"?>
<svg width="246px" height="437px" viewBox="0 0 246 437" version="1.1" xmlns="http://www.w3.org/2000/svg" xmlns:xlink="http://www.w3.org/1999/xlink" xmlns:sketch="http://www.bohemiancoding.com/sketch/ns">
    <!-- Generator: Sketch 3.2.2 (9983) - http://www.bohemiancoding.com/sketch -->
    <title>Sparkle Slides</title>
    <desc>Created with Sketch.</desc>
    <defs>
        <linearGradient x1="50%" y1="0%" x2="50%" y2="100%" id="linearGradient-1">
            <stop stop-color="#FF9B62" offset="0%"></stop>
            <stop stop-color="#F18642" offset="100%"></stop>
        </linearGradient>
    </defs>
    <g id="App-UI" stroke="none" stroke-width="1" fill="none" fill-rule="evenodd" sketch:type="MSPage">
        <g id="Sparkle-Slides" sketch:type="MSArtboardGroup">
            <rect id="Rectangle-1" fill="url(#linearGradient-1)" sketch:type="MSShapeGroup" x="0" y="0" width="246" height="437"></rect>
            <g id="Status-Bar-White" sketch:type="MSLayerGroup" fill="#FFFFFF">
                <path d="M6.068,9.1 C7.06432169,9.1 7.872,8.23814814 7.872,7.175 C7.872,6.11185186 7.06432169,5.25 6.068,5.25 C5.07167831,5.25 4.264,6.11185186 4.264,7.175 C4.264,8.23814814 5.07167831,9.1 6.068,9.1 Z M10.66,9.1 C11.6563217,9.1 12.464,8.23814814 12.464,7.175 C12.464,6.11185186 11.6563217,5.25 10.66,5.25 C9.66367831,5.25 8.856,6.11185186 8.856,7.175 C8.856,8.23814814 9.66367831,9.1 10.66,9.1 Z M15.252,9.1 C16.2483217,9.1 17.056,8.23814814 17.056,7.175 C17.056,6.11185186 16.2483217,5.25 15.252,5.25 C14.2556783,5.25 13.448,6.11185186 13.448,7.175 C13.448,8.23814814 14.2556783,9.1 15.252,9.1 Z M19.844,9.1 C20.8403217,9.1 21.648,8.23814814 21.648,7.175 C21.648,6.11185186 20.8403217,5.25 19.844,5.25 C18.8476783,5.25 18.04,6.11185186 18.04,7.175 C18.04,8.23814814 18.8476783,9.1 19.844,9.1 Z M19.844,8.75 C20.6591723,8.75 21.32,8.04484848 21.32,7.175 C21.32,6.30515152 20.6591723,5.6 19.844,5.6 C19.0288277,5.6 18.368,6.30515152 18.368,7.175 C18.368,8.04484848 19.0288277,8.75 19.844,8.75 Z M24.436,9.1 C25.4323217,9.1 26.24,8.23814814 26.24,7.175 C26.24,6.11185186 25.4323217,5.25 24.436,5.25 C23.4396783,5.25 22.632,6.11185186 22.632,7.175 C22.632,8.23814814 23.4396783,9.1 24.436,9.1 Z M24.436,8.75 C25.2511723,8.75 25.912,8.04484848 25.912,7.175 C25.912,6.30515152 25.2511723,5.6 24.436,5.6 C23.6208277,5.6 22.96,6.30515152 22.96,7.175 C22.96,8.04484848 23.6208277,8.75 24.436,8.75 Z" id="Mobile-Signal" sketch:type="MSShapeGroup"></path>
                <path d="M34.07074,8.70695302 C33.7309013,8.29181189 33.2231492,8.02823834 32.6558413,8.02823834 C32.0991888,8.02823834 31.5998758,8.28200389 31.2602684,8.68372239 L32.6787856,10.15 L34.07074,8.70695302 Z M35.5002136,7.22500972 C34.7925753,6.43422194 33.7801438,5.93911917 32.6558413,5.93911917 C31.5411066,5.93911917 30.5363469,6.42583125 29.829601,7.20488552 L30.5446599,7.94401997 C31.0680865,7.35375956 31.8201531,6.98367876 32.6558413,6.98367876 C33.5016356,6.98367876 34.2617736,7.36276453 34.7859117,7.96553052 L35.5002136,7.22500972 L35.5002136,7.22500972 Z M36.928,5.74481553 C35.8541003,4.5776057 34.3371739,3.85 32.6558413,3.85 C30.9830068,3.85 29.4729206,4.57026923 28.4,5.72715102 L29.11475,6.46596609 C30.0046284,5.49802158 31.2620572,4.89455959 32.6558413,4.89455959 C34.0586577,4.89455959 35.3233459,5.50586826 36.2141866,6.48482991 L36.928,5.74481553 Z" id="Wi-Fi" sketch:type="MSShapeGroup"></path>
                <text id="9:41-AM" sketch:type="MSTextLayer" font-family="Helvetica Neue" font-size="7.71428571" font-weight="normal" sketch:alignment="middle" letter-spacing="0.100000001">
                    <tspan x="107.884714" y="9.45">9:41 AM</tspan>
                </text>
                <text id="100%" sketch:type="MSTextLayer" font-family="Helvetica Neue" font-size="7.71428571" font-weight="normal" sketch:alignment="right">
                    <tspan x="203.770286" y="9.45">100%</tspan>
                </text>
                <path d="M227.816494,3.85 C226.990003,3.85 226.32,4.51193938 226.32,5.35898793 L226.32,8.99101207 C226.32,9.82440309 226.992561,10.5 227.816494,10.5 L239.583506,10.5 C240.409997,10.5 241.08,9.83806062 241.08,8.99101207 L241.08,5.35898793 C241.08,4.52559691 240.407439,3.85 239.583506,3.85 L227.816494,3.85 Z M241.408,5.95 L241.408,8.4 L241.9,8.4 C242.171724,8.4 242.392,8.17390137 242.392,7.90420594 L242.392,6.44579406 C242.392,6.17197456 242.163777,5.95 241.9,5.95 L241.408,5.95 Z M227.639766,4.2 C227.092029,4.2 226.648,4.64721705 226.648,5.20933639 L226.648,9.14066361 C226.648,9.6981047 227.101291,10.15 227.639766,10.15 L239.760234,10.15 C240.307971,10.15 240.752,9.70278295 240.752,9.14066361 L240.752,5.20933639 C240.752,4.6518953 240.298709,4.2 239.760234,4.2 L227.639766,4.2 Z M227.47057,4.55 C227.197427,4.55 226.976,4.77558594 226.976,5.05339207 L226.976,9.29660793 C226.976,9.57462369 227.209415,9.8 227.47057,9.8 L239.92943,9.8 C240.202573,9.8 240.424,9.57441406 240.424,9.29660793 L240.424,5.05339207 C240.424,4.77537631 240.190585,4.55 239.92943,4.55 L227.47057,4.55 Z" id="Battery" sketch:type="MSShapeGroup"></path>
            </g>
        </g>
    </g>
</svg>